ISO-10303-21;
HEADER;
FILE_DESCRIPTION(('SW_Toggle_Mini_SPDT_Salecom_S1315'),'2;1');
FILE_NAME('SW_Toggle_Mini_SPDT_Salecom_S1315.step','2026-10-03',(''),(''),'make_toggle_models.py','','');
FILE_SCHEMA(('AUTOMOTIVE_DESIGN { 1 0 10303 214 1 1 1 1 }'));
ENDSEC;
DATA;
#1=(LENGTH_UNIT() NAMED_UNIT(*) SI_UNIT(.MILLI.,.METRE.));
#2=(NAMED_UNIT(*) PLANE_ANGLE_UNIT() SI_UNIT($,.RADIAN.));
#3=(NAMED_UNIT(*) SI_UNIT($,.STERADIAN.) SOLID_ANGLE_UNIT());
#4=UNCERTAINTY_MEASURE_WITH_UNIT(LENGTH_MEASURE(1.E-06),#1,'distance_accuracy_value','');
#5=(GEOMETRIC_REPRESENTATION_CONTEXT(3) GLOBAL_UNCERTAINTY_ASSIGNED_CONTEXT((#4)) GLOBAL_UNIT_ASSIGNED_CONTEXT((#1,#2,#3)) REPRESENTATION_CONTEXT('',''));
#6=CARTESIAN_POINT('',(0.,0.,0.));
#7=DIRECTION('',(0.,0.,1.));
#8=DIRECTION('',(1.,0.,0.));
#9=AXIS2_PLACEMENT_3D('',#6,#7,#8);
#10=CARTESIAN_POINT('',(-3.45,-6.35,0.));
#11=VERTEX_POINT('',#10);
#12=CARTESIAN_POINT('',(3.45,-6.35,0.));
#13=VERTEX_POINT('',#12);
#14=CARTESIAN_POINT('',(3.45,6.35,0.));
#15=VERTEX_POINT('',#14);
#16=CARTESIAN_POINT('',(-3.45,6.35,0.));
#17=VERTEX_POINT('',#16);
#18=CARTESIAN_POINT('',(-3.45,-6.35,9.2));
#19=VERTEX_POINT('',#18);
#20=CARTESIAN_POINT('',(3.45,-6.35,9.2));
#21=VERTEX_POINT('',#20);
#22=CARTESIAN_POINT('',(3.45,6.35,9.2));
#23=VERTEX_POINT('',#22);
#24=CARTESIAN_POINT('',(-3.45,6.35,9.2));
#25=VERTEX_POINT('',#24);
#26=DIRECTION('',(-1.,0.,0.));
#27=VECTOR('',#26,6.9);
#28=LINE('',#14,#27);
#29=EDGE_CURVE('',#15,#17,#28,.T.);
#30=ORIENTED_EDGE('',*,*,#29,.F.);
#31=DIRECTION('',(0.,1.,0.));
#32=VECTOR('',#31,12.7);
#33=LINE('',#12,#32);
#34=EDGE_CURVE('',#13,#15,#33,.T.);
#35=ORIENTED_EDGE('',*,*,#34,.F.);
#36=DIRECTION('',(1.,0.,0.));
#37=VECTOR('',#36,6.9);
#38=LINE('',#10,#37);
#39=EDGE_CURVE('',#11,#13,#38,.T.);
#40=ORIENTED_EDGE('',*,*,#39,.F.);
#41=DIRECTION('',(0.,1.,0.));
#42=VECTOR('',#41,12.7);
#43=LINE('',#10,#42);
#44=EDGE_CURVE('',#11,#17,#43,.T.);
#45=ORIENTED_EDGE('',*,*,#44,.T.);
#46=EDGE_LOOP('',(#30,#35,#40,#45));
#47=FACE_OUTER_BOUND('',#46,.T.);
#48=DIRECTION('',(0.,0.,-1.));
#49=DIRECTION('',(1.,0.,0.));
#50=AXIS2_PLACEMENT_3D('',#16,#48,#49);
#51=PLANE('',#50);
#52=ADVANCED_FACE('',(#47),#51,.T.);
#53=DIRECTION('',(1.,0.,0.));
#54=VECTOR('',#53,6.9);
#55=LINE('',#18,#54);
#56=EDGE_CURVE('',#19,#21,#55,.T.);
#57=ORIENTED_EDGE('',*,*,#56,.T.);
#58=DIRECTION('',(0.,1.,0.));
#59=VECTOR('',#58,12.7);
#60=LINE('',#20,#59);
#61=EDGE_CURVE('',#21,#23,#60,.T.);
#62=ORIENTED_EDGE('',*,*,#61,.T.);
#63=DIRECTION('',(-1.,0.,0.));
#64=VECTOR('',#63,6.9);
#65=LINE('',#22,#64);
#66=EDGE_CURVE('',#23,#25,#65,.T.);
#67=ORIENTED_EDGE('',*,*,#66,.T.);
#68=DIRECTION('',(0.,1.,0.));
#69=VECTOR('',#68,12.7);
#70=LINE('',#18,#69);
#71=EDGE_CURVE('',#19,#25,#70,.T.);
#72=ORIENTED_EDGE('',*,*,#71,.F.);
#73=EDGE_LOOP('',(#57,#62,#67,#72));
#74=FACE_OUTER_BOUND('',#73,.T.);
#75=DIRECTION('',(0.,0.,1.));
#76=DIRECTION('',(1.,0.,0.));
#77=AXIS2_PLACEMENT_3D('',#18,#75,#76);
#78=PLANE('',#77);
#79=ADVANCED_FACE('',(#74),#78,.T.);
#80=ORIENTED_EDGE('',*,*,#39,.T.);
#81=DIRECTION('',(0.,0.,1.));
#82=VECTOR('',#81,9.2);
#83=LINE('',#12,#82);
#84=EDGE_CURVE('',#13,#21,#83,.T.);
#85=ORIENTED_EDGE('',*,*,#84,.T.);
#86=ORIENTED_EDGE('',*,*,#56,.F.);
#87=DIRECTION('',(0.,0.,1.));
#88=VECTOR('',#87,9.2);
#89=LINE('',#10,#88);
#90=EDGE_CURVE('',#11,#19,#89,.T.);
#91=ORIENTED_EDGE('',*,*,#90,.F.);
#92=EDGE_LOOP('',(#80,#85,#86,#91));
#93=FACE_OUTER_BOUND('',#92,.T.);
#94=DIRECTION('',(0.,-1.,0.));
#95=DIRECTION('',(1.,0.,0.));
#96=AXIS2_PLACEMENT_3D('',#10,#94,#95);
#97=PLANE('',#96);
#98=ADVANCED_FACE('',(#93),#97,.T.);
#99=ORIENTED_EDGE('',*,*,#34,.T.);
#100=DIRECTION('',(0.,0.,1.));
#101=VECTOR('',#100,9.2);
#102=LINE('',#14,#101);
#103=EDGE_CURVE('',#15,#23,#102,.T.);
#104=ORIENTED_EDGE('',*,*,#103,.T.);
#105=ORIENTED_EDGE('',*,*,#61,.F.);
#106=ORIENTED_EDGE('',*,*,#84,.F.);
#107=EDGE_LOOP('',(#99,#104,#105,#106));
#108=FACE_OUTER_BOUND('',#107,.T.);
#109=DIRECTION('',(1.,0.,0.));
#110=DIRECTION('',(0.,1.,0.));
#111=AXIS2_PLACEMENT_3D('',#12,#109,#110);
#112=PLANE('',#111);
#113=ADVANCED_FACE('',(#108),#112,.T.);
#114=ORIENTED_EDGE('',*,*,#29,.T.);
#115=DIRECTION('',(0.,0.,1.));
#116=VECTOR('',#115,9.2);
#117=LINE('',#16,#116);
#118=EDGE_CURVE('',#17,#25,#117,.T.);
#119=ORIENTED_EDGE('',*,*,#118,.T.);
#120=ORIENTED_EDGE('',*,*,#66,.F.);
#121=ORIENTED_EDGE('',*,*,#103,.F.);
#122=EDGE_LOOP('',(#114,#119,#120,#121));
#123=FACE_OUTER_BOUND('',#122,.T.);
#124=DIRECTION('',(0.,1.,-0.));
#125=DIRECTION('',(-1.,0.,0.));
#126=AXIS2_PLACEMENT_3D('',#14,#124,#125);
#127=PLANE('',#126);
#128=ADVANCED_FACE('',(#123),#127,.T.);
#129=ORIENTED_EDGE('',*,*,#44,.F.);
#130=ORIENTED_EDGE('',*,*,#90,.T.);
#131=ORIENTED_EDGE('',*,*,#71,.T.);
#132=ORIENTED_EDGE('',*,*,#118,.F.);
#133=EDGE_LOOP('',(#129,#130,#131,#132));
#134=FACE_OUTER_BOUND('',#133,.T.);
#135=DIRECTION('',(-1.,0.,0.));
#136=DIRECTION('',(0.,-1.,0.));
#137=AXIS2_PLACEMENT_3D('',#16,#135,#136);
#138=PLANE('',#137);
#139=ADVANCED_FACE('',(#134),#138,.T.);
#140=CLOSED_SHELL('',(#52,#79,#98,#113,#128,#139));
#141=MANIFOLD_SOLID_BREP('case',#140);
#142=COLOUR_RGB('',0.55,0.08,0.08);
#143=FILL_AREA_STYLE_COLOUR('',#142);
#144=FILL_AREA_STYLE('',(#143));
#145=SURFACE_STYLE_FILL_AREA(#144);
#146=SURFACE_SIDE_STYLE('',(#145));
#147=SURFACE_STYLE_USAGE(.BOTH.,#146);
#148=PRESENTATION_STYLE_ASSIGNMENT((#147));
#149=STYLED_ITEM('color',(#148),#141);
#150=CARTESIAN_POINT('',(-3.55,-6.45,9.2));
#151=VERTEX_POINT('',#150);
#152=CARTESIAN_POINT('',(3.55,-6.45,9.2));
#153=VERTEX_POINT('',#152);
#154=CARTESIAN_POINT('',(3.55,6.45,9.2));
#155=VERTEX_POINT('',#154);
#156=CARTESIAN_POINT('',(-3.55,6.45,9.2));
#157=VERTEX_POINT('',#156);
#158=CARTESIAN_POINT('',(-3.55,-6.45,10.4));
#159=VERTEX_POINT('',#158);
#160=CARTESIAN_POINT('',(3.55,-6.45,10.4));
#161=VERTEX_POINT('',#160);
#162=CARTESIAN_POINT('',(3.55,6.45,10.4));
#163=VERTEX_POINT('',#162);
#164=CARTESIAN_POINT('',(-3.55,6.45,10.4));
#165=VERTEX_POINT('',#164);
#166=DIRECTION('',(-1.,0.,0.));
#167=VECTOR('',#166,7.1);
#168=LINE('',#154,#167);
#169=EDGE_CURVE('',#155,#157,#168,.T.);
#170=ORIENTED_EDGE('',*,*,#169,.F.);
#171=DIRECTION('',(0.,1.,0.));
#172=VECTOR('',#171,12.9);
#173=LINE('',#152,#172);
#174=EDGE_CURVE('',#153,#155,#173,.T.);
#175=ORIENTED_EDGE('',*,*,#174,.F.);
#176=DIRECTION('',(1.,0.,0.));
#177=VECTOR('',#176,7.1);
#178=LINE('',#150,#177);
#179=EDGE_CURVE('',#151,#153,#178,.T.);
#180=ORIENTED_EDGE('',*,*,#179,.F.);
#181=DIRECTION('',(0.,1.,0.));
#182=VECTOR('',#181,12.9);
#183=LINE('',#150,#182);
#184=EDGE_CURVE('',#151,#157,#183,.T.);
#185=ORIENTED_EDGE('',*,*,#184,.T.);
#186=EDGE_LOOP('',(#170,#175,#180,#185));
#187=FACE_OUTER_BOUND('',#186,.T.);
#188=DIRECTION('',(0.,0.,-1.));
#189=DIRECTION('',(1.,0.,0.));
#190=AXIS2_PLACEMENT_3D('',#156,#188,#189);
#191=PLANE('',#190);
#192=ADVANCED_FACE('',(#187),#191,.T.);
#193=DIRECTION('',(1.,0.,0.));
#194=VECTOR('',#193,7.1);
#195=LINE('',#158,#194);
#196=EDGE_CURVE('',#159,#161,#195,.T.);
#197=ORIENTED_EDGE('',*,*,#196,.T.);
#198=DIRECTION('',(0.,1.,0.));
#199=VECTOR('',#198,12.9);
#200=LINE('',#160,#199);
#201=EDGE_CURVE('',#161,#163,#200,.T.);
#202=ORIENTED_EDGE('',*,*,#201,.T.);
#203=DIRECTION('',(-1.,0.,0.));
#204=VECTOR('',#203,7.1);
#205=LINE('',#162,#204);
#206=EDGE_CURVE('',#163,#165,#205,.T.);
#207=ORIENTED_EDGE('',*,*,#206,.T.);
#208=DIRECTION('',(0.,1.,0.));
#209=VECTOR('',#208,12.9);
#210=LINE('',#158,#209);
#211=EDGE_CURVE('',#159,#165,#210,.T.);
#212=ORIENTED_EDGE('',*,*,#211,.F.);
#213=EDGE_LOOP('',(#197,#202,#207,#212));
#214=FACE_OUTER_BOUND('',#213,.T.);
#215=DIRECTION('',(0.,0.,1.));
#216=DIRECTION('',(1.,0.,0.));
#217=AXIS2_PLACEMENT_3D('',#158,#215,#216);
#218=PLANE('',#217);
#219=ADVANCED_FACE('',(#214),#218,.T.);
#220=ORIENTED_EDGE('',*,*,#179,.T.);
#221=DIRECTION('',(0.,0.,1.));
#222=VECTOR('',#221,1.2);
#223=LINE('',#152,#222);
#224=EDGE_CURVE('',#153,#161,#223,.T.);
#225=ORIENTED_EDGE('',*,*,#224,.T.);
#226=ORIENTED_EDGE('',*,*,#196,.F.);
#227=DIRECTION('',(0.,0.,1.));
#228=VECTOR('',#227,1.2);
#229=LINE('',#150,#228);
#230=EDGE_CURVE('',#151,#159,#229,.T.);
#231=ORIENTED_EDGE('',*,*,#230,.F.);
#232=EDGE_LOOP('',(#220,#225,#226,#231));
#233=FACE_OUTER_BOUND('',#232,.T.);
#234=DIRECTION('',(0.,-1.,0.));
#235=DIRECTION('',(1.,0.,0.));
#236=AXIS2_PLACEMENT_3D('',#150,#234,#235);
#237=PLANE('',#236);
#238=ADVANCED_FACE('',(#233),#237,.T.);
#239=ORIENTED_EDGE('',*,*,#174,.T.);
#240=DIRECTION('',(0.,0.,1.));
#241=VECTOR('',#240,1.2);
#242=LINE('',#154,#241);
#243=EDGE_CURVE('',#155,#163,#242,.T.);
#244=ORIENTED_EDGE('',*,*,#243,.T.);
#245=ORIENTED_EDGE('',*,*,#201,.F.);
#246=ORIENTED_EDGE('',*,*,#224,.F.);
#247=EDGE_LOOP('',(#239,#244,#245,#246));
#248=FACE_OUTER_BOUND('',#247,.T.);
#249=DIRECTION('',(1.,0.,0.));
#250=DIRECTION('',(0.,1.,0.));
#251=AXIS2_PLACEMENT_3D('',#152,#249,#250);
#252=PLANE('',#251);
#253=ADVANCED_FACE('',(#248),#252,.T.);
#254=ORIENTED_EDGE('',*,*,#169,.T.);
#255=DIRECTION('',(0.,0.,1.));
#256=VECTOR('',#255,1.2);
#257=LINE('',#156,#256);
#258=EDGE_CURVE('',#157,#165,#257,.T.);
#259=ORIENTED_EDGE('',*,*,#258,.T.);
#260=ORIENTED_EDGE('',*,*,#206,.F.);
#261=ORIENTED_EDGE('',*,*,#243,.F.);
#262=EDGE_LOOP('',(#254,#259,#260,#261));
#263=FACE_OUTER_BOUND('',#262,.T.);
#264=DIRECTION('',(0.,1.,-0.));
#265=DIRECTION('',(-1.,0.,0.));
#266=AXIS2_PLACEMENT_3D('',#154,#264,#265);
#267=PLANE('',#266);
#268=ADVANCED_FACE('',(#263),#267,.T.);
#269=ORIENTED_EDGE('',*,*,#184,.F.);
#270=ORIENTED_EDGE('',*,*,#230,.T.);
#271=ORIENTED_EDGE('',*,*,#211,.T.);
#272=ORIENTED_EDGE('',*,*,#258,.F.);
#273=EDGE_LOOP('',(#269,#270,#271,#272));
#274=FACE_OUTER_BOUND('',#273,.T.);
#275=DIRECTION('',(-1.,0.,0.));
#276=DIRECTION('',(0.,-1.,0.));
#277=AXIS2_PLACEMENT_3D('',#156,#275,#276);
#278=PLANE('',#277);
#279=ADVANCED_FACE('',(#274),#278,.T.);
#280=CLOSED_SHELL('',(#192,#219,#238,#253,#268,#279));
#281=MANIFOLD_SOLID_BREP('frame',#280);
#282=COLOUR_RGB('',0.62,0.63,0.65);
#283=FILL_AREA_STYLE_COLOUR('',#282);
#284=FILL_AREA_STYLE('',(#283));
#285=SURFACE_STYLE_FILL_AREA(#284);
#286=SURFACE_SIDE_STYLE('',(#285));
#287=SURFACE_STYLE_USAGE(.BOTH.,#286);
#288=PRESENTATION_STYLE_ASSIGNMENT((#287));
#289=STYLED_ITEM('color',(#288),#281);
#290=CARTESIAN_POINT('',(3.1,0.,10.4));
#291=VERTEX_POINT('',#290);
#292=CARTESIAN_POINT('',(2.99437,0.802339,10.4));
#293=VERTEX_POINT('',#292);
#294=CARTESIAN_POINT('',(2.684679,1.55,10.4));
#295=VERTEX_POINT('',#294);
#296=CARTESIAN_POINT('',(2.192031,2.192031,10.4));
#297=VERTEX_POINT('',#296);
#298=CARTESIAN_POINT('',(1.55,2.684679,10.4));
#299=VERTEX_POINT('',#298);
#300=CARTESIAN_POINT('',(0.802339,2.99437,10.4));
#301=VERTEX_POINT('',#300);
#302=CARTESIAN_POINT('',(0.,3.1,10.4));
#303=VERTEX_POINT('',#302);
#304=CARTESIAN_POINT('',(-0.802339,2.99437,10.4));
#305=VERTEX_POINT('',#304);
#306=CARTESIAN_POINT('',(-1.55,2.684679,10.4));
#307=VERTEX_POINT('',#306);
#308=CARTESIAN_POINT('',(-2.192031,2.192031,10.4));
#309=VERTEX_POINT('',#308);
#310=CARTESIAN_POINT('',(-2.684679,1.55,10.4));
#311=VERTEX_POINT('',#310);
#312=CARTESIAN_POINT('',(-2.99437,0.802339,10.4));
#313=VERTEX_POINT('',#312);
#314=CARTESIAN_POINT('',(-3.1,0.,10.4));
#315=VERTEX_POINT('',#314);
#316=CARTESIAN_POINT('',(-2.99437,-0.802339,10.4));
#317=VERTEX_POINT('',#316);
#318=CARTESIAN_POINT('',(-2.684679,-1.55,10.4));
#319=VERTEX_POINT('',#318);
#320=CARTESIAN_POINT('',(-2.192031,-2.192031,10.4));
#321=VERTEX_POINT('',#320);
#322=CARTESIAN_POINT('',(-1.55,-2.684679,10.4));
#323=VERTEX_POINT('',#322);
#324=CARTESIAN_POINT('',(-0.802339,-2.99437,10.4));
#325=VERTEX_POINT('',#324);
#326=CARTESIAN_POINT('',(-0.,-3.1,10.4));
#327=VERTEX_POINT('',#326);
#328=CARTESIAN_POINT('',(0.802339,-2.99437,10.4));
#329=VERTEX_POINT('',#328);
#330=CARTESIAN_POINT('',(1.55,-2.684679,10.4));
#331=VERTEX_POINT('',#330);
#332=CARTESIAN_POINT('',(2.192031,-2.192031,10.4));
#333=VERTEX_POINT('',#332);
#334=CARTESIAN_POINT('',(2.684679,-1.55,10.4));
#335=VERTEX_POINT('',#334);
#336=CARTESIAN_POINT('',(2.99437,-0.802339,10.4));
#337=VERTEX_POINT('',#336);
#338=CARTESIAN_POINT('',(3.1,0.,19.3));
#339=VERTEX_POINT('',#338);
#340=CARTESIAN_POINT('',(2.99437,0.802339,19.3));
#341=VERTEX_POINT('',#340);
#342=CARTESIAN_POINT('',(2.684679,1.55,19.3));
#343=VERTEX_POINT('',#342);
#344=CARTESIAN_POINT('',(2.192031,2.192031,19.3));
#345=VERTEX_POINT('',#344);
#346=CARTESIAN_POINT('',(1.55,2.684679,19.3));
#347=VERTEX_POINT('',#346);
#348=CARTESIAN_POINT('',(0.802339,2.99437,19.3));
#349=VERTEX_POINT('',#348);
#350=CARTESIAN_POINT('',(0.,3.1,19.3));
#351=VERTEX_POINT('',#350);
#352=CARTESIAN_POINT('',(-0.802339,2.99437,19.3));
#353=VERTEX_POINT('',#352);
#354=CARTESIAN_POINT('',(-1.55,2.684679,19.3));
#355=VERTEX_POINT('',#354);
#356=CARTESIAN_POINT('',(-2.192031,2.192031,19.3));
#357=VERTEX_POINT('',#356);
#358=CARTESIAN_POINT('',(-2.684679,1.55,19.3));
#359=VERTEX_POINT('',#358);
#360=CARTESIAN_POINT('',(-2.99437,0.802339,19.3));
#361=VERTEX_POINT('',#360);
#362=CARTESIAN_POINT('',(-3.1,0.,19.3));
#363=VERTEX_POINT('',#362);
#364=CARTESIAN_POINT('',(-2.99437,-0.802339,19.3));
#365=VERTEX_POINT('',#364);
#366=CARTESIAN_POINT('',(-2.684679,-1.55,19.3));
#367=VERTEX_POINT('',#366);
#368=CARTESIAN_POINT('',(-2.192031,-2.192031,19.3));
#369=VERTEX_POINT('',#368);
#370=CARTESIAN_POINT('',(-1.55,-2.684679,19.3));
#371=VERTEX_POINT('',#370);
#372=CARTESIAN_POINT('',(-0.802339,-2.99437,19.3));
#373=VERTEX_POINT('',#372);
#374=CARTESIAN_POINT('',(-0.,-3.1,19.3));
#375=VERTEX_POINT('',#374);
#376=CARTESIAN_POINT('',(0.802339,-2.99437,19.3));
#377=VERTEX_POINT('',#376);
#378=CARTESIAN_POINT('',(1.55,-2.684679,19.3));
#379=VERTEX_POINT('',#378);
#380=CARTESIAN_POINT('',(2.192031,-2.192031,19.3));
#381=VERTEX_POINT('',#380);
#382=CARTESIAN_POINT('',(2.684679,-1.55,19.3));
#383=VERTEX_POINT('',#382);
#384=CARTESIAN_POINT('',(2.99437,-0.802339,19.3));
#385=VERTEX_POINT('',#384);
#386=DIRECTION('',(0.382683,0.92388,0.));
#387=VECTOR('',#386,0.809262);
#388=LINE('',#334,#387);
#389=EDGE_CURVE('',#335,#337,#388,.T.);
#390=ORIENTED_EDGE('',*,*,#389,.F.);
#391=DIRECTION('',(0.608761,0.793353,0.));
#392=VECTOR('',#391,0.809262);
#393=LINE('',#332,#392);
#394=EDGE_CURVE('',#333,#335,#393,.T.);
#395=ORIENTED_EDGE('',*,*,#394,.F.);
#396=DIRECTION('',(0.793353,0.608761,0.));
#397=VECTOR('',#396,0.809262);
#398=LINE('',#330,#397);
#399=EDGE_CURVE('',#331,#333,#398,.T.);
#400=ORIENTED_EDGE('',*,*,#399,.F.);
#401=DIRECTION('',(0.92388,0.382683,0.));
#402=VECTOR('',#401,0.809262);
#403=LINE('',#328,#402);
#404=EDGE_CURVE('',#329,#331,#403,.T.);
#405=ORIENTED_EDGE('',*,*,#404,.F.);
#406=DIRECTION('',(0.991445,0.130526,0.));
#407=VECTOR('',#406,0.809262);
#408=LINE('',#326,#407);
#409=EDGE_CURVE('',#327,#329,#408,.T.);
#410=ORIENTED_EDGE('',*,*,#409,.F.);
#411=DIRECTION('',(0.991445,-0.130526,0.));
#412=VECTOR('',#411,0.809262);
#413=LINE('',#324,#412);
#414=EDGE_CURVE('',#325,#327,#413,.T.);
#415=ORIENTED_EDGE('',*,*,#414,.F.);
#416=DIRECTION('',(0.92388,-0.382683,0.));
#417=VECTOR('',#416,0.809262);
#418=LINE('',#322,#417);
#419=EDGE_CURVE('',#323,#325,#418,.T.);
#420=ORIENTED_EDGE('',*,*,#419,.F.);
#421=DIRECTION('',(0.793353,-0.608761,0.));
#422=VECTOR('',#421,0.809262);
#423=LINE('',#320,#422);
#424=EDGE_CURVE('',#321,#323,#423,.T.);
#425=ORIENTED_EDGE('',*,*,#424,.F.);
#426=DIRECTION('',(0.608761,-0.793353,0.));
#427=VECTOR('',#426,0.809262);
#428=LINE('',#318,#427);
#429=EDGE_CURVE('',#319,#321,#428,.T.);
#430=ORIENTED_EDGE('',*,*,#429,.F.);
#431=DIRECTION('',(0.382683,-0.92388,0.));
#432=VECTOR('',#431,0.809262);
#433=LINE('',#316,#432);
#434=EDGE_CURVE('',#317,#319,#433,.T.);
#435=ORIENTED_EDGE('',*,*,#434,.F.);
#436=DIRECTION('',(0.130526,-0.991445,0.));
#437=VECTOR('',#436,0.809262);
#438=LINE('',#314,#437);
#439=EDGE_CURVE('',#315,#317,#438,.T.);
#440=ORIENTED_EDGE('',*,*,#439,.F.);
#441=DIRECTION('',(-0.130526,-0.991445,0.));
#442=VECTOR('',#441,0.809262);
#443=LINE('',#312,#442);
#444=EDGE_CURVE('',#313,#315,#443,.T.);
#445=ORIENTED_EDGE('',*,*,#444,.F.);
#446=DIRECTION('',(-0.382683,-0.92388,0.));
#447=VECTOR('',#446,0.809262);
#448=LINE('',#310,#447);
#449=EDGE_CURVE('',#311,#313,#448,.T.);
#450=ORIENTED_EDGE('',*,*,#449,.F.);
#451=DIRECTION('',(-0.608761,-0.793353,0.));
#452=VECTOR('',#451,0.809262);
#453=LINE('',#308,#452);
#454=EDGE_CURVE('',#309,#311,#453,.T.);
#455=ORIENTED_EDGE('',*,*,#454,.F.);
#456=DIRECTION('',(-0.793353,-0.608761,0.));
#457=VECTOR('',#456,0.809262);
#458=LINE('',#306,#457);
#459=EDGE_CURVE('',#307,#309,#458,.T.);
#460=ORIENTED_EDGE('',*,*,#459,.F.);
#461=DIRECTION('',(-0.92388,-0.382683,0.));
#462=VECTOR('',#461,0.809262);
#463=LINE('',#304,#462);
#464=EDGE_CURVE('',#305,#307,#463,.T.);
#465=ORIENTED_EDGE('',*,*,#464,.F.);
#466=DIRECTION('',(-0.991445,-0.130526,0.));
#467=VECTOR('',#466,0.809262);
#468=LINE('',#302,#467);
#469=EDGE_CURVE('',#303,#305,#468,.T.);
#470=ORIENTED_EDGE('',*,*,#469,.F.);
#471=DIRECTION('',(-0.991445,0.130526,0.));
#472=VECTOR('',#471,0.809262);
#473=LINE('',#300,#472);
#474=EDGE_CURVE('',#301,#303,#473,.T.);
#475=ORIENTED_EDGE('',*,*,#474,.F.);
#476=DIRECTION('',(-0.92388,0.382683,0.));
#477=VECTOR('',#476,0.809262);
#478=LINE('',#298,#477);
#479=EDGE_CURVE('',#299,#301,#478,.T.);
#480=ORIENTED_EDGE('',*,*,#479,.F.);
#481=DIRECTION('',(-0.793353,0.608761,0.));
#482=VECTOR('',#481,0.809262);
#483=LINE('',#296,#482);
#484=EDGE_CURVE('',#297,#299,#483,.T.);
#485=ORIENTED_EDGE('',*,*,#484,.F.);
#486=DIRECTION('',(-0.608761,0.793353,0.));
#487=VECTOR('',#486,0.809262);
#488=LINE('',#294,#487);
#489=EDGE_CURVE('',#295,#297,#488,.T.);
#490=ORIENTED_EDGE('',*,*,#489,.F.);
#491=DIRECTION('',(-0.382683,0.92388,0.));
#492=VECTOR('',#491,0.809262);
#493=LINE('',#292,#492);
#494=EDGE_CURVE('',#293,#295,#493,.T.);
#495=ORIENTED_EDGE('',*,*,#494,.F.);
#496=DIRECTION('',(-0.130526,0.991445,0.));
#497=VECTOR('',#496,0.809262);
#498=LINE('',#290,#497);
#499=EDGE_CURVE('',#291,#293,#498,.T.);
#500=ORIENTED_EDGE('',*,*,#499,.F.);
#501=DIRECTION('',(-0.130526,-0.991445,0.));
#502=VECTOR('',#501,0.809262);
#503=LINE('',#290,#502);
#504=EDGE_CURVE('',#291,#337,#503,.T.);
#505=ORIENTED_EDGE('',*,*,#504,.T.);
#506=EDGE_LOOP('',(#390,#395,#400,#405,#410,#415,#420,#425,#430,#435,#440,#445,#450,#455,#460,#465,#470,#475,#480,#485,#490,#495,#500,#505));
#507=FACE_OUTER_BOUND('',#506,.T.);
#508=DIRECTION('',(0.,0.,-1.));
#509=DIRECTION('',(-0.382683,-0.92388,0.));
#510=AXIS2_PLACEMENT_3D('',#336,#508,#509);
#511=PLANE('',#510);
#512=ADVANCED_FACE('',(#507),#511,.T.);
#513=DIRECTION('',(-0.130526,0.991445,0.));
#514=VECTOR('',#513,0.809262);
#515=LINE('',#338,#514);
#516=EDGE_CURVE('',#339,#341,#515,.T.);
#517=ORIENTED_EDGE('',*,*,#516,.T.);
#518=DIRECTION('',(-0.382683,0.92388,0.));
#519=VECTOR('',#518,0.809262);
#520=LINE('',#340,#519);
#521=EDGE_CURVE('',#341,#343,#520,.T.);
#522=ORIENTED_EDGE('',*,*,#521,.T.);
#523=DIRECTION('',(-0.608761,0.793353,0.));
#524=VECTOR('',#523,0.809262);
#525=LINE('',#342,#524);
#526=EDGE_CURVE('',#343,#345,#525,.T.);
#527=ORIENTED_EDGE('',*,*,#526,.T.);
#528=DIRECTION('',(-0.793353,0.608761,0.));
#529=VECTOR('',#528,0.809262);
#530=LINE('',#344,#529);
#531=EDGE_CURVE('',#345,#347,#530,.T.);
#532=ORIENTED_EDGE('',*,*,#531,.T.);
#533=DIRECTION('',(-0.92388,0.382683,0.));
#534=VECTOR('',#533,0.809262);
#535=LINE('',#346,#534);
#536=EDGE_CURVE('',#347,#349,#535,.T.);
#537=ORIENTED_EDGE('',*,*,#536,.T.);
#538=DIRECTION('',(-0.991445,0.130526,0.));
#539=VECTOR('',#538,0.809262);
#540=LINE('',#348,#539);
#541=EDGE_CURVE('',#349,#351,#540,.T.);
#542=ORIENTED_EDGE('',*,*,#541,.T.);
#543=DIRECTION('',(-0.991445,-0.130526,0.));
#544=VECTOR('',#543,0.809262);
#545=LINE('',#350,#544);
#546=EDGE_CURVE('',#351,#353,#545,.T.);
#547=ORIENTED_EDGE('',*,*,#546,.T.);
#548=DIRECTION('',(-0.92388,-0.382683,0.));
#549=VECTOR('',#548,0.809262);
#550=LINE('',#352,#549);
#551=EDGE_CURVE('',#353,#355,#550,.T.);
#552=ORIENTED_EDGE('',*,*,#551,.T.);
#553=DIRECTION('',(-0.793353,-0.608761,0.));
#554=VECTOR('',#553,0.809262);
#555=LINE('',#354,#554);
#556=EDGE_CURVE('',#355,#357,#555,.T.);
#557=ORIENTED_EDGE('',*,*,#556,.T.);
#558=DIRECTION('',(-0.608761,-0.793353,0.));
#559=VECTOR('',#558,0.809262);
#560=LINE('',#356,#559);
#561=EDGE_CURVE('',#357,#359,#560,.T.);
#562=ORIENTED_EDGE('',*,*,#561,.T.);
#563=DIRECTION('',(-0.382683,-0.92388,0.));
#564=VECTOR('',#563,0.809262);
#565=LINE('',#358,#564);
#566=EDGE_CURVE('',#359,#361,#565,.T.);
#567=ORIENTED_EDGE('',*,*,#566,.T.);
#568=DIRECTION('',(-0.130526,-0.991445,0.));
#569=VECTOR('',#568,0.809262);
#570=LINE('',#360,#569);
#571=EDGE_CURVE('',#361,#363,#570,.T.);
#572=ORIENTED_EDGE('',*,*,#571,.T.);
#573=DIRECTION('',(0.130526,-0.991445,0.));
#574=VECTOR('',#573,0.809262);
#575=LINE('',#362,#574);
#576=EDGE_CURVE('',#363,#365,#575,.T.);
#577=ORIENTED_EDGE('',*,*,#576,.T.);
#578=DIRECTION('',(0.382683,-0.92388,0.));
#579=VECTOR('',#578,0.809262);
#580=LINE('',#364,#579);
#581=EDGE_CURVE('',#365,#367,#580,.T.);
#582=ORIENTED_EDGE('',*,*,#581,.T.);
#583=DIRECTION('',(0.608761,-0.793353,0.));
#584=VECTOR('',#583,0.809262);
#585=LINE('',#366,#584);
#586=EDGE_CURVE('',#367,#369,#585,.T.);
#587=ORIENTED_EDGE('',*,*,#586,.T.);
#588=DIRECTION('',(0.793353,-0.608761,0.));
#589=VECTOR('',#588,0.809262);
#590=LINE('',#368,#589);
#591=EDGE_CURVE('',#369,#371,#590,.T.);
#592=ORIENTED_EDGE('',*,*,#591,.T.);
#593=DIRECTION('',(0.92388,-0.382683,0.));
#594=VECTOR('',#593,0.809262);
#595=LINE('',#370,#594);
#596=EDGE_CURVE('',#371,#373,#595,.T.);
#597=ORIENTED_EDGE('',*,*,#596,.T.);
#598=DIRECTION('',(0.991445,-0.130526,0.));
#599=VECTOR('',#598,0.809262);
#600=LINE('',#372,#599);
#601=EDGE_CURVE('',#373,#375,#600,.T.);
#602=ORIENTED_EDGE('',*,*,#601,.T.);
#603=DIRECTION('',(0.991445,0.130526,0.));
#604=VECTOR('',#603,0.809262);
#605=LINE('',#374,#604);
#606=EDGE_CURVE('',#375,#377,#605,.T.);
#607=ORIENTED_EDGE('',*,*,#606,.T.);
#608=DIRECTION('',(0.92388,0.382683,0.));
#609=VECTOR('',#608,0.809262);
#610=LINE('',#376,#609);
#611=EDGE_CURVE('',#377,#379,#610,.T.);
#612=ORIENTED_EDGE('',*,*,#611,.T.);
#613=DIRECTION('',(0.793353,0.608761,0.));
#614=VECTOR('',#613,0.809262);
#615=LINE('',#378,#614);
#616=EDGE_CURVE('',#379,#381,#615,.T.);
#617=ORIENTED_EDGE('',*,*,#616,.T.);
#618=DIRECTION('',(0.608761,0.793353,0.));
#619=VECTOR('',#618,0.809262);
#620=LINE('',#380,#619);
#621=EDGE_CURVE('',#381,#383,#620,.T.);
#622=ORIENTED_EDGE('',*,*,#621,.T.);
#623=DIRECTION('',(0.382683,0.92388,0.));
#624=VECTOR('',#623,0.809262);
#625=LINE('',#382,#624);
#626=EDGE_CURVE('',#383,#385,#625,.T.);
#627=ORIENTED_EDGE('',*,*,#626,.T.);
#628=DIRECTION('',(-0.130526,-0.991445,0.));
#629=VECTOR('',#628,0.809262);
#630=LINE('',#338,#629);
#631=EDGE_CURVE('',#339,#385,#630,.T.);
#632=ORIENTED_EDGE('',*,*,#631,.F.);
#633=EDGE_LOOP('',(#517,#522,#527,#532,#537,#542,#547,#552,#557,#562,#567,#572,#577,#582,#587,#592,#597,#602,#607,#612,#617,#622,#627,#632));
#634=FACE_OUTER_BOUND('',#633,.T.);
#635=DIRECTION('',(0.,0.,1.));
#636=DIRECTION('',(-0.130526,0.991445,0.));
#637=AXIS2_PLACEMENT_3D('',#338,#635,#636);
#638=PLANE('',#637);
#639=ADVANCED_FACE('',(#634),#638,.T.);
#640=ORIENTED_EDGE('',*,*,#499,.T.);
#641=DIRECTION('',(0.,0.,1.));
#642=VECTOR('',#641,8.9);
#643=LINE('',#292,#642);
#644=EDGE_CURVE('',#293,#341,#643,.T.);
#645=ORIENTED_EDGE('',*,*,#644,.T.);
#646=ORIENTED_EDGE('',*,*,#516,.F.);
#647=DIRECTION('',(0.,0.,1.));
#648=VECTOR('',#647,8.9);
#649=LINE('',#290,#648);
#650=EDGE_CURVE('',#291,#339,#649,.T.);
#651=ORIENTED_EDGE('',*,*,#650,.F.);
#652=EDGE_LOOP('',(#640,#645,#646,#651));
#653=FACE_OUTER_BOUND('',#652,.T.);
#654=DIRECTION('',(0.991445,0.130526,-0.));
#655=DIRECTION('',(-0.130526,0.991445,0.));
#656=AXIS2_PLACEMENT_3D('',#290,#654,#655);
#657=PLANE('',#656);
#658=ADVANCED_FACE('',(#653),#657,.T.);
#659=ORIENTED_EDGE('',*,*,#494,.T.);
#660=DIRECTION('',(0.,0.,1.));
#661=VECTOR('',#660,8.9);
#662=LINE('',#294,#661);
#663=EDGE_CURVE('',#295,#343,#662,.T.);
#664=ORIENTED_EDGE('',*,*,#663,.T.);
#665=ORIENTED_EDGE('',*,*,#521,.F.);
#666=ORIENTED_EDGE('',*,*,#644,.F.);
#667=EDGE_LOOP('',(#659,#664,#665,#666));
#668=FACE_OUTER_BOUND('',#667,.T.);
#669=DIRECTION('',(0.92388,0.382683,-0.));
#670=DIRECTION('',(-0.382683,0.92388,0.));
#671=AXIS2_PLACEMENT_3D('',#292,#669,#670);
#672=PLANE('',#671);
#673=ADVANCED_FACE('',(#668),#672,.T.);
#674=ORIENTED_EDGE('',*,*,#489,.T.);
#675=DIRECTION('',(0.,0.,1.));
#676=VECTOR('',#675,8.9);
#677=LINE('',#296,#676);
#678=EDGE_CURVE('',#297,#345,#677,.T.);
#679=ORIENTED_EDGE('',*,*,#678,.T.);
#680=ORIENTED_EDGE('',*,*,#526,.F.);
#681=ORIENTED_EDGE('',*,*,#663,.F.);
#682=EDGE_LOOP('',(#674,#679,#680,#681));
#683=FACE_OUTER_BOUND('',#682,.T.);
#684=DIRECTION('',(0.793353,0.608761,-0.));
#685=DIRECTION('',(-0.608761,0.793353,0.));
#686=AXIS2_PLACEMENT_3D('',#294,#684,#685);
#687=PLANE('',#686);
#688=ADVANCED_FACE('',(#683),#687,.T.);
#689=ORIENTED_EDGE('',*,*,#484,.T.);
#690=DIRECTION('',(0.,0.,1.));
#691=VECTOR('',#690,8.9);
#692=LINE('',#298,#691);
#693=EDGE_CURVE('',#299,#347,#692,.T.);
#694=ORIENTED_EDGE('',*,*,#693,.T.);
#695=ORIENTED_EDGE('',*,*,#531,.F.);
#696=ORIENTED_EDGE('',*,*,#678,.F.);
#697=EDGE_LOOP('',(#689,#694,#695,#696));
#698=FACE_OUTER_BOUND('',#697,.T.);
#699=DIRECTION('',(0.608761,0.793353,-0.));
#700=DIRECTION('',(-0.793353,0.608761,0.));
#701=AXIS2_PLACEMENT_3D('',#296,#699,#700);
#702=PLANE('',#701);
#703=ADVANCED_FACE('',(#698),#702,.T.);
#704=ORIENTED_EDGE('',*,*,#479,.T.);
#705=DIRECTION('',(0.,0.,1.));
#706=VECTOR('',#705,8.9);
#707=LINE('',#300,#706);
#708=EDGE_CURVE('',#301,#349,#707,.T.);
#709=ORIENTED_EDGE('',*,*,#708,.T.);
#710=ORIENTED_EDGE('',*,*,#536,.F.);
#711=ORIENTED_EDGE('',*,*,#693,.F.);
#712=EDGE_LOOP('',(#704,#709,#710,#711));
#713=FACE_OUTER_BOUND('',#712,.T.);
#714=DIRECTION('',(0.382683,0.92388,-0.));
#715=DIRECTION('',(-0.92388,0.382683,0.));
#716=AXIS2_PLACEMENT_3D('',#298,#714,#715);
#717=PLANE('',#716);
#718=ADVANCED_FACE('',(#713),#717,.T.);
#719=ORIENTED_EDGE('',*,*,#474,.T.);
#720=DIRECTION('',(0.,0.,1.));
#721=VECTOR('',#720,8.9);
#722=LINE('',#302,#721);
#723=EDGE_CURVE('',#303,#351,#722,.T.);
#724=ORIENTED_EDGE('',*,*,#723,.T.);
#725=ORIENTED_EDGE('',*,*,#541,.F.);
#726=ORIENTED_EDGE('',*,*,#708,.F.);
#727=EDGE_LOOP('',(#719,#724,#725,#726));
#728=FACE_OUTER_BOUND('',#727,.T.);
#729=DIRECTION('',(0.130526,0.991445,-0.));
#730=DIRECTION('',(-0.991445,0.130526,0.));
#731=AXIS2_PLACEMENT_3D('',#300,#729,#730);
#732=PLANE('',#731);
#733=ADVANCED_FACE('',(#728),#732,.T.);
#734=ORIENTED_EDGE('',*,*,#469,.T.);
#735=DIRECTION('',(0.,0.,1.));
#736=VECTOR('',#735,8.9);
#737=LINE('',#304,#736);
#738=EDGE_CURVE('',#305,#353,#737,.T.);
#739=ORIENTED_EDGE('',*,*,#738,.T.);
#740=ORIENTED_EDGE('',*,*,#546,.F.);
#741=ORIENTED_EDGE('',*,*,#723,.F.);
#742=EDGE_LOOP('',(#734,#739,#740,#741));
#743=FACE_OUTER_BOUND('',#742,.T.);
#744=DIRECTION('',(-0.130526,0.991445,0.));
#745=DIRECTION('',(-0.991445,-0.130526,0.));
#746=AXIS2_PLACEMENT_3D('',#302,#744,#745);
#747=PLANE('',#746);
#748=ADVANCED_FACE('',(#743),#747,.T.);
#749=ORIENTED_EDGE('',*,*,#464,.T.);
#750=DIRECTION('',(0.,0.,1.));
#751=VECTOR('',#750,8.9);
#752=LINE('',#306,#751);
#753=EDGE_CURVE('',#307,#355,#752,.T.);
#754=ORIENTED_EDGE('',*,*,#753,.T.);
#755=ORIENTED_EDGE('',*,*,#551,.F.);
#756=ORIENTED_EDGE('',*,*,#738,.F.);
#757=EDGE_LOOP('',(#749,#754,#755,#756));
#758=FACE_OUTER_BOUND('',#757,.T.);
#759=DIRECTION('',(-0.382683,0.92388,0.));
#760=DIRECTION('',(-0.92388,-0.382683,0.));
#761=AXIS2_PLACEMENT_3D('',#304,#759,#760);
#762=PLANE('',#761);
#763=ADVANCED_FACE('',(#758),#762,.T.);
#764=ORIENTED_EDGE('',*,*,#459,.T.);
#765=DIRECTION('',(0.,0.,1.));
#766=VECTOR('',#765,8.9);
#767=LINE('',#308,#766);
#768=EDGE_CURVE('',#309,#357,#767,.T.);
#769=ORIENTED_EDGE('',*,*,#768,.T.);
#770=ORIENTED_EDGE('',*,*,#556,.F.);
#771=ORIENTED_EDGE('',*,*,#753,.F.);
#772=EDGE_LOOP('',(#764,#769,#770,#771));
#773=FACE_OUTER_BOUND('',#772,.T.);
#774=DIRECTION('',(-0.608761,0.793353,0.));
#775=DIRECTION('',(-0.793353,-0.608761,0.));
#776=AXIS2_PLACEMENT_3D('',#306,#774,#775);
#777=PLANE('',#776);
#778=ADVANCED_FACE('',(#773),#777,.T.);
#779=ORIENTED_EDGE('',*,*,#454,.T.);
#780=DIRECTION('',(0.,0.,1.));
#781=VECTOR('',#780,8.9);
#782=LINE('',#310,#781);
#783=EDGE_CURVE('',#311,#359,#782,.T.);
#784=ORIENTED_EDGE('',*,*,#783,.T.);
#785=ORIENTED_EDGE('',*,*,#561,.F.);
#786=ORIENTED_EDGE('',*,*,#768,.F.);
#787=EDGE_LOOP('',(#779,#784,#785,#786));
#788=FACE_OUTER_BOUND('',#787,.T.);
#789=DIRECTION('',(-0.793353,0.608761,0.));
#790=DIRECTION('',(-0.608761,-0.793353,0.));
#791=AXIS2_PLACEMENT_3D('',#308,#789,#790);
#792=PLANE('',#791);
#793=ADVANCED_FACE('',(#788),#792,.T.);
#794=ORIENTED_EDGE('',*,*,#449,.T.);
#795=DIRECTION('',(0.,0.,1.));
#796=VECTOR('',#795,8.9);
#797=LINE('',#312,#796);
#798=EDGE_CURVE('',#313,#361,#797,.T.);
#799=ORIENTED_EDGE('',*,*,#798,.T.);
#800=ORIENTED_EDGE('',*,*,#566,.F.);
#801=ORIENTED_EDGE('',*,*,#783,.F.);
#802=EDGE_LOOP('',(#794,#799,#800,#801));
#803=FACE_OUTER_BOUND('',#802,.T.);
#804=DIRECTION('',(-0.92388,0.382683,0.));
#805=DIRECTION('',(-0.382683,-0.92388,0.));
#806=AXIS2_PLACEMENT_3D('',#310,#804,#805);
#807=PLANE('',#806);
#808=ADVANCED_FACE('',(#803),#807,.T.);
#809=ORIENTED_EDGE('',*,*,#444,.T.);
#810=DIRECTION('',(0.,0.,1.));
#811=VECTOR('',#810,8.9);
#812=LINE('',#314,#811);
#813=EDGE_CURVE('',#315,#363,#812,.T.);
#814=ORIENTED_EDGE('',*,*,#813,.T.);
#815=ORIENTED_EDGE('',*,*,#571,.F.);
#816=ORIENTED_EDGE('',*,*,#798,.F.);
#817=EDGE_LOOP('',(#809,#814,#815,#816));
#818=FACE_OUTER_BOUND('',#817,.T.);
#819=DIRECTION('',(-0.991445,0.130526,0.));
#820=DIRECTION('',(-0.130526,-0.991445,0.));
#821=AXIS2_PLACEMENT_3D('',#312,#819,#820);
#822=PLANE('',#821);
#823=ADVANCED_FACE('',(#818),#822,.T.);
#824=ORIENTED_EDGE('',*,*,#439,.T.);
#825=DIRECTION('',(0.,0.,1.));
#826=VECTOR('',#825,8.9);
#827=LINE('',#316,#826);
#828=EDGE_CURVE('',#317,#365,#827,.T.);
#829=ORIENTED_EDGE('',*,*,#828,.T.);
#830=ORIENTED_EDGE('',*,*,#576,.F.);
#831=ORIENTED_EDGE('',*,*,#813,.F.);
#832=EDGE_LOOP('',(#824,#829,#830,#831));
#833=FACE_OUTER_BOUND('',#832,.T.);
#834=DIRECTION('',(-0.991445,-0.130526,0.));
#835=DIRECTION('',(0.130526,-0.991445,0.));
#836=AXIS2_PLACEMENT_3D('',#314,#834,#835);
#837=PLANE('',#836);
#838=ADVANCED_FACE('',(#833),#837,.T.);
#839=ORIENTED_EDGE('',*,*,#434,.T.);
#840=DIRECTION('',(0.,0.,1.));
#841=VECTOR('',#840,8.9);
#842=LINE('',#318,#841);
#843=EDGE_CURVE('',#319,#367,#842,.T.);
#844=ORIENTED_EDGE('',*,*,#843,.T.);
#845=ORIENTED_EDGE('',*,*,#581,.F.);
#846=ORIENTED_EDGE('',*,*,#828,.F.);
#847=EDGE_LOOP('',(#839,#844,#845,#846));
#848=FACE_OUTER_BOUND('',#847,.T.);
#849=DIRECTION('',(-0.92388,-0.382683,0.));
#850=DIRECTION('',(0.382683,-0.92388,0.));
#851=AXIS2_PLACEMENT_3D('',#316,#849,#850);
#852=PLANE('',#851);
#853=ADVANCED_FACE('',(#848),#852,.T.);
#854=ORIENTED_EDGE('',*,*,#429,.T.);
#855=DIRECTION('',(0.,0.,1.));
#856=VECTOR('',#855,8.9);
#857=LINE('',#320,#856);
#858=EDGE_CURVE('',#321,#369,#857,.T.);
#859=ORIENTED_EDGE('',*,*,#858,.T.);
#860=ORIENTED_EDGE('',*,*,#586,.F.);
#861=ORIENTED_EDGE('',*,*,#843,.F.);
#862=EDGE_LOOP('',(#854,#859,#860,#861));
#863=FACE_OUTER_BOUND('',#862,.T.);
#864=DIRECTION('',(-0.793353,-0.608761,0.));
#865=DIRECTION('',(0.608761,-0.793353,0.));
#866=AXIS2_PLACEMENT_3D('',#318,#864,#865);
#867=PLANE('',#866);
#868=ADVANCED_FACE('',(#863),#867,.T.);
#869=ORIENTED_EDGE('',*,*,#424,.T.);
#870=DIRECTION('',(0.,0.,1.));
#871=VECTOR('',#870,8.9);
#872=LINE('',#322,#871);
#873=EDGE_CURVE('',#323,#371,#872,.T.);
#874=ORIENTED_EDGE('',*,*,#873,.T.);
#875=ORIENTED_EDGE('',*,*,#591,.F.);
#876=ORIENTED_EDGE('',*,*,#858,.F.);
#877=EDGE_LOOP('',(#869,#874,#875,#876));
#878=FACE_OUTER_BOUND('',#877,.T.);
#879=DIRECTION('',(-0.608761,-0.793353,0.));
#880=DIRECTION('',(0.793353,-0.608761,0.));
#881=AXIS2_PLACEMENT_3D('',#320,#879,#880);
#882=PLANE('',#881);
#883=ADVANCED_FACE('',(#878),#882,.T.);
#884=ORIENTED_EDGE('',*,*,#419,.T.);
#885=DIRECTION('',(0.,0.,1.));
#886=VECTOR('',#885,8.9);
#887=LINE('',#324,#886);
#888=EDGE_CURVE('',#325,#373,#887,.T.);
#889=ORIENTED_EDGE('',*,*,#888,.T.);
#890=ORIENTED_EDGE('',*,*,#596,.F.);
#891=ORIENTED_EDGE('',*,*,#873,.F.);
#892=EDGE_LOOP('',(#884,#889,#890,#891));
#893=FACE_OUTER_BOUND('',#892,.T.);
#894=DIRECTION('',(-0.382683,-0.92388,0.));
#895=DIRECTION('',(0.92388,-0.382683,0.));
#896=AXIS2_PLACEMENT_3D('',#322,#894,#895);
#897=PLANE('',#896);
#898=ADVANCED_FACE('',(#893),#897,.T.);
#899=ORIENTED_EDGE('',*,*,#414,.T.);
#900=DIRECTION('',(0.,0.,1.));
#901=VECTOR('',#900,8.9);
#902=LINE('',#326,#901);
#903=EDGE_CURVE('',#327,#375,#902,.T.);
#904=ORIENTED_EDGE('',*,*,#903,.T.);
#905=ORIENTED_EDGE('',*,*,#601,.F.);
#906=ORIENTED_EDGE('',*,*,#888,.F.);
#907=EDGE_LOOP('',(#899,#904,#905,#906));
#908=FACE_OUTER_BOUND('',#907,.T.);
#909=DIRECTION('',(-0.130526,-0.991445,0.));
#910=DIRECTION('',(0.991445,-0.130526,0.));
#911=AXIS2_PLACEMENT_3D('',#324,#909,#910);
#912=PLANE('',#911);
#913=ADVANCED_FACE('',(#908),#912,.T.);
#914=ORIENTED_EDGE('',*,*,#409,.T.);
#915=DIRECTION('',(0.,0.,1.));
#916=VECTOR('',#915,8.9);
#917=LINE('',#328,#916);
#918=EDGE_CURVE('',#329,#377,#917,.T.);
#919=ORIENTED_EDGE('',*,*,#918,.T.);
#920=ORIENTED_EDGE('',*,*,#606,.F.);
#921=ORIENTED_EDGE('',*,*,#903,.F.);
#922=EDGE_LOOP('',(#914,#919,#920,#921));
#923=FACE_OUTER_BOUND('',#922,.T.);
#924=DIRECTION('',(0.130526,-0.991445,0.));
#925=DIRECTION('',(0.991445,0.130526,0.));
#926=AXIS2_PLACEMENT_3D('',#326,#924,#925);
#927=PLANE('',#926);
#928=ADVANCED_FACE('',(#923),#927,.T.);
#929=ORIENTED_EDGE('',*,*,#404,.T.);
#930=DIRECTION('',(0.,0.,1.));
#931=VECTOR('',#930,8.9);
#932=LINE('',#330,#931);
#933=EDGE_CURVE('',#331,#379,#932,.T.);
#934=ORIENTED_EDGE('',*,*,#933,.T.);
#935=ORIENTED_EDGE('',*,*,#611,.F.);
#936=ORIENTED_EDGE('',*,*,#918,.F.);
#937=EDGE_LOOP('',(#929,#934,#935,#936));
#938=FACE_OUTER_BOUND('',#937,.T.);
#939=DIRECTION('',(0.382683,-0.92388,0.));
#940=DIRECTION('',(0.92388,0.382683,0.));
#941=AXIS2_PLACEMENT_3D('',#328,#939,#940);
#942=PLANE('',#941);
#943=ADVANCED_FACE('',(#938),#942,.T.);
#944=ORIENTED_EDGE('',*,*,#399,.T.);
#945=DIRECTION('',(0.,0.,1.));
#946=VECTOR('',#945,8.9);
#947=LINE('',#332,#946);
#948=EDGE_CURVE('',#333,#381,#947,.T.);
#949=ORIENTED_EDGE('',*,*,#948,.T.);
#950=ORIENTED_EDGE('',*,*,#616,.F.);
#951=ORIENTED_EDGE('',*,*,#933,.F.);
#952=EDGE_LOOP('',(#944,#949,#950,#951));
#953=FACE_OUTER_BOUND('',#952,.T.);
#954=DIRECTION('',(0.608761,-0.793353,0.));
#955=DIRECTION('',(0.793353,0.608761,0.));
#956=AXIS2_PLACEMENT_3D('',#330,#954,#955);
#957=PLANE('',#956);
#958=ADVANCED_FACE('',(#953),#957,.T.);
#959=ORIENTED_EDGE('',*,*,#394,.T.);
#960=DIRECTION('',(0.,0.,1.));
#961=VECTOR('',#960,8.9);
#962=LINE('',#334,#961);
#963=EDGE_CURVE('',#335,#383,#962,.T.);
#964=ORIENTED_EDGE('',*,*,#963,.T.);
#965=ORIENTED_EDGE('',*,*,#621,.F.);
#966=ORIENTED_EDGE('',*,*,#948,.F.);
#967=EDGE_LOOP('',(#959,#964,#965,#966));
#968=FACE_OUTER_BOUND('',#967,.T.);
#969=DIRECTION('',(0.793353,-0.608761,0.));
#970=DIRECTION('',(0.608761,0.793353,0.));
#971=AXIS2_PLACEMENT_3D('',#332,#969,#970);
#972=PLANE('',#971);
#973=ADVANCED_FACE('',(#968),#972,.T.);
#974=ORIENTED_EDGE('',*,*,#389,.T.);
#975=DIRECTION('',(0.,0.,1.));
#976=VECTOR('',#975,8.9);
#977=LINE('',#336,#976);
#978=EDGE_CURVE('',#337,#385,#977,.T.);
#979=ORIENTED_EDGE('',*,*,#978,.T.);
#980=ORIENTED_EDGE('',*,*,#626,.F.);
#981=ORIENTED_EDGE('',*,*,#963,.F.);
#982=EDGE_LOOP('',(#974,#979,#980,#981));
#983=FACE_OUTER_BOUND('',#982,.T.);
#984=DIRECTION('',(0.92388,-0.382683,0.));
#985=DIRECTION('',(0.382683,0.92388,0.));
#986=AXIS2_PLACEMENT_3D('',#334,#984,#985);
#987=PLANE('',#986);
#988=ADVANCED_FACE('',(#983),#987,.T.);
#989=ORIENTED_EDGE('',*,*,#504,.F.);
#990=ORIENTED_EDGE('',*,*,#650,.T.);
#991=ORIENTED_EDGE('',*,*,#631,.T.);
#992=ORIENTED_EDGE('',*,*,#978,.F.);
#993=EDGE_LOOP('',(#989,#990,#991,#992));
#994=FACE_OUTER_BOUND('',#993,.T.);
#995=DIRECTION('',(0.991445,-0.130526,0.));
#996=DIRECTION('',(0.130526,0.991445,0.));
#997=AXIS2_PLACEMENT_3D('',#336,#995,#996);
#998=PLANE('',#997);
#999=ADVANCED_FACE('',(#994),#998,.T.);
#1000=CLOSED_SHELL('',(#512,#639,#658,#673,#688,#703,#718,#733,#748,#763,#778,#793,#808,#823,#838,#853,#868,#883,#898,#913,#928,#943,#958,#973,#988,#999));
#1001=MANIFOLD_SOLID_BREP('bushing',#1000);
#1002=COLOUR_RGB('',0.78,0.78,0.74);
#1003=FILL_AREA_STYLE_COLOUR('',#1002);
#1004=FILL_AREA_STYLE('',(#1003));
#1005=SURFACE_STYLE_FILL_AREA(#1004);
#1006=SURFACE_SIDE_STYLE('',(#1005));
#1007=SURFACE_STYLE_USAGE(.BOTH.,#1006);
#1008=PRESENTATION_STYLE_ASSIGNMENT((#1007));
#1009=STYLED_ITEM('color',(#1008),#1001);
#1010=CARTESIAN_POINT('',(1.45,0.,19.3));
#1011=VERTEX_POINT('',#1010);
#1012=CARTESIAN_POINT('',(1.339625,0.554891,19.3));
#1013=VERTEX_POINT('',#1012);
#1014=CARTESIAN_POINT('',(1.025305,1.025305,19.3));
#1015=VERTEX_POINT('',#1014);
#1016=CARTESIAN_POINT('',(0.554891,1.339625,19.3));
#1017=VERTEX_POINT('',#1016);
#1018=CARTESIAN_POINT('',(0.,1.45,19.3));
#1019=VERTEX_POINT('',#1018);
#1020=CARTESIAN_POINT('',(-0.554891,1.339625,19.3));
#1021=VERTEX_POINT('',#1020);
#1022=CARTESIAN_POINT('',(-1.025305,1.025305,19.3));
#1023=VERTEX_POINT('',#1022);
#1024=CARTESIAN_POINT('',(-1.339625,0.554891,19.3));
#1025=VERTEX_POINT('',#1024);
#1026=CARTESIAN_POINT('',(-1.45,0.,19.3));
#1027=VERTEX_POINT('',#1026);
#1028=CARTESIAN_POINT('',(-1.339625,-0.554891,19.3));
#1029=VERTEX_POINT('',#1028);
#1030=CARTESIAN_POINT('',(-1.025305,-1.025305,19.3));
#1031=VERTEX_POINT('',#1030);
#1032=CARTESIAN_POINT('',(-0.554891,-1.339625,19.3));
#1033=VERTEX_POINT('',#1032);
#1034=CARTESIAN_POINT('',(-0.,-1.45,19.3));
#1035=VERTEX_POINT('',#1034);
#1036=CARTESIAN_POINT('',(0.554891,-1.339625,19.3));
#1037=VERTEX_POINT('',#1036);
#1038=CARTESIAN_POINT('',(1.025305,-1.025305,19.3));
#1039=VERTEX_POINT('',#1038);
#1040=CARTESIAN_POINT('',(1.339625,-0.554891,19.3));
#1041=VERTEX_POINT('',#1040);
#1042=CARTESIAN_POINT('',(1.45,0.,29.7));
#1043=VERTEX_POINT('',#1042);
#1044=CARTESIAN_POINT('',(1.339625,0.554891,29.7));
#1045=VERTEX_POINT('',#1044);
#1046=CARTESIAN_POINT('',(1.025305,1.025305,29.7));
#1047=VERTEX_POINT('',#1046);
#1048=CARTESIAN_POINT('',(0.554891,1.339625,29.7));
#1049=VERTEX_POINT('',#1048);
#1050=CARTESIAN_POINT('',(0.,1.45,29.7));
#1051=VERTEX_POINT('',#1050);
#1052=CARTESIAN_POINT('',(-0.554891,1.339625,29.7));
#1053=VERTEX_POINT('',#1052);
#1054=CARTESIAN_POINT('',(-1.025305,1.025305,29.7));
#1055=VERTEX_POINT('',#1054);
#1056=CARTESIAN_POINT('',(-1.339625,0.554891,29.7));
#1057=VERTEX_POINT('',#1056);
#1058=CARTESIAN_POINT('',(-1.45,0.,29.7));
#1059=VERTEX_POINT('',#1058);
#1060=CARTESIAN_POINT('',(-1.339625,-0.554891,29.7));
#1061=VERTEX_POINT('',#1060);
#1062=CARTESIAN_POINT('',(-1.025305,-1.025305,29.7));
#1063=VERTEX_POINT('',#1062);
#1064=CARTESIAN_POINT('',(-0.554891,-1.339625,29.7));
#1065=VERTEX_POINT('',#1064);
#1066=CARTESIAN_POINT('',(-0.,-1.45,29.7));
#1067=VERTEX_POINT('',#1066);
#1068=CARTESIAN_POINT('',(0.554891,-1.339625,29.7));
#1069=VERTEX_POINT('',#1068);
#1070=CARTESIAN_POINT('',(1.025305,-1.025305,29.7));
#1071=VERTEX_POINT('',#1070);
#1072=CARTESIAN_POINT('',(1.339625,-0.554891,29.7));
#1073=VERTEX_POINT('',#1072);
#1074=DIRECTION('',(0.55557,0.83147,0.));
#1075=VECTOR('',#1074,0.565762);
#1076=LINE('',#1038,#1075);
#1077=EDGE_CURVE('',#1039,#1041,#1076,.T.);
#1078=ORIENTED_EDGE('',*,*,#1077,.F.);
#1079=DIRECTION('',(0.83147,0.55557,0.));
#1080=VECTOR('',#1079,0.565762);
#1081=LINE('',#1036,#1080);
#1082=EDGE_CURVE('',#1037,#1039,#1081,.T.);
#1083=ORIENTED_EDGE('',*,*,#1082,.F.);
#1084=DIRECTION('',(0.980785,0.19509,0.));
#1085=VECTOR('',#1084,0.565762);
#1086=LINE('',#1034,#1085);
#1087=EDGE_CURVE('',#1035,#1037,#1086,.T.);
#1088=ORIENTED_EDGE('',*,*,#1087,.F.);
#1089=DIRECTION('',(0.980785,-0.19509,0.));
#1090=VECTOR('',#1089,0.565762);
#1091=LINE('',#1032,#1090);
#1092=EDGE_CURVE('',#1033,#1035,#1091,.T.);
#1093=ORIENTED_EDGE('',*,*,#1092,.F.);
#1094=DIRECTION('',(0.83147,-0.55557,0.));
#1095=VECTOR('',#1094,0.565762);
#1096=LINE('',#1030,#1095);
#1097=EDGE_CURVE('',#1031,#1033,#1096,.T.);
#1098=ORIENTED_EDGE('',*,*,#1097,.F.);
#1099=DIRECTION('',(0.55557,-0.83147,0.));
#1100=VECTOR('',#1099,0.565762);
#1101=LINE('',#1028,#1100);
#1102=EDGE_CURVE('',#1029,#1031,#1101,.T.);
#1103=ORIENTED_EDGE('',*,*,#1102,.F.);
#1104=DIRECTION('',(0.19509,-0.980785,0.));
#1105=VECTOR('',#1104,0.565762);
#1106=LINE('',#1026,#1105);
#1107=EDGE_CURVE('',#1027,#1029,#1106,.T.);
#1108=ORIENTED_EDGE('',*,*,#1107,.F.);
#1109=DIRECTION('',(-0.19509,-0.980785,0.));
#1110=VECTOR('',#1109,0.565762);
#1111=LINE('',#1024,#1110);
#1112=EDGE_CURVE('',#1025,#1027,#1111,.T.);
#1113=ORIENTED_EDGE('',*,*,#1112,.F.);
#1114=DIRECTION('',(-0.55557,-0.83147,0.));
#1115=VECTOR('',#1114,0.565762);
#1116=LINE('',#1022,#1115);
#1117=EDGE_CURVE('',#1023,#1025,#1116,.T.);
#1118=ORIENTED_EDGE('',*,*,#1117,.F.);
#1119=DIRECTION('',(-0.83147,-0.55557,0.));
#1120=VECTOR('',#1119,0.565762);
#1121=LINE('',#1020,#1120);
#1122=EDGE_CURVE('',#1021,#1023,#1121,.T.);
#1123=ORIENTED_EDGE('',*,*,#1122,.F.);
#1124=DIRECTION('',(-0.980785,-0.19509,0.));
#1125=VECTOR('',#1124,0.565762);
#1126=LINE('',#1018,#1125);
#1127=EDGE_CURVE('',#1019,#1021,#1126,.T.);
#1128=ORIENTED_EDGE('',*,*,#1127,.F.);
#1129=DIRECTION('',(-0.980785,0.19509,0.));
#1130=VECTOR('',#1129,0.565762);
#1131=LINE('',#1016,#1130);
#1132=EDGE_CURVE('',#1017,#1019,#1131,.T.);
#1133=ORIENTED_EDGE('',*,*,#1132,.F.);
#1134=DIRECTION('',(-0.83147,0.55557,0.));
#1135=VECTOR('',#1134,0.565762);
#1136=LINE('',#1014,#1135);
#1137=EDGE_CURVE('',#1015,#1017,#1136,.T.);
#1138=ORIENTED_EDGE('',*,*,#1137,.F.);
#1139=DIRECTION('',(-0.55557,0.83147,0.));
#1140=VECTOR('',#1139,0.565762);
#1141=LINE('',#1012,#1140);
#1142=EDGE_CURVE('',#1013,#1015,#1141,.T.);
#1143=ORIENTED_EDGE('',*,*,#1142,.F.);
#1144=DIRECTION('',(-0.19509,0.980785,0.));
#1145=VECTOR('',#1144,0.565762);
#1146=LINE('',#1010,#1145);
#1147=EDGE_CURVE('',#1011,#1013,#1146,.T.);
#1148=ORIENTED_EDGE('',*,*,#1147,.F.);
#1149=DIRECTION('',(-0.19509,-0.980785,0.));
#1150=VECTOR('',#1149,0.565762);
#1151=LINE('',#1010,#1150);
#1152=EDGE_CURVE('',#1011,#1041,#1151,.T.);
#1153=ORIENTED_EDGE('',*,*,#1152,.T.);
#1154=EDGE_LOOP('',(#1078,#1083,#1088,#1093,#1098,#1103,#1108,#1113,#1118,#1123,#1128,#1133,#1138,#1143,#1148,#1153));
#1155=FACE_OUTER_BOUND('',#1154,.T.);
#1156=DIRECTION('',(0.,0.,-1.));
#1157=DIRECTION('',(-0.55557,-0.83147,0.));
#1158=AXIS2_PLACEMENT_3D('',#1040,#1156,#1157);
#1159=PLANE('',#1158);
#1160=ADVANCED_FACE('',(#1155),#1159,.T.);
#1161=DIRECTION('',(-0.19509,0.980785,0.));
#1162=VECTOR('',#1161,0.565762);
#1163=LINE('',#1042,#1162);
#1164=EDGE_CURVE('',#1043,#1045,#1163,.T.);
#1165=ORIENTED_EDGE('',*,*,#1164,.T.);
#1166=DIRECTION('',(-0.55557,0.83147,0.));
#1167=VECTOR('',#1166,0.565762);
#1168=LINE('',#1044,#1167);
#1169=EDGE_CURVE('',#1045,#1047,#1168,.T.);
#1170=ORIENTED_EDGE('',*,*,#1169,.T.);
#1171=DIRECTION('',(-0.83147,0.55557,0.));
#1172=VECTOR('',#1171,0.565762);
#1173=LINE('',#1046,#1172);
#1174=EDGE_CURVE('',#1047,#1049,#1173,.T.);
#1175=ORIENTED_EDGE('',*,*,#1174,.T.);
#1176=DIRECTION('',(-0.980785,0.19509,0.));
#1177=VECTOR('',#1176,0.565762);
#1178=LINE('',#1048,#1177);
#1179=EDGE_CURVE('',#1049,#1051,#1178,.T.);
#1180=ORIENTED_EDGE('',*,*,#1179,.T.);
#1181=DIRECTION('',(-0.980785,-0.19509,0.));
#1182=VECTOR('',#1181,0.565762);
#1183=LINE('',#1050,#1182);
#1184=EDGE_CURVE('',#1051,#1053,#1183,.T.);
#1185=ORIENTED_EDGE('',*,*,#1184,.T.);
#1186=DIRECTION('',(-0.83147,-0.55557,0.));
#1187=VECTOR('',#1186,0.565762);
#1188=LINE('',#1052,#1187);
#1189=EDGE_CURVE('',#1053,#1055,#1188,.T.);
#1190=ORIENTED_EDGE('',*,*,#1189,.T.);
#1191=DIRECTION('',(-0.55557,-0.83147,0.));
#1192=VECTOR('',#1191,0.565762);
#1193=LINE('',#1054,#1192);
#1194=EDGE_CURVE('',#1055,#1057,#1193,.T.);
#1195=ORIENTED_EDGE('',*,*,#1194,.T.);
#1196=DIRECTION('',(-0.19509,-0.980785,0.));
#1197=VECTOR('',#1196,0.565762);
#1198=LINE('',#1056,#1197);
#1199=EDGE_CURVE('',#1057,#1059,#1198,.T.);
#1200=ORIENTED_EDGE('',*,*,#1199,.T.);
#1201=DIRECTION('',(0.19509,-0.980785,0.));
#1202=VECTOR('',#1201,0.565762);
#1203=LINE('',#1058,#1202);
#1204=EDGE_CURVE('',#1059,#1061,#1203,.T.);
#1205=ORIENTED_EDGE('',*,*,#1204,.T.);
#1206=DIRECTION('',(0.55557,-0.83147,0.));
#1207=VECTOR('',#1206,0.565762);
#1208=LINE('',#1060,#1207);
#1209=EDGE_CURVE('',#1061,#1063,#1208,.T.);
#1210=ORIENTED_EDGE('',*,*,#1209,.T.);
#1211=DIRECTION('',(0.83147,-0.55557,0.));
#1212=VECTOR('',#1211,0.565762);
#1213=LINE('',#1062,#1212);
#1214=EDGE_CURVE('',#1063,#1065,#1213,.T.);
#1215=ORIENTED_EDGE('',*,*,#1214,.T.);
#1216=DIRECTION('',(0.980785,-0.19509,0.));
#1217=VECTOR('',#1216,0.565762);
#1218=LINE('',#1064,#1217);
#1219=EDGE_CURVE('',#1065,#1067,#1218,.T.);
#1220=ORIENTED_EDGE('',*,*,#1219,.T.);
#1221=DIRECTION('',(0.980785,0.19509,0.));
#1222=VECTOR('',#1221,0.565762);
#1223=LINE('',#1066,#1222);
#1224=EDGE_CURVE('',#1067,#1069,#1223,.T.);
#1225=ORIENTED_EDGE('',*,*,#1224,.T.);
#1226=DIRECTION('',(0.83147,0.55557,0.));
#1227=VECTOR('',#1226,0.565762);
#1228=LINE('',#1068,#1227);
#1229=EDGE_CURVE('',#1069,#1071,#1228,.T.);
#1230=ORIENTED_EDGE('',*,*,#1229,.T.);
#1231=DIRECTION('',(0.55557,0.83147,0.));
#1232=VECTOR('',#1231,0.565762);
#1233=LINE('',#1070,#1232);
#1234=EDGE_CURVE('',#1071,#1073,#1233,.T.);
#1235=ORIENTED_EDGE('',*,*,#1234,.T.);
#1236=DIRECTION('',(-0.19509,-0.980785,0.));
#1237=VECTOR('',#1236,0.565762);
#1238=LINE('',#1042,#1237);
#1239=EDGE_CURVE('',#1043,#1073,#1238,.T.);
#1240=ORIENTED_EDGE('',*,*,#1239,.F.);
#1241=EDGE_LOOP('',(#1165,#1170,#1175,#1180,#1185,#1190,#1195,#1200,#1205,#1210,#1215,#1220,#1225,#1230,#1235,#1240));
#1242=FACE_OUTER_BOUND('',#1241,.T.);
#1243=DIRECTION('',(0.,0.,1.));
#1244=DIRECTION('',(-0.19509,0.980785,0.));
#1245=AXIS2_PLACEMENT_3D('',#1042,#1243,#1244);
#1246=PLANE('',#1245);
#1247=ADVANCED_FACE('',(#1242),#1246,.T.);
#1248=ORIENTED_EDGE('',*,*,#1147,.T.);
#1249=DIRECTION('',(0.,0.,1.));
#1250=VECTOR('',#1249,10.4);
#1251=LINE('',#1012,#1250);
#1252=EDGE_CURVE('',#1013,#1045,#1251,.T.);
#1253=ORIENTED_EDGE('',*,*,#1252,.T.);
#1254=ORIENTED_EDGE('',*,*,#1164,.F.);
#1255=DIRECTION('',(0.,0.,1.));
#1256=VECTOR('',#1255,10.4);
#1257=LINE('',#1010,#1256);
#1258=EDGE_CURVE('',#1011,#1043,#1257,.T.);
#1259=ORIENTED_EDGE('',*,*,#1258,.F.);
#1260=EDGE_LOOP('',(#1248,#1253,#1254,#1259));
#1261=FACE_OUTER_BOUND('',#1260,.T.);
#1262=DIRECTION('',(0.980785,0.19509,-0.));
#1263=DIRECTION('',(-0.19509,0.980785,0.));
#1264=AXIS2_PLACEMENT_3D('',#1010,#1262,#1263);
#1265=PLANE('',#1264);
#1266=ADVANCED_FACE('',(#1261),#1265,.T.);
#1267=ORIENTED_EDGE('',*,*,#1142,.T.);
#1268=DIRECTION('',(0.,0.,1.));
#1269=VECTOR('',#1268,10.4);
#1270=LINE('',#1014,#1269);
#1271=EDGE_CURVE('',#1015,#1047,#1270,.T.);
#1272=ORIENTED_EDGE('',*,*,#1271,.T.);
#1273=ORIENTED_EDGE('',*,*,#1169,.F.);
#1274=ORIENTED_EDGE('',*,*,#1252,.F.);
#1275=EDGE_LOOP('',(#1267,#1272,#1273,#1274));
#1276=FACE_OUTER_BOUND('',#1275,.T.);
#1277=DIRECTION('',(0.83147,0.55557,-0.));
#1278=DIRECTION('',(-0.55557,0.83147,0.));
#1279=AXIS2_PLACEMENT_3D('',#1012,#1277,#1278);
#1280=PLANE('',#1279);
#1281=ADVANCED_FACE('',(#1276),#1280,.T.);
#1282=ORIENTED_EDGE('',*,*,#1137,.T.);
#1283=DIRECTION('',(0.,0.,1.));
#1284=VECTOR('',#1283,10.4);
#1285=LINE('',#1016,#1284);
#1286=EDGE_CURVE('',#1017,#1049,#1285,.T.);
#1287=ORIENTED_EDGE('',*,*,#1286,.T.);
#1288=ORIENTED_EDGE('',*,*,#1174,.F.);
#1289=ORIENTED_EDGE('',*,*,#1271,.F.);
#1290=EDGE_LOOP('',(#1282,#1287,#1288,#1289));
#1291=FACE_OUTER_BOUND('',#1290,.T.);
#1292=DIRECTION('',(0.55557,0.83147,-0.));
#1293=DIRECTION('',(-0.83147,0.55557,0.));
#1294=AXIS2_PLACEMENT_3D('',#1014,#1292,#1293);
#1295=PLANE('',#1294);
#1296=ADVANCED_FACE('',(#1291),#1295,.T.);
#1297=ORIENTED_EDGE('',*,*,#1132,.T.);
#1298=DIRECTION('',(0.,0.,1.));
#1299=VECTOR('',#1298,10.4);
#1300=LINE('',#1018,#1299);
#1301=EDGE_CURVE('',#1019,#1051,#1300,.T.);
#1302=ORIENTED_EDGE('',*,*,#1301,.T.);
#1303=ORIENTED_EDGE('',*,*,#1179,.F.);
#1304=ORIENTED_EDGE('',*,*,#1286,.F.);
#1305=EDGE_LOOP('',(#1297,#1302,#1303,#1304));
#1306=FACE_OUTER_BOUND('',#1305,.T.);
#1307=DIRECTION('',(0.19509,0.980785,-0.));
#1308=DIRECTION('',(-0.980785,0.19509,0.));
#1309=AXIS2_PLACEMENT_3D('',#1016,#1307,#1308);
#1310=PLANE('',#1309);
#1311=ADVANCED_FACE('',(#1306),#1310,.T.);
#1312=ORIENTED_EDGE('',*,*,#1127,.T.);
#1313=DIRECTION('',(0.,0.,1.));
#1314=VECTOR('',#1313,10.4);
#1315=LINE('',#1020,#1314);
#1316=EDGE_CURVE('',#1021,#1053,#1315,.T.);
#1317=ORIENTED_EDGE('',*,*,#1316,.T.);
#1318=ORIENTED_EDGE('',*,*,#1184,.F.);
#1319=ORIENTED_EDGE('',*,*,#1301,.F.);
#1320=EDGE_LOOP('',(#1312,#1317,#1318,#1319));
#1321=FACE_OUTER_BOUND('',#1320,.T.);
#1322=DIRECTION('',(-0.19509,0.980785,0.));
#1323=DIRECTION('',(-0.980785,-0.19509,0.));
#1324=AXIS2_PLACEMENT_3D('',#1018,#1322,#1323);
#1325=PLANE('',#1324);
#1326=ADVANCED_FACE('',(#1321),#1325,.T.);
#1327=ORIENTED_EDGE('',*,*,#1122,.T.);
#1328=DIRECTION('',(0.,0.,1.));
#1329=VECTOR('',#1328,10.4);
#1330=LINE('',#1022,#1329);
#1331=EDGE_CURVE('',#1023,#1055,#1330,.T.);
#1332=ORIENTED_EDGE('',*,*,#1331,.T.);
#1333=ORIENTED_EDGE('',*,*,#1189,.F.);
#1334=ORIENTED_EDGE('',*,*,#1316,.F.);
#1335=EDGE_LOOP('',(#1327,#1332,#1333,#1334));
#1336=FACE_OUTER_BOUND('',#1335,.T.);
#1337=DIRECTION('',(-0.55557,0.83147,0.));
#1338=DIRECTION('',(-0.83147,-0.55557,0.));
#1339=AXIS2_PLACEMENT_3D('',#1020,#1337,#1338);
#1340=PLANE('',#1339);
#1341=ADVANCED_FACE('',(#1336),#1340,.T.);
#1342=ORIENTED_EDGE('',*,*,#1117,.T.);
#1343=DIRECTION('',(0.,0.,1.));
#1344=VECTOR('',#1343,10.4);
#1345=LINE('',#1024,#1344);
#1346=EDGE_CURVE('',#1025,#1057,#1345,.T.);
#1347=ORIENTED_EDGE('',*,*,#1346,.T.);
#1348=ORIENTED_EDGE('',*,*,#1194,.F.);
#1349=ORIENTED_EDGE('',*,*,#1331,.F.);
#1350=EDGE_LOOP('',(#1342,#1347,#1348,#1349));
#1351=FACE_OUTER_BOUND('',#1350,.T.);
#1352=DIRECTION('',(-0.83147,0.55557,0.));
#1353=DIRECTION('',(-0.55557,-0.83147,0.));
#1354=AXIS2_PLACEMENT_3D('',#1022,#1352,#1353);
#1355=PLANE('',#1354);
#1356=ADVANCED_FACE('',(#1351),#1355,.T.);
#1357=ORIENTED_EDGE('',*,*,#1112,.T.);
#1358=DIRECTION('',(0.,0.,1.));
#1359=VECTOR('',#1358,10.4);
#1360=LINE('',#1026,#1359);
#1361=EDGE_CURVE('',#1027,#1059,#1360,.T.);
#1362=ORIENTED_EDGE('',*,*,#1361,.T.);
#1363=ORIENTED_EDGE('',*,*,#1199,.F.);
#1364=ORIENTED_EDGE('',*,*,#1346,.F.);
#1365=EDGE_LOOP('',(#1357,#1362,#1363,#1364));
#1366=FACE_OUTER_BOUND('',#1365,.T.);
#1367=DIRECTION('',(-0.980785,0.19509,0.));
#1368=DIRECTION('',(-0.19509,-0.980785,0.));
#1369=AXIS2_PLACEMENT_3D('',#1024,#1367,#1368);
#1370=PLANE('',#1369);
#1371=ADVANCED_FACE('',(#1366),#1370,.T.);
#1372=ORIENTED_EDGE('',*,*,#1107,.T.);
#1373=DIRECTION('',(0.,0.,1.));
#1374=VECTOR('',#1373,10.4);
#1375=LINE('',#1028,#1374);
#1376=EDGE_CURVE('',#1029,#1061,#1375,.T.);
#1377=ORIENTED_EDGE('',*,*,#1376,.T.);
#1378=ORIENTED_EDGE('',*,*,#1204,.F.);
#1379=ORIENTED_EDGE('',*,*,#1361,.F.);
#1380=EDGE_LOOP('',(#1372,#1377,#1378,#1379));
#1381=FACE_OUTER_BOUND('',#1380,.T.);
#1382=DIRECTION('',(-0.980785,-0.19509,0.));
#1383=DIRECTION('',(0.19509,-0.980785,0.));
#1384=AXIS2_PLACEMENT_3D('',#1026,#1382,#1383);
#1385=PLANE('',#1384);
#1386=ADVANCED_FACE('',(#1381),#1385,.T.);
#1387=ORIENTED_EDGE('',*,*,#1102,.T.);
#1388=DIRECTION('',(0.,0.,1.));
#1389=VECTOR('',#1388,10.4);
#1390=LINE('',#1030,#1389);
#1391=EDGE_CURVE('',#1031,#1063,#1390,.T.);
#1392=ORIENTED_EDGE('',*,*,#1391,.T.);
#1393=ORIENTED_EDGE('',*,*,#1209,.F.);
#1394=ORIENTED_EDGE('',*,*,#1376,.F.);
#1395=EDGE_LOOP('',(#1387,#1392,#1393,#1394));
#1396=FACE_OUTER_BOUND('',#1395,.T.);
#1397=DIRECTION('',(-0.83147,-0.55557,0.));
#1398=DIRECTION('',(0.55557,-0.83147,0.));
#1399=AXIS2_PLACEMENT_3D('',#1028,#1397,#1398);
#1400=PLANE('',#1399);
#1401=ADVANCED_FACE('',(#1396),#1400,.T.);
#1402=ORIENTED_EDGE('',*,*,#1097,.T.);
#1403=DIRECTION('',(0.,0.,1.));
#1404=VECTOR('',#1403,10.4);
#1405=LINE('',#1032,#1404);
#1406=EDGE_CURVE('',#1033,#1065,#1405,.T.);
#1407=ORIENTED_EDGE('',*,*,#1406,.T.);
#1408=ORIENTED_EDGE('',*,*,#1214,.F.);
#1409=ORIENTED_EDGE('',*,*,#1391,.F.);
#1410=EDGE_LOOP('',(#1402,#1407,#1408,#1409));
#1411=FACE_OUTER_BOUND('',#1410,.T.);
#1412=DIRECTION('',(-0.55557,-0.83147,0.));
#1413=DIRECTION('',(0.83147,-0.55557,0.));
#1414=AXIS2_PLACEMENT_3D('',#1030,#1412,#1413);
#1415=PLANE('',#1414);
#1416=ADVANCED_FACE('',(#1411),#1415,.T.);
#1417=ORIENTED_EDGE('',*,*,#1092,.T.);
#1418=DIRECTION('',(0.,0.,1.));
#1419=VECTOR('',#1418,10.4);
#1420=LINE('',#1034,#1419);
#1421=EDGE_CURVE('',#1035,#1067,#1420,.T.);
#1422=ORIENTED_EDGE('',*,*,#1421,.T.);
#1423=ORIENTED_EDGE('',*,*,#1219,.F.);
#1424=ORIENTED_EDGE('',*,*,#1406,.F.);
#1425=EDGE_LOOP('',(#1417,#1422,#1423,#1424));
#1426=FACE_OUTER_BOUND('',#1425,.T.);
#1427=DIRECTION('',(-0.19509,-0.980785,0.));
#1428=DIRECTION('',(0.980785,-0.19509,0.));
#1429=AXIS2_PLACEMENT_3D('',#1032,#1427,#1428);
#1430=PLANE('',#1429);
#1431=ADVANCED_FACE('',(#1426),#1430,.T.);
#1432=ORIENTED_EDGE('',*,*,#1087,.T.);
#1433=DIRECTION('',(0.,0.,1.));
#1434=VECTOR('',#1433,10.4);
#1435=LINE('',#1036,#1434);
#1436=EDGE_CURVE('',#1037,#1069,#1435,.T.);
#1437=ORIENTED_EDGE('',*,*,#1436,.T.);
#1438=ORIENTED_EDGE('',*,*,#1224,.F.);
#1439=ORIENTED_EDGE('',*,*,#1421,.F.);
#1440=EDGE_LOOP('',(#1432,#1437,#1438,#1439));
#1441=FACE_OUTER_BOUND('',#1440,.T.);
#1442=DIRECTION('',(0.19509,-0.980785,0.));
#1443=DIRECTION('',(0.980785,0.19509,0.));
#1444=AXIS2_PLACEMENT_3D('',#1034,#1442,#1443);
#1445=PLANE('',#1444);
#1446=ADVANCED_FACE('',(#1441),#1445,.T.);
#1447=ORIENTED_EDGE('',*,*,#1082,.T.);
#1448=DIRECTION('',(0.,0.,1.));
#1449=VECTOR('',#1448,10.4);
#1450=LINE('',#1038,#1449);
#1451=EDGE_CURVE('',#1039,#1071,#1450,.T.);
#1452=ORIENTED_EDGE('',*,*,#1451,.T.);
#1453=ORIENTED_EDGE('',*,*,#1229,.F.);
#1454=ORIENTED_EDGE('',*,*,#1436,.F.);
#1455=EDGE_LOOP('',(#1447,#1452,#1453,#1454));
#1456=FACE_OUTER_BOUND('',#1455,.T.);
#1457=DIRECTION('',(0.55557,-0.83147,0.));
#1458=DIRECTION('',(0.83147,0.55557,0.));
#1459=AXIS2_PLACEMENT_3D('',#1036,#1457,#1458);
#1460=PLANE('',#1459);
#1461=ADVANCED_FACE('',(#1456),#1460,.T.);
#1462=ORIENTED_EDGE('',*,*,#1077,.T.);
#1463=DIRECTION('',(0.,0.,1.));
#1464=VECTOR('',#1463,10.4);
#1465=LINE('',#1040,#1464);
#1466=EDGE_CURVE('',#1041,#1073,#1465,.T.);
#1467=ORIENTED_EDGE('',*,*,#1466,.T.);
#1468=ORIENTED_EDGE('',*,*,#1234,.F.);
#1469=ORIENTED_EDGE('',*,*,#1451,.F.);
#1470=EDGE_LOOP('',(#1462,#1467,#1468,#1469));
#1471=FACE_OUTER_BOUND('',#1470,.T.);
#1472=DIRECTION('',(0.83147,-0.55557,0.));
#1473=DIRECTION('',(0.55557,0.83147,0.));
#1474=AXIS2_PLACEMENT_3D('',#1038,#1472,#1473);
#1475=PLANE('',#1474);
#1476=ADVANCED_FACE('',(#1471),#1475,.T.);
#1477=ORIENTED_EDGE('',*,*,#1152,.F.);
#1478=ORIENTED_EDGE('',*,*,#1258,.T.);
#1479=ORIENTED_EDGE('',*,*,#1239,.T.);
#1480=ORIENTED_EDGE('',*,*,#1466,.F.);
#1481=EDGE_LOOP('',(#1477,#1478,#1479,#1480));
#1482=FACE_OUTER_BOUND('',#1481,.T.);
#1483=DIRECTION('',(0.980785,-0.19509,0.));
#1484=DIRECTION('',(0.19509,0.980785,0.));
#1485=AXIS2_PLACEMENT_3D('',#1040,#1483,#1484);
#1486=PLANE('',#1485);
#1487=ADVANCED_FACE('',(#1482),#1486,.T.);
#1488=CLOSED_SHELL('',(#1160,#1247,#1266,#1281,#1296,#1311,#1326,#1341,#1356,#1371,#1386,#1401,#1416,#1431,#1446,#1461,#1476,#1487));
#1489=MANIFOLD_SOLID_BREP('lever',#1488);
#1490=COLOUR_RGB('',0.85,0.86,0.88);
#1491=FILL_AREA_STYLE_COLOUR('',#1490);
#1492=FILL_AREA_STYLE('',(#1491));
#1493=SURFACE_STYLE_FILL_AREA(#1492);
#1494=SURFACE_SIDE_STYLE('',(#1493));
#1495=SURFACE_STYLE_USAGE(.BOTH.,#1494);
#1496=PRESENTATION_STYLE_ASSIGNMENT((#1495));
#1497=STYLED_ITEM('color',(#1496),#1489);
#1498=CARTESIAN_POINT('',(-0.38,-5.2,-2.4));
#1499=VERTEX_POINT('',#1498);
#1500=CARTESIAN_POINT('',(0.38,-5.2,-2.4));
#1501=VERTEX_POINT('',#1500);
#1502=CARTESIAN_POINT('',(0.38,-4.2,-2.4));
#1503=VERTEX_POINT('',#1502);
#1504=CARTESIAN_POINT('',(-0.38,-4.2,-2.4));
#1505=VERTEX_POINT('',#1504);
#1506=CARTESIAN_POINT('',(-0.38,-5.2,0.));
#1507=VERTEX_POINT('',#1506);
#1508=CARTESIAN_POINT('',(0.38,-5.2,0.));
#1509=VERTEX_POINT('',#1508);
#1510=CARTESIAN_POINT('',(0.38,-4.2,0.));
#1511=VERTEX_POINT('',#1510);
#1512=CARTESIAN_POINT('',(-0.38,-4.2,0.));
#1513=VERTEX_POINT('',#1512);
#1514=DIRECTION('',(-1.,0.,0.));
#1515=VECTOR('',#1514,0.76);
#1516=LINE('',#1502,#1515);
#1517=EDGE_CURVE('',#1503,#1505,#1516,.T.);
#1518=ORIENTED_EDGE('',*,*,#1517,.F.);
#1519=DIRECTION('',(0.,1.,0.));
#1520=VECTOR('',#1519,1.);
#1521=LINE('',#1500,#1520);
#1522=EDGE_CURVE('',#1501,#1503,#1521,.T.);
#1523=ORIENTED_EDGE('',*,*,#1522,.F.);
#1524=DIRECTION('',(1.,0.,0.));
#1525=VECTOR('',#1524,0.76);
#1526=LINE('',#1498,#1525);
#1527=EDGE_CURVE('',#1499,#1501,#1526,.T.);
#1528=ORIENTED_EDGE('',*,*,#1527,.F.);
#1529=DIRECTION('',(0.,1.,0.));
#1530=VECTOR('',#1529,1.);
#1531=LINE('',#1498,#1530);
#1532=EDGE_CURVE('',#1499,#1505,#1531,.T.);
#1533=ORIENTED_EDGE('',*,*,#1532,.T.);
#1534=EDGE_LOOP('',(#1518,#1523,#1528,#1533));
#1535=FACE_OUTER_BOUND('',#1534,.T.);
#1536=DIRECTION('',(0.,0.,-1.));
#1537=DIRECTION('',(1.,0.,0.));
#1538=AXIS2_PLACEMENT_3D('',#1504,#1536,#1537);
#1539=PLANE('',#1538);
#1540=ADVANCED_FACE('',(#1535),#1539,.T.);
#1541=DIRECTION('',(1.,0.,0.));
#1542=VECTOR('',#1541,0.76);
#1543=LINE('',#1506,#1542);
#1544=EDGE_CURVE('',#1507,#1509,#1543,.T.);
#1545=ORIENTED_EDGE('',*,*,#1544,.T.);
#1546=DIRECTION('',(0.,1.,0.));
#1547=VECTOR('',#1546,1.);
#1548=LINE('',#1508,#1547);
#1549=EDGE_CURVE('',#1509,#1511,#1548,.T.);
#1550=ORIENTED_EDGE('',*,*,#1549,.T.);
#1551=DIRECTION('',(-1.,0.,0.));
#1552=VECTOR('',#1551,0.76);
#1553=LINE('',#1510,#1552);
#1554=EDGE_CURVE('',#1511,#1513,#1553,.T.);
#1555=ORIENTED_EDGE('',*,*,#1554,.T.);
#1556=DIRECTION('',(0.,1.,0.));
#1557=VECTOR('',#1556,1.);
#1558=LINE('',#1506,#1557);
#1559=EDGE_CURVE('',#1507,#1513,#1558,.T.);
#1560=ORIENTED_EDGE('',*,*,#1559,.F.);
#1561=EDGE_LOOP('',(#1545,#1550,#1555,#1560));
#1562=FACE_OUTER_BOUND('',#1561,.T.);
#1563=DIRECTION('',(0.,0.,1.));
#1564=DIRECTION('',(1.,0.,0.));
#1565=AXIS2_PLACEMENT_3D('',#1506,#1563,#1564);
#1566=PLANE('',#1565);
#1567=ADVANCED_FACE('',(#1562),#1566,.T.);
#1568=ORIENTED_EDGE('',*,*,#1527,.T.);
#1569=DIRECTION('',(0.,0.,1.));
#1570=VECTOR('',#1569,2.4);
#1571=LINE('',#1500,#1570);
#1572=EDGE_CURVE('',#1501,#1509,#1571,.T.);
#1573=ORIENTED_EDGE('',*,*,#1572,.T.);
#1574=ORIENTED_EDGE('',*,*,#1544,.F.);
#1575=DIRECTION('',(0.,0.,1.));
#1576=VECTOR('',#1575,2.4);
#1577=LINE('',#1498,#1576);
#1578=EDGE_CURVE('',#1499,#1507,#1577,.T.);
#1579=ORIENTED_EDGE('',*,*,#1578,.F.);
#1580=EDGE_LOOP('',(#1568,#1573,#1574,#1579));
#1581=FACE_OUTER_BOUND('',#1580,.T.);
#1582=DIRECTION('',(0.,-1.,0.));
#1583=DIRECTION('',(1.,0.,0.));
#1584=AXIS2_PLACEMENT_3D('',#1498,#1582,#1583);
#1585=PLANE('',#1584);
#1586=ADVANCED_FACE('',(#1581),#1585,.T.);
#1587=ORIENTED_EDGE('',*,*,#1522,.T.);
#1588=DIRECTION('',(0.,0.,1.));
#1589=VECTOR('',#1588,2.4);
#1590=LINE('',#1502,#1589);
#1591=EDGE_CURVE('',#1503,#1511,#1590,.T.);
#1592=ORIENTED_EDGE('',*,*,#1591,.T.);
#1593=ORIENTED_EDGE('',*,*,#1549,.F.);
#1594=ORIENTED_EDGE('',*,*,#1572,.F.);
#1595=EDGE_LOOP('',(#1587,#1592,#1593,#1594));
#1596=FACE_OUTER_BOUND('',#1595,.T.);
#1597=DIRECTION('',(1.,0.,0.));
#1598=DIRECTION('',(0.,1.,0.));
#1599=AXIS2_PLACEMENT_3D('',#1500,#1597,#1598);
#1600=PLANE('',#1599);
#1601=ADVANCED_FACE('',(#1596),#1600,.T.);
#1602=ORIENTED_EDGE('',*,*,#1517,.T.);
#1603=DIRECTION('',(0.,0.,1.));
#1604=VECTOR('',#1603,2.4);
#1605=LINE('',#1504,#1604);
#1606=EDGE_CURVE('',#1505,#1513,#1605,.T.);
#1607=ORIENTED_EDGE('',*,*,#1606,.T.);
#1608=ORIENTED_EDGE('',*,*,#1554,.F.);
#1609=ORIENTED_EDGE('',*,*,#1591,.F.);
#1610=EDGE_LOOP('',(#1602,#1607,#1608,#1609));
#1611=FACE_OUTER_BOUND('',#1610,.T.);
#1612=DIRECTION('',(0.,1.,-0.));
#1613=DIRECTION('',(-1.,0.,0.));
#1614=AXIS2_PLACEMENT_3D('',#1502,#1612,#1613);
#1615=PLANE('',#1614);
#1616=ADVANCED_FACE('',(#1611),#1615,.T.);
#1617=ORIENTED_EDGE('',*,*,#1532,.F.);
#1618=ORIENTED_EDGE('',*,*,#1578,.T.);
#1619=ORIENTED_EDGE('',*,*,#1559,.T.);
#1620=ORIENTED_EDGE('',*,*,#1606,.F.);
#1621=EDGE_LOOP('',(#1617,#1618,#1619,#1620));
#1622=FACE_OUTER_BOUND('',#1621,.T.);
#1623=DIRECTION('',(-1.,0.,0.));
#1624=DIRECTION('',(0.,-1.,0.));
#1625=AXIS2_PLACEMENT_3D('',#1504,#1623,#1624);
#1626=PLANE('',#1625);
#1627=ADVANCED_FACE('',(#1622),#1626,.T.);
#1628=CLOSED_SHELL('',(#1540,#1567,#1586,#1601,#1616,#1627));
#1629=MANIFOLD_SOLID_BREP('pin',#1628);
#1630=COLOUR_RGB('',0.8,0.8,0.78);
#1631=FILL_AREA_STYLE_COLOUR('',#1630);
#1632=FILL_AREA_STYLE('',(#1631));
#1633=SURFACE_STYLE_FILL_AREA(#1632);
#1634=SURFACE_SIDE_STYLE('',(#1633));
#1635=SURFACE_STYLE_USAGE(.BOTH.,#1634);
#1636=PRESENTATION_STYLE_ASSIGNMENT((#1635));
#1637=STYLED_ITEM('color',(#1636),#1629);
#1638=CARTESIAN_POINT('',(-0.38,-0.5,-2.4));
#1639=VERTEX_POINT('',#1638);
#1640=CARTESIAN_POINT('',(0.38,-0.5,-2.4));
#1641=VERTEX_POINT('',#1640);
#1642=CARTESIAN_POINT('',(0.38,0.5,-2.4));
#1643=VERTEX_POINT('',#1642);
#1644=CARTESIAN_POINT('',(-0.38,0.5,-2.4));
#1645=VERTEX_POINT('',#1644);
#1646=CARTESIAN_POINT('',(-0.38,-0.5,0.));
#1647=VERTEX_POINT('',#1646);
#1648=CARTESIAN_POINT('',(0.38,-0.5,0.));
#1649=VERTEX_POINT('',#1648);
#1650=CARTESIAN_POINT('',(0.38,0.5,0.));
#1651=VERTEX_POINT('',#1650);
#1652=CARTESIAN_POINT('',(-0.38,0.5,0.));
#1653=VERTEX_POINT('',#1652);
#1654=DIRECTION('',(-1.,0.,0.));
#1655=VECTOR('',#1654,0.76);
#1656=LINE('',#1642,#1655);
#1657=EDGE_CURVE('',#1643,#1645,#1656,.T.);
#1658=ORIENTED_EDGE('',*,*,#1657,.F.);
#1659=DIRECTION('',(0.,1.,0.));
#1660=VECTOR('',#1659,1.);
#1661=LINE('',#1640,#1660);
#1662=EDGE_CURVE('',#1641,#1643,#1661,.T.);
#1663=ORIENTED_EDGE('',*,*,#1662,.F.);
#1664=DIRECTION('',(1.,0.,0.));
#1665=VECTOR('',#1664,0.76);
#1666=LINE('',#1638,#1665);
#1667=EDGE_CURVE('',#1639,#1641,#1666,.T.);
#1668=ORIENTED_EDGE('',*,*,#1667,.F.);
#1669=DIRECTION('',(0.,1.,0.));
#1670=VECTOR('',#1669,1.);
#1671=LINE('',#1638,#1670);
#1672=EDGE_CURVE('',#1639,#1645,#1671,.T.);
#1673=ORIENTED_EDGE('',*,*,#1672,.T.);
#1674=EDGE_LOOP('',(#1658,#1663,#1668,#1673));
#1675=FACE_OUTER_BOUND('',#1674,.T.);
#1676=DIRECTION('',(0.,0.,-1.));
#1677=DIRECTION('',(1.,0.,0.));
#1678=AXIS2_PLACEMENT_3D('',#1644,#1676,#1677);
#1679=PLANE('',#1678);
#1680=ADVANCED_FACE('',(#1675),#1679,.T.);
#1681=DIRECTION('',(1.,0.,0.));
#1682=VECTOR('',#1681,0.76);
#1683=LINE('',#1646,#1682);
#1684=EDGE_CURVE('',#1647,#1649,#1683,.T.);
#1685=ORIENTED_EDGE('',*,*,#1684,.T.);
#1686=DIRECTION('',(0.,1.,0.));
#1687=VECTOR('',#1686,1.);
#1688=LINE('',#1648,#1687);
#1689=EDGE_CURVE('',#1649,#1651,#1688,.T.);
#1690=ORIENTED_EDGE('',*,*,#1689,.T.);
#1691=DIRECTION('',(-1.,0.,0.));
#1692=VECTOR('',#1691,0.76);
#1693=LINE('',#1650,#1692);
#1694=EDGE_CURVE('',#1651,#1653,#1693,.T.);
#1695=ORIENTED_EDGE('',*,*,#1694,.T.);
#1696=DIRECTION('',(0.,1.,0.));
#1697=VECTOR('',#1696,1.);
#1698=LINE('',#1646,#1697);
#1699=EDGE_CURVE('',#1647,#1653,#1698,.T.);
#1700=ORIENTED_EDGE('',*,*,#1699,.F.);
#1701=EDGE_LOOP('',(#1685,#1690,#1695,#1700));
#1702=FACE_OUTER_BOUND('',#1701,.T.);
#1703=DIRECTION('',(0.,0.,1.));
#1704=DIRECTION('',(1.,0.,0.));
#1705=AXIS2_PLACEMENT_3D('',#1646,#1703,#1704);
#1706=PLANE('',#1705);
#1707=ADVANCED_FACE('',(#1702),#1706,.T.);
#1708=ORIENTED_EDGE('',*,*,#1667,.T.);
#1709=DIRECTION('',(0.,0.,1.));
#1710=VECTOR('',#1709,2.4);
#1711=LINE('',#1640,#1710);
#1712=EDGE_CURVE('',#1641,#1649,#1711,.T.);
#1713=ORIENTED_EDGE('',*,*,#1712,.T.);
#1714=ORIENTED_EDGE('',*,*,#1684,.F.);
#1715=DIRECTION('',(0.,0.,1.));
#1716=VECTOR('',#1715,2.4);
#1717=LINE('',#1638,#1716);
#1718=EDGE_CURVE('',#1639,#1647,#1717,.T.);
#1719=ORIENTED_EDGE('',*,*,#1718,.F.);
#1720=EDGE_LOOP('',(#1708,#1713,#1714,#1719));
#1721=FACE_OUTER_BOUND('',#1720,.T.);
#1722=DIRECTION('',(0.,-1.,0.));
#1723=DIRECTION('',(1.,0.,0.));
#1724=AXIS2_PLACEMENT_3D('',#1638,#1722,#1723);
#1725=PLANE('',#1724);
#1726=ADVANCED_FACE('',(#1721),#1725,.T.);
#1727=ORIENTED_EDGE('',*,*,#1662,.T.);
#1728=DIRECTION('',(0.,0.,1.));
#1729=VECTOR('',#1728,2.4);
#1730=LINE('',#1642,#1729);
#1731=EDGE_CURVE('',#1643,#1651,#1730,.T.);
#1732=ORIENTED_EDGE('',*,*,#1731,.T.);
#1733=ORIENTED_EDGE('',*,*,#1689,.F.);
#1734=ORIENTED_EDGE('',*,*,#1712,.F.);
#1735=EDGE_LOOP('',(#1727,#1732,#1733,#1734));
#1736=FACE_OUTER_BOUND('',#1735,.T.);
#1737=DIRECTION('',(1.,0.,0.));
#1738=DIRECTION('',(0.,1.,0.));
#1739=AXIS2_PLACEMENT_3D('',#1640,#1737,#1738);
#1740=PLANE('',#1739);
#1741=ADVANCED_FACE('',(#1736),#1740,.T.);
#1742=ORIENTED_EDGE('',*,*,#1657,.T.);
#1743=DIRECTION('',(0.,0.,1.));
#1744=VECTOR('',#1743,2.4);
#1745=LINE('',#1644,#1744);
#1746=EDGE_CURVE('',#1645,#1653,#1745,.T.);
#1747=ORIENTED_EDGE('',*,*,#1746,.T.);
#1748=ORIENTED_EDGE('',*,*,#1694,.F.);
#1749=ORIENTED_EDGE('',*,*,#1731,.F.);
#1750=EDGE_LOOP('',(#1742,#1747,#1748,#1749));
#1751=FACE_OUTER_BOUND('',#1750,.T.);
#1752=DIRECTION('',(0.,1.,-0.));
#1753=DIRECTION('',(-1.,0.,0.));
#1754=AXIS2_PLACEMENT_3D('',#1642,#1752,#1753);
#1755=PLANE('',#1754);
#1756=ADVANCED_FACE('',(#1751),#1755,.T.);
#1757=ORIENTED_EDGE('',*,*,#1672,.F.);
#1758=ORIENTED_EDGE('',*,*,#1718,.T.);
#1759=ORIENTED_EDGE('',*,*,#1699,.T.);
#1760=ORIENTED_EDGE('',*,*,#1746,.F.);
#1761=EDGE_LOOP('',(#1757,#1758,#1759,#1760));
#1762=FACE_OUTER_BOUND('',#1761,.T.);
#1763=DIRECTION('',(-1.,0.,0.));
#1764=DIRECTION('',(0.,-1.,0.));
#1765=AXIS2_PLACEMENT_3D('',#1644,#1763,#1764);
#1766=PLANE('',#1765);
#1767=ADVANCED_FACE('',(#1762),#1766,.T.);
#1768=CLOSED_SHELL('',(#1680,#1707,#1726,#1741,#1756,#1767));
#1769=MANIFOLD_SOLID_BREP('pin',#1768);
#1770=COLOUR_RGB('',0.8,0.8,0.78);
#1771=FILL_AREA_STYLE_COLOUR('',#1770);
#1772=FILL_AREA_STYLE('',(#1771));
#1773=SURFACE_STYLE_FILL_AREA(#1772);
#1774=SURFACE_SIDE_STYLE('',(#1773));
#1775=SURFACE_STYLE_USAGE(.BOTH.,#1774);
#1776=PRESENTATION_STYLE_ASSIGNMENT((#1775));
#1777=STYLED_ITEM('color',(#1776),#1769);
#1778=CARTESIAN_POINT('',(-0.38,4.2,-2.4));
#1779=VERTEX_POINT('',#1778);
#1780=CARTESIAN_POINT('',(0.38,4.2,-2.4));
#1781=VERTEX_POINT('',#1780);
#1782=CARTESIAN_POINT('',(0.38,5.2,-2.4));
#1783=VERTEX_POINT('',#1782);
#1784=CARTESIAN_POINT('',(-0.38,5.2,-2.4));
#1785=VERTEX_POINT('',#1784);
#1786=CARTESIAN_POINT('',(-0.38,4.2,0.));
#1787=VERTEX_POINT('',#1786);
#1788=CARTESIAN_POINT('',(0.38,4.2,0.));
#1789=VERTEX_POINT('',#1788);
#1790=CARTESIAN_POINT('',(0.38,5.2,0.));
#1791=VERTEX_POINT('',#1790);
#1792=CARTESIAN_POINT('',(-0.38,5.2,0.));
#1793=VERTEX_POINT('',#1792);
#1794=DIRECTION('',(-1.,0.,0.));
#1795=VECTOR('',#1794,0.76);
#1796=LINE('',#1782,#1795);
#1797=EDGE_CURVE('',#1783,#1785,#1796,.T.);
#1798=ORIENTED_EDGE('',*,*,#1797,.F.);
#1799=DIRECTION('',(0.,1.,0.));
#1800=VECTOR('',#1799,1.);
#1801=LINE('',#1780,#1800);
#1802=EDGE_CURVE('',#1781,#1783,#1801,.T.);
#1803=ORIENTED_EDGE('',*,*,#1802,.F.);
#1804=DIRECTION('',(1.,0.,0.));
#1805=VECTOR('',#1804,0.76);
#1806=LINE('',#1778,#1805);
#1807=EDGE_CURVE('',#1779,#1781,#1806,.T.);
#1808=ORIENTED_EDGE('',*,*,#1807,.F.);
#1809=DIRECTION('',(0.,1.,0.));
#1810=VECTOR('',#1809,1.);
#1811=LINE('',#1778,#1810);
#1812=EDGE_CURVE('',#1779,#1785,#1811,.T.);
#1813=ORIENTED_EDGE('',*,*,#1812,.T.);
#1814=EDGE_LOOP('',(#1798,#1803,#1808,#1813));
#1815=FACE_OUTER_BOUND('',#1814,.T.);
#1816=DIRECTION('',(0.,0.,-1.));
#1817=DIRECTION('',(1.,0.,0.));
#1818=AXIS2_PLACEMENT_3D('',#1784,#1816,#1817);
#1819=PLANE('',#1818);
#1820=ADVANCED_FACE('',(#1815),#1819,.T.);
#1821=DIRECTION('',(1.,0.,0.));
#1822=VECTOR('',#1821,0.76);
#1823=LINE('',#1786,#1822);
#1824=EDGE_CURVE('',#1787,#1789,#1823,.T.);
#1825=ORIENTED_EDGE('',*,*,#1824,.T.);
#1826=DIRECTION('',(0.,1.,0.));
#1827=VECTOR('',#1826,1.);
#1828=LINE('',#1788,#1827);
#1829=EDGE_CURVE('',#1789,#1791,#1828,.T.);
#1830=ORIENTED_EDGE('',*,*,#1829,.T.);
#1831=DIRECTION('',(-1.,0.,0.));
#1832=VECTOR('',#1831,0.76);
#1833=LINE('',#1790,#1832);
#1834=EDGE_CURVE('',#1791,#1793,#1833,.T.);
#1835=ORIENTED_EDGE('',*,*,#1834,.T.);
#1836=DIRECTION('',(0.,1.,0.));
#1837=VECTOR('',#1836,1.);
#1838=LINE('',#1786,#1837);
#1839=EDGE_CURVE('',#1787,#1793,#1838,.T.);
#1840=ORIENTED_EDGE('',*,*,#1839,.F.);
#1841=EDGE_LOOP('',(#1825,#1830,#1835,#1840));
#1842=FACE_OUTER_BOUND('',#1841,.T.);
#1843=DIRECTION('',(0.,0.,1.));
#1844=DIRECTION('',(1.,0.,0.));
#1845=AXIS2_PLACEMENT_3D('',#1786,#1843,#1844);
#1846=PLANE('',#1845);
#1847=ADVANCED_FACE('',(#1842),#1846,.T.);
#1848=ORIENTED_EDGE('',*,*,#1807,.T.);
#1849=DIRECTION('',(0.,0.,1.));
#1850=VECTOR('',#1849,2.4);
#1851=LINE('',#1780,#1850);
#1852=EDGE_CURVE('',#1781,#1789,#1851,.T.);
#1853=ORIENTED_EDGE('',*,*,#1852,.T.);
#1854=ORIENTED_EDGE('',*,*,#1824,.F.);
#1855=DIRECTION('',(0.,0.,1.));
#1856=VECTOR('',#1855,2.4);
#1857=LINE('',#1778,#1856);
#1858=EDGE_CURVE('',#1779,#1787,#1857,.T.);
#1859=ORIENTED_EDGE('',*,*,#1858,.F.);
#1860=EDGE_LOOP('',(#1848,#1853,#1854,#1859));
#1861=FACE_OUTER_BOUND('',#1860,.T.);
#1862=DIRECTION('',(0.,-1.,0.));
#1863=DIRECTION('',(1.,0.,0.));
#1864=AXIS2_PLACEMENT_3D('',#1778,#1862,#1863);
#1865=PLANE('',#1864);
#1866=ADVANCED_FACE('',(#1861),#1865,.T.);
#1867=ORIENTED_EDGE('',*,*,#1802,.T.);
#1868=DIRECTION('',(0.,0.,1.));
#1869=VECTOR('',#1868,2.4);
#1870=LINE('',#1782,#1869);
#1871=EDGE_CURVE('',#1783,#1791,#1870,.T.);
#1872=ORIENTED_EDGE('',*,*,#1871,.T.);
#1873=ORIENTED_EDGE('',*,*,#1829,.F.);
#1874=ORIENTED_EDGE('',*,*,#1852,.F.);
#1875=EDGE_LOOP('',(#1867,#1872,#1873,#1874));
#1876=FACE_OUTER_BOUND('',#1875,.T.);
#1877=DIRECTION('',(1.,0.,0.));
#1878=DIRECTION('',(0.,1.,0.));
#1879=AXIS2_PLACEMENT_3D('',#1780,#1877,#1878);
#1880=PLANE('',#1879);
#1881=ADVANCED_FACE('',(#1876),#1880,.T.);
#1882=ORIENTED_EDGE('',*,*,#1797,.T.);
#1883=DIRECTION('',(0.,0.,1.));
#1884=VECTOR('',#1883,2.4);
#1885=LINE('',#1784,#1884);
#1886=EDGE_CURVE('',#1785,#1793,#1885,.T.);
#1887=ORIENTED_EDGE('',*,*,#1886,.T.);
#1888=ORIENTED_EDGE('',*,*,#1834,.F.);
#1889=ORIENTED_EDGE('',*,*,#1871,.F.);
#1890=EDGE_LOOP('',(#1882,#1887,#1888,#1889));
#1891=FACE_OUTER_BOUND('',#1890,.T.);
#1892=DIRECTION('',(0.,1.,-0.));
#1893=DIRECTION('',(-1.,0.,0.));
#1894=AXIS2_PLACEMENT_3D('',#1782,#1892,#1893);
#1895=PLANE('',#1894);
#1896=ADVANCED_FACE('',(#1891),#1895,.T.);
#1897=ORIENTED_EDGE('',*,*,#1812,.F.);
#1898=ORIENTED_EDGE('',*,*,#1858,.T.);
#1899=ORIENTED_EDGE('',*,*,#1839,.T.);
#1900=ORIENTED_EDGE('',*,*,#1886,.F.);
#1901=EDGE_LOOP('',(#1897,#1898,#1899,#1900));
#1902=FACE_OUTER_BOUND('',#1901,.T.);
#1903=DIRECTION('',(-1.,0.,0.));
#1904=DIRECTION('',(0.,-1.,0.));
#1905=AXIS2_PLACEMENT_3D('',#1784,#1903,#1904);
#1906=PLANE('',#1905);
#1907=ADVANCED_FACE('',(#1902),#1906,.T.);
#1908=CLOSED_SHELL('',(#1820,#1847,#1866,#1881,#1896,#1907));
#1909=MANIFOLD_SOLID_BREP('pin',#1908);
#1910=COLOUR_RGB('',0.8,0.8,0.78);
#1911=FILL_AREA_STYLE_COLOUR('',#1910);
#1912=FILL_AREA_STYLE('',(#1911));
#1913=SURFACE_STYLE_FILL_AREA(#1912);
#1914=SURFACE_SIDE_STYLE('',(#1913));
#1915=SURFACE_STYLE_USAGE(.BOTH.,#1914);
#1916=PRESENTATION_STYLE_ASSIGNMENT((#1915));
#1917=STYLED_ITEM('color',(#1916),#1909);
#1918=ADVANCED_BREP_SHAPE_REPRESENTATION('SW_Toggle_Mini_SPDT_Salecom_S1315',(#141,#281,#1001,#1489,#1629,#1769,#1909,#9),#5);
#1919=MECHANICAL_DESIGN_GEOMETRIC_PRESENTATION_REPRESENTATION('',(#149,#289,#1009,#1497,#1637,#1777,#1917),#5);
#1920=APPLICATION_CONTEXT('core data for automotive mechanical design processes');
#1921=APPLICATION_PROTOCOL_DEFINITION('international standard','automotive_design',2000,#1920);
#1922=PRODUCT_CONTEXT('',#1920,'mechanical');
#1923=PRODUCT('SW_Toggle_Mini_SPDT_Salecom_S1315','SW_Toggle_Mini_SPDT_Salecom_S1315','',(#1922));
#1924=PRODUCT_DEFINITION_FORMATION('','',#1923);
#1925=PRODUCT_DEFINITION_CONTEXT('part definition',#1920,'design');
#1926=PRODUCT_DEFINITION('design','',#1924,#1925);
#1927=PRODUCT_DEFINITION_SHAPE('','',#1926);
#1928=SHAPE_DEFINITION_REPRESENTATION(#1927,#1918);
ENDSEC;
END-ISO-10303-21;
