M48
; DRILL file KiCad 10.0.6 date 2026-10-03T04:22:26
; FORMAT={-:-/ absolute / metric / decimal}
; #@! TF.CreationDate,2026-10-03T04:22:26+00:00
; #@! TF.GenerationSoftware,Kicad,Pcbnew,10.0.6
; #@! TF.FileFunction,Plated,1,2,PTH
FMAT,2
METRIC
; #@! TA.AperFunction,Plated,PTH,ViaDrill
T1C0.400
; #@! TA.AperFunction,Plated,PTH,ComponentDrill
T2C0.800
; #@! TA.AperFunction,Plated,PTH,ComponentDrill
T3C0.900
; #@! TA.AperFunction,Plated,PTH,ComponentDrill
T4C1.000
; #@! TA.AperFunction,Plated,PTH,ComponentDrill
T5C1.300
; #@! TA.AperFunction,Plated,PTH,ComponentDrill
T6C1.800
%
G90
G05
T1
X102.851Y-137.04
X104.884Y-65.615
X107.799Y-131.892
X108.736Y-66.2
X111.324Y-88.66
X111.553Y-124.756
X115.385Y-140.366
X117.619Y-143.245
X117.792Y-122.421
X119.024Y-136.127
X120.869Y-146.494
X121.22Y-145.423
X122.23Y-145.4
X127.479Y-136.802
X128.672Y-126.715
X129.122Y-149.715
X129.512Y-123.357
X133.788Y-156.766
T2
X102.9Y-78.4
X102.9Y-81.8
X102.95Y-54.0
X102.95Y-56.54
X102.95Y-59.08
X102.95Y-61.62
X102.95Y-64.16
X102.95Y-66.7
X102.95Y-69.24
X102.95Y-71.78
X102.95Y-74.32
X107.9Y-81.8
X110.52Y-78.4
X110.57Y-54.0
X110.57Y-56.54
X110.57Y-59.08
X110.57Y-61.62
X110.57Y-64.16
X110.57Y-66.7
X110.57Y-69.24
X110.57Y-71.78
X110.57Y-74.32
X119.05Y-54.44
X119.05Y-64.6
X119.05Y-66.84
X119.05Y-77.0
X126.4Y-84.05
X126.4Y-86.55
X127.53Y-54.0
X127.53Y-56.54
X127.53Y-59.08
X127.53Y-61.62
X127.53Y-64.16
X127.53Y-66.7
X127.53Y-69.24
X127.53Y-71.78
X127.53Y-74.32
X127.6Y-78.4
X130.0Y-81.8
X135.0Y-81.8
X135.15Y-54.0
X135.15Y-56.54
X135.15Y-59.08
X135.15Y-61.62
X135.15Y-64.16
X135.15Y-66.7
X135.15Y-69.24
X135.15Y-71.78
X135.15Y-74.32
X135.22Y-78.4
T3
X112.83Y-54.0
X112.83Y-57.0
X112.83Y-60.0
X112.83Y-63.0
X112.83Y-66.0
X112.83Y-69.0
X112.83Y-72.0
X112.83Y-75.0
X112.83Y-78.0
X112.83Y-81.0
X115.37Y-54.0
X115.37Y-57.0
X115.37Y-60.0
X115.37Y-63.0
X115.37Y-66.0
X115.37Y-69.0
X115.37Y-72.0
X115.37Y-75.0
X115.37Y-78.0
X115.37Y-81.0
X122.73Y-54.0
X122.73Y-57.0
X122.73Y-60.0
X122.73Y-63.0
X122.73Y-66.0
X122.73Y-69.0
X122.73Y-72.0
X122.73Y-75.0
X122.73Y-78.0
X122.73Y-81.0
X125.27Y-54.0
X125.27Y-57.0
X125.27Y-60.0
X125.27Y-63.0
X125.27Y-66.0
X125.27Y-69.0
X125.27Y-72.0
X125.27Y-75.0
X125.27Y-78.0
X125.27Y-81.0
T4
X107.5Y-138.5
X110.0Y-138.5
X112.5Y-138.5
X116.55Y-99.5
X116.55Y-120.0
X116.55Y-158.5
X119.05Y-99.5
X119.05Y-120.0
X119.05Y-158.5
X121.55Y-99.5
X121.55Y-120.0
X121.55Y-158.5
X122.6Y-138.5
X125.1Y-138.5
X127.6Y-138.5
X132.4Y-120.0
X132.4Y-122.54
X132.4Y-125.08
X132.4Y-127.62
X132.4Y-130.16
X132.4Y-132.7
X132.4Y-135.24
X132.4Y-137.78
X132.4Y-140.32
X132.4Y-142.86
X132.4Y-145.4
X132.4Y-147.94
X132.4Y-150.48
X132.4Y-153.02
X132.4Y-155.56
X134.94Y-120.0
X134.94Y-122.54
X134.94Y-125.08
X134.94Y-127.62
X134.94Y-130.16
X134.94Y-132.7
X134.94Y-135.24
X134.94Y-137.78
X134.94Y-140.32
X134.94Y-142.86
X134.94Y-145.4
X134.94Y-147.94
X134.94Y-150.48
X134.94Y-153.02
X134.94Y-155.56
T5
X107.15Y-87.3
X107.15Y-92.0
X107.15Y-96.7
X107.15Y-107.8
X107.15Y-112.5
X107.15Y-117.2
X128.535Y-107.8
X128.535Y-112.5
X128.535Y-117.2
X130.95Y-87.3
X130.95Y-92.0
X130.95Y-96.7
X133.365Y-107.8
X133.365Y-112.5
X133.365Y-117.2
T6
X105.6Y-131.65G85X105.6Y-131.35
G05
X114.4Y-131.65G85X114.4Y-131.35
G05
X114.65Y-92.65G85X114.65Y-92.35
G05
X114.65Y-113.15G85X114.65Y-112.85
G05
X114.65Y-151.65G85X114.65Y-151.35
G05
X120.7Y-131.65G85X120.7Y-131.35
G05
X123.45Y-92.65G85X123.45Y-92.35
G05
X123.45Y-113.15G85X123.45Y-112.85
G05
X123.45Y-151.65G85X123.45Y-151.35
G05
X129.5Y-131.65G85X129.5Y-131.35
G05
M30
