M48
; DRILL file KiCad 10.0.6 date 2026-10-01T23:42:53
; FORMAT={-:-/ absolute / metric / decimal}
; #@! TF.CreationDate,2026-10-01T23:42:53+10:00
; #@! TF.GenerationSoftware,Kicad,Pcbnew,10.0.6
; #@! TF.FileFunction,Plated,1,2,PTH
FMAT,2
METRIC
; #@! TA.AperFunction,Plated,PTH,ViaDrill
T1C0.400
; #@! TA.AperFunction,Plated,PTH,ComponentDrill
T2C0.750
; #@! TA.AperFunction,Plated,PTH,ComponentDrill
T3C0.800
; #@! TA.AperFunction,Plated,PTH,ComponentDrill
T4C0.900
; #@! TA.AperFunction,Plated,PTH,ComponentDrill
T5C1.000
; #@! TA.AperFunction,Plated,PTH,ComponentDrill
T6C1.100
; #@! TA.AperFunction,Plated,PTH,ComponentDrill
T7C3.200
%
G90
G05
T1
X75.629Y-145.032
X76.247Y-106.621
X78.415Y-118.88
X80.968Y-83.082
X84.737Y-121.945
X85.852Y-120.398
X86.715Y-88.624
X89.671Y-86.36
X91.616Y-78.576
X91.667Y-85.044
X92.866Y-58.88
X94.321Y-87.952
X95.975Y-120.479
X100.082Y-89.555
X100.306Y-146.031
X101.384Y-89.555
X104.022Y-115.516
X105.476Y-131.1
X106.057Y-109.012
X107.695Y-96.148
X110.182Y-116.868
X111.771Y-95.695
X112.694Y-81.418
X115.092Y-102.071
X116.398Y-102.206
X117.379Y-100.146
X118.836Y-100.983
X121.965Y-72.756
X121.965Y-79.811
X122.812Y-75.764
X122.861Y-118.519
X124.141Y-78.634
X127.464Y-100.421
X128.742Y-114.172
X130.501Y-96.864
X132.322Y-131.431
X132.337Y-113.872
X138.382Y-69.783
X139.527Y-77.717
X143.0Y-72.85
X148.403Y-75.428
X149.927Y-106.264
X150.763Y-101.258
X151.65Y-102.206
X152.851Y-74.029
X153.325Y-97.822
X154.526Y-74.476
X155.395Y-91.118
X161.964Y-91.118
X162.094Y-111.118
X162.204Y-112.333
X164.666Y-109.602
X166.786Y-96.165
X171.014Y-61.708
X171.776Y-63.5
X180.459Y-143.987
X181.993Y-141.184
X184.086Y-95.256
X185.372Y-99.646
X187.052Y-75.385
X188.217Y-98.835
X188.911Y-95.668
X190.911Y-92.573
X192.96Y-99.07
X193.758Y-95.668
X193.77Y-90.979
X193.776Y-107.452
X193.777Y-79.928
X193.778Y-113.325
X193.779Y-83.883
X193.785Y-87.994
X200.488Y-132.567
T2
X122.045Y-65.185
X122.045Y-66.455
X122.045Y-67.725
X127.0Y-66.04
X127.0Y-70.97
X128.27Y-66.04
X128.27Y-70.97
X129.54Y-66.04
X129.54Y-70.97
X132.715Y-66.04
X132.715Y-70.97
X133.985Y-66.04
X133.985Y-70.97
X135.255Y-66.04
X135.255Y-70.97
X139.7Y-81.28
X139.7Y-86.21
X140.97Y-81.28
X140.97Y-86.21
X141.095Y-60.105
X141.095Y-61.375
X141.095Y-62.645
X142.24Y-81.28
X142.24Y-86.21
X146.725Y-65.185
X146.725Y-66.455
X146.725Y-67.725
T3
X88.095Y-123.645
X88.545Y-109.225
X88.545Y-119.385
X89.525Y-143.865
X91.085Y-59.695
X91.085Y-69.855
X91.085Y-81.285
X91.085Y-91.445
X91.085Y-95.255
X91.085Y-105.415
X91.085Y-128.275
X91.085Y-138.435
X91.905Y-114.755
X92.065Y-143.865
X93.175Y-149.045
X94.445Y-119.585
X94.605Y-143.865
X94.895Y-68.585
X94.895Y-78.745
X94.895Y-96.525
X94.895Y-106.685
X94.895Y-128.275
X94.895Y-138.435
X97.435Y-82.555
X97.435Y-92.715
X98.255Y-123.645
X98.455Y-154.125
X99.06Y-64.77
X99.06Y-67.31
X99.06Y-69.85
X99.06Y-72.39
X99.06Y-76.2
X99.06Y-98.425
X99.06Y-100.965
X99.06Y-103.505
X99.06Y-106.045
X99.06Y-109.855
X99.06Y-132.08
X99.06Y-134.62
X99.06Y-137.16
X99.06Y-139.7
X99.06Y-143.51
X101.68Y-60.96
X101.68Y-94.615
X101.68Y-128.27
X102.065Y-114.755
X102.065Y-119.585
X102.065Y-123.645
X103.335Y-149.045
X103.455Y-154.125
X103.785Y-80.015
X103.785Y-90.175
X104.06Y-76.2
X104.06Y-109.855
X104.06Y-143.51
X106.68Y-60.96
X106.68Y-64.77
X106.68Y-67.31
X106.68Y-69.85
X106.68Y-72.39
X106.68Y-94.615
X106.68Y-98.425
X106.68Y-100.965
X106.68Y-103.505
X106.68Y-106.045
X106.68Y-128.27
X106.68Y-132.08
X106.68Y-134.62
X106.68Y-137.16
X106.68Y-139.7
X107.345Y-110.495
X107.345Y-118.115
X107.595Y-76.205
X107.595Y-86.365
X107.595Y-143.515
X107.595Y-153.675
X109.885Y-105.865
X110.135Y-60.965
X110.135Y-71.125
X110.135Y-91.445
X110.135Y-101.605
X111.155Y-74.935
X111.155Y-82.555
X111.405Y-143.515
X111.405Y-153.675
X112.225Y-123.645
X112.565Y-113.195
X112.565Y-115.735
X112.565Y-118.275
X112.675Y-129.545
X112.675Y-139.705
X113.945Y-60.965
X113.945Y-71.125
X114.885Y-105.865
X114.965Y-74.935
X114.965Y-82.555
X114.965Y-143.515
X114.965Y-151.135
X119.025Y-107.955
X119.025Y-118.115
X119.545Y-85.295
X119.545Y-90.295
X119.545Y-93.985
X119.545Y-104.145
X119.545Y-121.795
X119.545Y-131.955
X120.815Y-71.125
X120.815Y-81.285
X122.717Y-141.943
X122.717Y-144.443
X122.905Y-60.145
X124.625Y-85.095
X124.625Y-95.255
X124.625Y-112.905
X124.625Y-123.065
X124.625Y-126.875
X124.625Y-137.035
X125.375Y-99.065
X125.375Y-109.225
X125.445Y-76.655
X129.185Y-109.225
X129.185Y-119.385
X129.255Y-99.515
X129.255Y-104.595
X129.705Y-85.095
X129.705Y-95.255
X129.705Y-123.065
X129.705Y-133.225
X129.705Y-137.035
X129.705Y-147.195
X133.065Y-60.145
X133.35Y-121.92
X133.35Y-124.46
X133.35Y-127.0
X133.35Y-129.54
X133.35Y-133.35
X133.643Y-111.577
X133.815Y-94.435
X134.785Y-85.095
X134.785Y-90.095
X135.433Y-139.387
X135.605Y-76.655
X135.97Y-118.11
X136.143Y-111.577
X137.933Y-139.387
X138.35Y-133.35
X139.415Y-99.515
X139.415Y-104.595
X139.865Y-66.045
X139.865Y-76.205
X140.497Y-145.755
X140.497Y-148.255
X140.97Y-118.11
X140.97Y-121.92
X140.97Y-124.46
X140.97Y-127.0
X140.97Y-129.54
X141.135Y-109.295
X141.135Y-114.295
X143.425Y-133.225
X143.425Y-140.845
X143.675Y-99.265
X143.675Y-104.265
X143.975Y-94.435
X144.425Y-119.385
X144.425Y-129.545
X144.495Y-71.575
X145.765Y-60.145
X145.765Y-86.815
X146.215Y-76.405
X146.215Y-81.405
X147.485Y-133.225
X147.485Y-143.385
X147.705Y-109.765
X147.705Y-112.305
X147.705Y-114.845
X147.815Y-94.365
X147.815Y-104.525
X148.235Y-119.385
X148.235Y-129.545
X151.295Y-77.475
X151.295Y-82.475
X152.565Y-120.525
X152.565Y-130.685
X152.565Y-134.495
X152.565Y-139.495
X152.895Y-93.095
X152.895Y-103.255
X152.895Y-107.065
X152.895Y-117.225
X154.655Y-71.575
X155.925Y-60.145
X155.925Y-86.815
X156.375Y-77.675
X156.375Y-82.675
X157.48Y-96.52
X157.48Y-99.06
X157.48Y-101.6
X157.48Y-104.14
X157.48Y-107.95
X158.795Y-112.595
X160.1Y-92.71
X160.193Y-127.027
X160.193Y-134.647
X160.365Y-80.465
X160.365Y-85.545
X162.085Y-66.045
X162.085Y-76.205
X162.48Y-107.95
X162.693Y-127.027
X162.693Y-134.647
X165.1Y-92.71
X165.1Y-96.52
X165.1Y-99.06
X165.1Y-101.6
X165.1Y-104.14
X166.37Y-63.5
X166.37Y-66.04
X166.37Y-68.58
X166.37Y-71.12
X166.37Y-74.93
X168.555Y-95.255
X168.555Y-105.415
X168.955Y-112.595
X168.99Y-59.69
X170.18Y-127.0
X170.18Y-129.54
X170.18Y-132.08
X170.18Y-134.62
X170.18Y-138.43
X170.525Y-80.465
X170.525Y-85.545
X170.975Y-142.455
X170.975Y-152.615
X171.37Y-74.93
X172.765Y-102.435
X172.765Y-111.325
X172.8Y-123.19
X173.99Y-59.69
X173.99Y-63.5
X173.99Y-66.04
X173.99Y-68.58
X173.99Y-71.12
X174.785Y-74.935
X174.785Y-85.095
X175.18Y-138.43
X175.605Y-142.905
X175.605Y-146.715
X175.605Y-150.525
X177.657Y-94.195
X177.657Y-96.695
X177.765Y-102.435
X177.765Y-111.325
X177.8Y-123.19
X177.8Y-127.0
X177.8Y-129.54
X177.8Y-132.08
X177.8Y-134.62
X178.595Y-59.695
X178.595Y-69.855
X179.415Y-80.465
X181.655Y-102.435
X181.655Y-111.325
X181.955Y-75.385
X181.955Y-120.045
X181.955Y-126.395
X181.955Y-130.205
X181.955Y-134.015
X183.675Y-60.965
X183.675Y-71.125
X184.415Y-80.465
X185.765Y-142.905
X185.765Y-146.715
X185.765Y-150.525
X186.547Y-94.195
X186.547Y-96.695
X191.295Y-66.045
X191.295Y-71.045
X191.295Y-137.375
X191.295Y-147.535
X191.815Y-102.435
X191.815Y-111.325
X192.115Y-75.385
X192.115Y-120.045
X192.115Y-126.395
X192.115Y-130.205
X192.115Y-134.015
T4
X114.655Y-89.005
X114.655Y-91.545
T5
X80.01Y-86.36
X80.01Y-88.9
X80.01Y-91.44
X80.01Y-93.98
X80.01Y-96.52
X80.01Y-99.06
X80.01Y-101.6
X80.01Y-104.14
X80.01Y-106.68
X80.01Y-109.22
X80.01Y-111.76
X80.01Y-114.3
X80.01Y-116.84
X80.01Y-119.38
X80.01Y-121.92
X82.55Y-86.36
X82.55Y-88.9
X82.55Y-91.44
X82.55Y-93.98
X82.55Y-96.52
X82.55Y-99.06
X82.55Y-101.6
X82.55Y-104.14
X82.55Y-106.68
X82.55Y-109.22
X82.55Y-111.76
X82.55Y-114.3
X82.55Y-116.84
X82.55Y-119.38
X82.55Y-121.92
T6
X159.395Y-120.145
X159.395Y-143.005
X167.015Y-120.145
X167.015Y-143.005
T7
X79.5Y-151.0
M30
