%TF.GenerationSoftware,KiCad,Pcbnew,10.0.6*%
%TF.CreationDate,2026-10-01T23:42:46+10:00*%
%TF.ProjectId,compressor_with_pcb,636f6d70-7265-4737-936f-725f77697468,rev?*%
%TF.SameCoordinates,Original*%
%TF.FileFunction,Copper,L1,Top*%
%TF.FilePolarity,Positive*%
%FSLAX46Y46*%
G04 Gerber Fmt 4.6, Leading zero omitted, Abs format (unit mm)*
G04 Created by KiCad (PCBNEW 10.0.6) date 2026-10-01 23:42:46*
%MOMM*%
%LPD*%
G01*
G04 APERTURE LIST*
G04 Aperture macros list*
%AMRoundRect*
0 Rectangle with rounded corners*
0 $1 Rounding radius*
0 $2 $3 $4 $5 $6 $7 $8 $9 X,Y pos of 4 corners*
0 Add a 4 corners polygon primitive as box body*
4,1,4,$2,$3,$4,$5,$6,$7,$8,$9,$2,$3,0*
0 Add four circle primitives for the rounded corners*
1,1,$1+$1,$2,$3*
1,1,$1+$1,$4,$5*
1,1,$1+$1,$6,$7*
1,1,$1+$1,$8,$9*
0 Add four rect primitives between the rounded corners*
20,1,$1+$1,$2,$3,$4,$5,0*
20,1,$1+$1,$4,$5,$6,$7,0*
20,1,$1+$1,$6,$7,$8,$9,0*
20,1,$1+$1,$8,$9,$2,$3,0*%
G04 Aperture macros list end*
%TA.AperFunction,ConnectorPad*%
%ADD10RoundRect,0.248920X3.751080X-1.021080X3.751080X1.021080X-3.751080X1.021080X-3.751080X-1.021080X0*%
%TD*%
%TA.AperFunction,ComponentPad*%
%ADD11RoundRect,0.250000X0.550000X-0.550000X0.550000X0.550000X-0.550000X0.550000X-0.550000X-0.550000X0*%
%TD*%
%TA.AperFunction,ComponentPad*%
%ADD12C,1.600000*%
%TD*%
%TA.AperFunction,ComponentPad*%
%ADD13R,1.800000X1.800000*%
%TD*%
%TA.AperFunction,ComponentPad*%
%ADD14C,1.800000*%
%TD*%
%TA.AperFunction,ComponentPad*%
%ADD15R,1.050000X1.500000*%
%TD*%
%TA.AperFunction,ComponentPad*%
%ADD16O,1.050000X1.500000*%
%TD*%
%TA.AperFunction,ComponentPad*%
%ADD17RoundRect,0.250000X-0.550000X-0.550000X0.550000X-0.550000X0.550000X0.550000X-0.550000X0.550000X0*%
%TD*%
%TA.AperFunction,ComponentPad*%
%ADD18C,6.400000*%
%TD*%
%TA.AperFunction,ComponentPad*%
%ADD19R,1.500000X1.050000*%
%TD*%
%TA.AperFunction,ComponentPad*%
%ADD20O,1.500000X1.050000*%
%TD*%
%TA.AperFunction,ComponentPad*%
%ADD21RoundRect,0.250000X0.550000X0.550000X-0.550000X0.550000X-0.550000X-0.550000X0.550000X-0.550000X0*%
%TD*%
%TA.AperFunction,ComponentPad*%
%ADD22C,1.440000*%
%TD*%
%TA.AperFunction,ComponentPad*%
%ADD23RoundRect,0.250000X-0.550000X0.550000X-0.550000X-0.550000X0.550000X-0.550000X0.550000X0.550000X0*%
%TD*%
%TA.AperFunction,ComponentPad*%
%ADD24RoundRect,0.249999X-0.850001X-0.850001X0.850001X-0.850001X0.850001X0.850001X-0.850001X0.850001X0*%
%TD*%
%TA.AperFunction,ComponentPad*%
%ADD25C,2.200000*%
%TD*%
%TA.AperFunction,ComponentPad*%
%ADD26RoundRect,0.250000X-0.600000X-0.600000X0.600000X-0.600000X0.600000X0.600000X-0.600000X0.600000X0*%
%TD*%
%TA.AperFunction,ComponentPad*%
%ADD27C,1.700000*%
%TD*%
%TA.AperFunction,ViaPad*%
%ADD28C,0.800000*%
%TD*%
%TA.AperFunction,Conductor*%
%ADD29C,0.600000*%
%TD*%
%TA.AperFunction,Conductor*%
%ADD30C,0.250000*%
%TD*%
%TA.AperFunction,Conductor*%
%ADD31C,0.300000*%
%TD*%
G04 APERTURE END LIST*
D10*
%TO.P,J1,1,Pin_1_1*%
%TO.N,CHASSIS*%
X198500000Y-75139000D03*
%TO.P,J1,2,Pin_2_2*%
%TO.N,OUT+*%
X198500000Y-79099000D03*
%TO.P,J1,3,Pin_3_3*%
%TO.N,AUXOUT+*%
X198500000Y-83059000D03*
%TO.P,J1,4,Pin_4_4*%
%TO.N,OUT-*%
X198500000Y-87019000D03*
%TO.P,J1,5,Pin_5_5*%
%TO.N,AGND*%
X198500000Y-90979000D03*
%TO.P,J1,6,Pin_6_6*%
%TO.N,LINK*%
X198500000Y-94939000D03*
%TO.P,J1,7,Pin_7_7*%
%TO.N,AUXOUT-*%
X198500000Y-98899000D03*
%TO.P,J1,8,Pin_8_8*%
%TO.N,IN-*%
X198500000Y-102859000D03*
%TO.P,J1,9,Pin_9_9*%
%TO.N,AUXIN-*%
X198500000Y-106819000D03*
%TO.P,J1,10,Pin_10_10*%
%TO.N,IN+*%
X198500000Y-110779000D03*
%TO.P,J1,11,Pin_11_11*%
%TO.N,AUXIN+*%
X198500000Y-114739000D03*
%TO.P,J1,12,Pin_12_12*%
%TO.N,+16V-IN*%
X198500000Y-118699000D03*
%TO.P,J1,13,Pin_13_13*%
%TO.N,PGND*%
X198500000Y-122659000D03*
%TO.P,J1,14,Pin_14_14*%
%TO.N,-16V-IN*%
X198500000Y-126619000D03*
%TO.P,J1,15,Pin_15_15*%
%TO.N,+48V-IN*%
X198500000Y-130579000D03*
%TD*%
D11*
%TO.P,D10,1,K_1*%
%TO.N,AGND*%
X143425000Y-140845000D03*
D12*
%TO.P,D10,2,A_2*%
%TO.N,-5V1*%
X143425000Y-133225000D03*
%TD*%
%TO.P,R22,1*%
%TO.N,Net-(C10-Pad1)*%
X119545000Y-93985000D03*
%TO.P,R22,2*%
%TO.N,Net-(U1B-+)*%
X119545000Y-104145000D03*
%TD*%
D13*
%TO.P,LED1,1,K_1*%
%TO.N,CTRL-B*%
X114655000Y-91545000D03*
D14*
%TO.P,LED1,2,A_2*%
%TO.N,Net-(LED1-A)*%
X114655000Y-89005000D03*
%TD*%
D12*
%TO.P,R32,1*%
%TO.N,Net-(C13-Pad1)*%
X170525000Y-85545000D03*
%TO.P,R32,2*%
%TO.N,BYP_B*%
X160365000Y-85545000D03*
%TD*%
%TO.P,R8,1*%
%TO.N,PAD*%
X148235000Y-119385000D03*
%TO.P,R8,2*%
%TO.N,AGND*%
X148235000Y-129545000D03*
%TD*%
%TO.P,R60,1*%
%TO.N,+16V*%
X124625000Y-137035000D03*
%TO.P,R60,2*%
%TO.N,Net-(C21-Pad1)*%
X124625000Y-126875000D03*
%TD*%
%TO.P,R50,1*%
%TO.N,+16V-IN*%
X192115000Y-120045000D03*
%TO.P,R50,2*%
%TO.N,+16V*%
X181955000Y-120045000D03*
%TD*%
D15*
%TO.P,Q2,1,C_1*%
%TO.N,Net-(Q2-C)*%
X142240000Y-86210000D03*
D16*
%TO.P,Q2,2,B_2*%
%TO.N,Net-(Q2-B)*%
X140970000Y-86210000D03*
%TO.P,Q2,3,E_3*%
%TO.N,Net-(Q2-E)*%
X139700000Y-86210000D03*
%TD*%
D17*
%TO.P,C17,1*%
%TO.N,AGND*%
X160193000Y-134647000D03*
D12*
%TO.P,C17,2*%
%TO.N,-16V*%
X162693000Y-134647000D03*
%TD*%
%TO.P,R88,1*%
%TO.N,LVL_METER*%
X103335000Y-149045000D03*
%TO.P,R88,2*%
%TO.N,AGND*%
X93175000Y-149045000D03*
%TD*%
%TO.P,R39,1*%
%TO.N,Net-(D5-A)*%
X110135000Y-71125000D03*
%TO.P,R39,2*%
%TO.N,Net-(R36-Pad2)*%
X110135000Y-60965000D03*
%TD*%
%TO.P,R46,1*%
%TO.N,ATK_W*%
X91905000Y-114755000D03*
%TO.P,R46,2*%
%TO.N,Net-(D7-K)*%
X102065000Y-114755000D03*
%TD*%
%TO.P,R14,1*%
%TO.N,Net-(Q3-C)*%
X125445000Y-76655000D03*
%TO.P,R14,2*%
%TO.N,Net-(Q1-E)*%
X135605000Y-76655000D03*
%TD*%
D17*
%TO.P,U7,1*%
%TO.N,Net-(R94-Pad2)*%
X99060000Y-132080000D03*
D12*
%TO.P,U7,2,-_2*%
%TO.N,Net-(U7A--)*%
X99060000Y-134620000D03*
%TO.P,U7,3,+_3*%
%TO.N,Net-(U7A-+)*%
X99060000Y-137160000D03*
%TO.P,U7,4,V-_4*%
%TO.N,-16V*%
X99060000Y-139700000D03*
%TO.P,U7,5,+_5*%
%TO.N,Net-(U7B-+)*%
X106680000Y-139700000D03*
%TO.P,U7,6,-_6*%
%TO.N,LVL_METER*%
X106680000Y-137160000D03*
%TO.P,U7,7*%
%TO.N,Net-(R87-Pad2)*%
X106680000Y-134620000D03*
%TO.P,U7,8,V+_8*%
%TO.N,+16V*%
X106680000Y-132080000D03*
%TD*%
%TO.P,R68,1*%
%TO.N,Net-(C21-Pad1)*%
X124625000Y-123065000D03*
%TO.P,R68,2*%
%TO.N,STB*%
X124625000Y-112905000D03*
%TD*%
D15*
%TO.P,Q7,1,C_1*%
%TO.N,Net-(Q4-B)*%
X132715000Y-66040000D03*
D16*
%TO.P,Q7,2,B_2*%
%TO.N,STB*%
X133985000Y-66040000D03*
%TO.P,Q7,3,E_3*%
%TO.N,Net-(Q1-C)*%
X135255000Y-66040000D03*
%TD*%
D12*
%TO.P,R4,1*%
%TO.N,Net-(U1A--)*%
X147815000Y-104525000D03*
%TO.P,R4,2*%
%TO.N,Net-(R4-Pad2)*%
X147815000Y-94365000D03*
%TD*%
%TO.P,R86,1*%
%TO.N,Net-(R86-Pad1)*%
X107595000Y-153675000D03*
%TO.P,R86,2*%
%TO.N,Net-(U7B-+)*%
X107595000Y-143515000D03*
%TD*%
%TO.P,R69,1*%
%TO.N,STB*%
X119545000Y-121795000D03*
%TO.P,R69,2*%
%TO.N,CTRL-B*%
X119545000Y-131955000D03*
%TD*%
D15*
%TO.P,Q6,1,C_1*%
%TO.N,+16V*%
X127000000Y-66040000D03*
D16*
%TO.P,Q6,2,B_2*%
%TO.N,STA*%
X128270000Y-66040000D03*
%TO.P,Q6,3,E_3*%
%TO.N,Net-(Q1-C)*%
X129540000Y-66040000D03*
%TD*%
D15*
%TO.P,Q1,1,C_1*%
%TO.N,Net-(Q1-C)*%
X139700000Y-81280000D03*
D16*
%TO.P,Q1,2,B_2*%
%TO.N,Net-(Q1-B)*%
X140970000Y-81280000D03*
%TO.P,Q1,3,E_3*%
%TO.N,Net-(Q1-E)*%
X142240000Y-81280000D03*
%TD*%
D12*
%TO.P,C15,1*%
%TO.N,TIMING*%
X109885000Y-105865000D03*
%TO.P,C15,2*%
%TO.N,AGND*%
X114885000Y-105865000D03*
%TD*%
%TO.P,R5,1*%
%TO.N,IN-*%
X191815000Y-102435000D03*
%TO.P,R5,2*%
%TO.N,Net-(C1-Pad1)*%
X181655000Y-102435000D03*
%TD*%
%TO.P,R35,1*%
%TO.N,THR_W*%
X91085000Y-91445000D03*
%TO.P,R35,2*%
%TO.N,Net-(U3A--)*%
X91085000Y-81285000D03*
%TD*%
%TO.P,C18,1*%
%TO.N,CHASSIS*%
X191295000Y-71045000D03*
%TO.P,C18,2*%
%TO.N,AGND*%
X191295000Y-66045000D03*
%TD*%
%TO.P,R38,1*%
%TO.N,HPF_B*%
X152565000Y-120525000D03*
%TO.P,R38,2*%
%TO.N,AGND*%
X152565000Y-130685000D03*
%TD*%
%TO.P,C41,1*%
%TO.N,+16V*%
X106680000Y-128270000D03*
%TO.P,C41,2*%
%TO.N,AGND*%
X101680000Y-128270000D03*
%TD*%
%TO.P,R7,1*%
%TO.N,Net-(R7-Pad1)*%
X133815000Y-94435000D03*
%TO.P,R7,2*%
%TO.N,Net-(R4-Pad2)*%
X143975000Y-94435000D03*
%TD*%
%TO.P,R49,1*%
%TO.N,Net-(U4A-+)*%
X91085000Y-105415000D03*
%TO.P,R49,2*%
%TO.N,AGND*%
X91085000Y-95255000D03*
%TD*%
D18*
%TO.P,H2,1*%
%TO.N,CHASSIS*%
X79500000Y-151000000D03*
%TD*%
D12*
%TO.P,C28,1*%
%TO.N,+16V*%
X140970000Y-118110000D03*
%TO.P,C28,2*%
%TO.N,AGND*%
X135970000Y-118110000D03*
%TD*%
D17*
%TO.P,U4,1*%
%TO.N,RATIO_CW*%
X99060000Y-98425000D03*
D12*
%TO.P,U4,2,-_2*%
%TO.N,Net-(U4A--)*%
X99060000Y-100965000D03*
%TO.P,U4,3,+_3*%
%TO.N,Net-(U4A-+)*%
X99060000Y-103505000D03*
%TO.P,U4,4,V-_4*%
%TO.N,-16V*%
X99060000Y-106045000D03*
%TO.P,U4,5,+_5*%
%TO.N,TIMING*%
X106680000Y-106045000D03*
%TO.P,U4,6,-_6*%
%TO.N,Net-(U4B--)*%
X106680000Y-103505000D03*
%TO.P,U4,7*%
%TO.N,CTRL-B*%
X106680000Y-100965000D03*
%TO.P,U4,8,V+_8*%
%TO.N,+16V*%
X106680000Y-98425000D03*
%TD*%
D19*
%TO.P,Q4,1,C_1*%
%TO.N,+16V*%
X122045000Y-67725000D03*
D20*
%TO.P,Q4,2,B_2*%
%TO.N,Net-(Q4-B)*%
X122045000Y-66455000D03*
%TO.P,Q4,3,E_3*%
%TO.N,Net-(Q4-E)*%
X122045000Y-65185000D03*
%TD*%
D12*
%TO.P,R24,1*%
%TO.N,Net-(U1B-+)*%
X119025000Y-107955000D03*
%TO.P,R24,2*%
%TO.N,AGND*%
X119025000Y-118115000D03*
%TD*%
%TO.P,C30,1*%
%TO.N,-16V*%
X166370000Y-74930000D03*
%TO.P,C30,2*%
%TO.N,AGND*%
X171370000Y-74930000D03*
%TD*%
D17*
%TO.P,C6,1*%
%TO.N,VBIAS*%
X133643000Y-111577000D03*
D12*
%TO.P,C6,2*%
%TO.N,AGND*%
X136143000Y-111577000D03*
%TD*%
%TO.P,R37,1*%
%TO.N,Net-(U3A-+)*%
X91085000Y-69855000D03*
%TO.P,R37,2*%
%TO.N,AGND*%
X91085000Y-59695000D03*
%TD*%
%TO.P,C23,1*%
%TO.N,+16V*%
X165100000Y-92710000D03*
%TO.P,C23,2*%
%TO.N,AGND*%
X160100000Y-92710000D03*
%TD*%
%TO.P,C26,1*%
%TO.N,+16V*%
X106680000Y-94615000D03*
%TO.P,C26,2*%
%TO.N,AGND*%
X101680000Y-94615000D03*
%TD*%
%TO.P,R62,1*%
%TO.N,Net-(U6A-+)*%
X129705000Y-137035000D03*
%TO.P,R62,2*%
%TO.N,AGND*%
X129705000Y-147195000D03*
%TD*%
%TO.P,C5,1*%
%TO.N,PAD*%
X143675000Y-104265000D03*
%TO.P,C5,2*%
%TO.N,Net-(Q1-B)*%
X143675000Y-99265000D03*
%TD*%
%TO.P,R21,1*%
%TO.N,Net-(C9-Pad2)*%
X129255000Y-104595000D03*
%TO.P,R21,2*%
%TO.N,Net-(U1B--)*%
X139415000Y-104595000D03*
%TD*%
D21*
%TO.P,D12,1,K_1*%
%TO.N,GR_METER*%
X102065000Y-119585000D03*
D12*
%TO.P,D12,2,A_2*%
%TO.N,AGND*%
X94445000Y-119585000D03*
%TD*%
D17*
%TO.P,U1,1*%
%TO.N,Net-(R4-Pad2)*%
X157480000Y-96520000D03*
D12*
%TO.P,U1,2,-_2*%
%TO.N,Net-(U1A--)*%
X157480000Y-99060000D03*
%TO.P,U1,3,+_3*%
%TO.N,Net-(U1A-+)*%
X157480000Y-101600000D03*
%TO.P,U1,4,V-_4*%
%TO.N,-16V*%
X157480000Y-104140000D03*
%TO.P,U1,5,+_5*%
%TO.N,Net-(U1B-+)*%
X165100000Y-104140000D03*
%TO.P,U1,6,-_6*%
%TO.N,Net-(U1B--)*%
X165100000Y-101600000D03*
%TO.P,U1,7*%
%TO.N,SIG-VCA*%
X165100000Y-99060000D03*
%TO.P,U1,8,V+_8*%
%TO.N,+16V*%
X165100000Y-96520000D03*
%TD*%
%TO.P,R94,1*%
%TO.N,GR_METER*%
X102065000Y-123645000D03*
%TO.P,R94,2*%
%TO.N,Net-(R94-Pad2)*%
X112225000Y-123645000D03*
%TD*%
D22*
%TO.P,RV1,1,1_1*%
%TO.N,Net-(R7-Pad1)*%
X147705000Y-109765000D03*
%TO.P,RV1,2,2_2*%
%TO.N,PAD*%
X147705000Y-112305000D03*
%TO.P,RV1,3,3_3*%
X147705000Y-114845000D03*
%TD*%
D12*
%TO.P,C29,1*%
%TO.N,-16V*%
X157480000Y-107950000D03*
%TO.P,C29,2*%
%TO.N,AGND*%
X162480000Y-107950000D03*
%TD*%
D17*
%TO.P,U5,1*%
%TO.N,KEY*%
X170180000Y-127000000D03*
D12*
%TO.P,U5,2,-_2*%
%TO.N,Net-(U5A--)*%
X170180000Y-129540000D03*
%TO.P,U5,3,+_3*%
%TO.N,Net-(U5A-+)*%
X170180000Y-132080000D03*
%TO.P,U5,4,V-_4*%
%TO.N,-16V*%
X170180000Y-134620000D03*
%TO.P,U5,5,+_5*%
%TO.N,OUT-A*%
X177800000Y-134620000D03*
%TO.P,U5,6,-_6*%
%TO.N,Net-(U5B--)*%
X177800000Y-132080000D03*
%TO.P,U5,7*%
X177800000Y-129540000D03*
%TO.P,U5,8,V+_8*%
%TO.N,+16V*%
X177800000Y-127000000D03*
%TD*%
%TO.P,C20,1*%
%TO.N,-5V1*%
X152565000Y-134495000D03*
%TO.P,C20,2*%
%TO.N,AGND*%
X152565000Y-139495000D03*
%TD*%
%TO.P,C14,1*%
%TO.N,HPF_A*%
X141135000Y-114295000D03*
%TO.P,C14,2*%
%TO.N,HPF_B*%
X141135000Y-109295000D03*
%TD*%
%TO.P,R30,1*%
%TO.N,Net-(C13-Pad1)*%
X183675000Y-60965000D03*
%TO.P,R30,2*%
%TO.N,Net-(U2B--)*%
X183675000Y-71125000D03*
%TD*%
D22*
%TO.P,RV8,1,1_1*%
%TO.N,OUT-A*%
X112565000Y-113195000D03*
%TO.P,RV8,2,2_2*%
%TO.N,Net-(R86-Pad1)*%
X112565000Y-115735000D03*
%TO.P,RV8,3,3_3*%
%TO.N,AGND*%
X112565000Y-118275000D03*
%TD*%
D12*
%TO.P,R51,1*%
%TO.N,-16V-IN*%
X192115000Y-126395000D03*
%TO.P,R51,2*%
%TO.N,-16V*%
X181955000Y-126395000D03*
%TD*%
D11*
%TO.P,D5,1,K_1*%
%TO.N,Net-(D5-K)*%
X111155000Y-82555000D03*
D12*
%TO.P,D5,2,A_2*%
%TO.N,Net-(D5-A)*%
X111155000Y-74935000D03*
%TD*%
%TO.P,R47,1*%
%TO.N,REL_W*%
X88095000Y-123645000D03*
%TO.P,R47,2*%
%TO.N,AGND*%
X98255000Y-123645000D03*
%TD*%
%TO.P,R41,1*%
%TO.N,Net-(U3B-+)*%
X107595000Y-76205000D03*
%TO.P,R41,2*%
%TO.N,AGND*%
X107595000Y-86365000D03*
%TD*%
D17*
%TO.P,U2,1*%
%TO.N,OUT-A*%
X166370000Y-63500000D03*
D12*
%TO.P,U2,2,-_2*%
%TO.N,MAKEUP_FB*%
X166370000Y-66040000D03*
%TO.P,U2,3,+_3*%
%TO.N,SIG-VCA*%
X166370000Y-68580000D03*
%TO.P,U2,4,V-_4*%
%TO.N,-16V*%
X166370000Y-71120000D03*
%TO.P,U2,5,+_5*%
%TO.N,Net-(U2B-+)*%
X173990000Y-71120000D03*
%TO.P,U2,6,-_6*%
%TO.N,Net-(U2B--)*%
X173990000Y-68580000D03*
%TO.P,U2,7*%
%TO.N,Net-(C13-Pad1)*%
X173990000Y-66040000D03*
%TO.P,U2,8,V+_8*%
%TO.N,+16V*%
X173990000Y-63500000D03*
%TD*%
D22*
%TO.P,RV7,1,1_1*%
%TO.N,Net-(U7A--)*%
X89525000Y-143865000D03*
%TO.P,RV7,2,2_2*%
%TO.N,Net-(R94-Pad2)*%
X92065000Y-143865000D03*
%TO.P,RV7,3,3_3*%
X94605000Y-143865000D03*
%TD*%
D12*
%TO.P,R34,1*%
%TO.N,AGND*%
X191295000Y-147535000D03*
%TO.P,R34,2*%
%TO.N,AUXOUT-*%
X191295000Y-137375000D03*
%TD*%
%TO.P,R80,1*%
%TO.N,AUXIN-*%
X185765000Y-142905000D03*
%TO.P,R80,2*%
%TO.N,Net-(U5A--)*%
X175605000Y-142905000D03*
%TD*%
%TO.P,R20,1*%
%TO.N,Net-(Q5-E)*%
X124625000Y-85095000D03*
%TO.P,R20,2*%
%TO.N,AGND*%
X124625000Y-95255000D03*
%TD*%
%TO.P,R40,1*%
%TO.N,Net-(D5-A)*%
X113945000Y-71125000D03*
%TO.P,R40,2*%
%TO.N,Net-(D6-K)*%
X113945000Y-60965000D03*
%TD*%
%TO.P,R45,1*%
%TO.N,RATIO_W*%
X88545000Y-109225000D03*
%TO.P,R45,2*%
%TO.N,LINK_SW*%
X88545000Y-119385000D03*
%TD*%
D23*
%TO.P,D6,1,K_1*%
%TO.N,Net-(D6-K)*%
X114965000Y-74935000D03*
D12*
%TO.P,D6,2,A_2*%
%TO.N,Net-(D5-K)*%
X114965000Y-82555000D03*
%TD*%
%TO.P,R81,1*%
%TO.N,AUXIN+*%
X185765000Y-146715000D03*
%TO.P,R81,2*%
%TO.N,Net-(U5A-+)*%
X175605000Y-146715000D03*
%TD*%
%TO.P,R93,1*%
%TO.N,GR_REF*%
X91085000Y-128275000D03*
%TO.P,R93,2*%
%TO.N,Net-(U7A--)*%
X91085000Y-138435000D03*
%TD*%
D17*
%TO.P,C16,1*%
%TO.N,+16V*%
X160193000Y-127027000D03*
D12*
%TO.P,C16,2*%
%TO.N,AGND*%
X162693000Y-127027000D03*
%TD*%
%TO.P,R1,1*%
%TO.N,Net-(C2-Pad2)*%
X168955000Y-112595000D03*
%TO.P,R1,2*%
%TO.N,Net-(U1A-+)*%
X158795000Y-112595000D03*
%TD*%
%TO.P,R6,1*%
%TO.N,IN+*%
X191815000Y-111325000D03*
%TO.P,R6,2*%
%TO.N,Net-(C2-Pad1)*%
X181655000Y-111325000D03*
%TD*%
%TO.P,R52,1*%
%TO.N,CHASSIS*%
X192115000Y-75385000D03*
%TO.P,R52,2*%
%TO.N,AGND*%
X181955000Y-75385000D03*
%TD*%
%TO.P,C24,1*%
%TO.N,+16V*%
X173990000Y-59690000D03*
%TO.P,C24,2*%
%TO.N,AGND*%
X168990000Y-59690000D03*
%TD*%
%TO.P,C8,1*%
%TO.N,Net-(C8-Pad1)*%
X156375000Y-82675000D03*
%TO.P,C8,2*%
%TO.N,AGND*%
X156375000Y-77675000D03*
%TD*%
%TO.P,R83,1*%
%TO.N,Net-(U5A-+)*%
X175605000Y-150525000D03*
%TO.P,R83,2*%
%TO.N,AGND*%
X185765000Y-150525000D03*
%TD*%
D23*
%TO.P,D11,1,K_1*%
%TO.N,LVL_METER*%
X114965000Y-143515000D03*
D12*
%TO.P,D11,2,A_2*%
%TO.N,Net-(D11-A)*%
X114965000Y-151135000D03*
%TD*%
%TO.P,R36,1*%
%TO.N,Net-(U3A--)*%
X94895000Y-78745000D03*
%TO.P,R36,2*%
%TO.N,Net-(R36-Pad2)*%
X94895000Y-68585000D03*
%TD*%
%TO.P,R43,1*%
%TO.N,Net-(D6-K)*%
X103785000Y-80015000D03*
%TO.P,R43,2*%
%TO.N,Net-(U4A--)*%
X103785000Y-90175000D03*
%TD*%
%TO.P,C4,1*%
%TO.N,Net-(C2-Pad1)*%
X177765000Y-111325000D03*
%TO.P,C4,2*%
%TO.N,AGND*%
X172765000Y-111325000D03*
%TD*%
%TO.P,R19,1*%
%TO.N,Net-(Q4-E)*%
X120815000Y-71125000D03*
%TO.P,R19,2*%
%TO.N,AGND*%
X120815000Y-81285000D03*
%TD*%
%TO.P,R44,1*%
%TO.N,RATIO_CW*%
X94895000Y-96525000D03*
%TO.P,R44,2*%
%TO.N,Net-(U4A--)*%
X94895000Y-106685000D03*
%TD*%
%TO.P,R11,1*%
%TO.N,Net-(Q1-B)*%
X139415000Y-99515000D03*
%TO.P,R11,2*%
%TO.N,VBIAS*%
X129255000Y-99515000D03*
%TD*%
D11*
%TO.P,C2,1*%
%TO.N,Net-(C2-Pad1)*%
X186547000Y-96695000D03*
D12*
%TO.P,C2,2*%
%TO.N,Net-(C2-Pad2)*%
X186547000Y-94195000D03*
%TD*%
%TO.P,C42,1*%
%TO.N,-16V*%
X99060000Y-143510000D03*
%TO.P,C42,2*%
%TO.N,AGND*%
X104060000Y-143510000D03*
%TD*%
D19*
%TO.P,Q5,1,C_1*%
%TO.N,+16V*%
X146725000Y-65185000D03*
D20*
%TO.P,Q5,2,B_2*%
%TO.N,Net-(Q5-B)*%
X146725000Y-66455000D03*
%TO.P,Q5,3,E_3*%
%TO.N,Net-(Q5-E)*%
X146725000Y-67725000D03*
%TD*%
D12*
%TO.P,R9,1*%
%TO.N,VBIAS*%
X125375000Y-99065000D03*
%TO.P,R9,2*%
%TO.N,+16V*%
X125375000Y-109225000D03*
%TD*%
%TO.P,R74,1*%
%TO.N,Net-(U4B--)*%
X110135000Y-101605000D03*
%TO.P,R74,2*%
%TO.N,CTRL-B*%
X110135000Y-91445000D03*
%TD*%
%TO.P,C27,1*%
%TO.N,+16V*%
X177800000Y-123190000D03*
%TO.P,C27,2*%
%TO.N,AGND*%
X172800000Y-123190000D03*
%TD*%
%TO.P,R15,1*%
%TO.N,Net-(Q2-E)*%
X139865000Y-76205000D03*
%TO.P,R15,2*%
%TO.N,Net-(Q3-C)*%
X139865000Y-66045000D03*
%TD*%
%TO.P,R82,1*%
%TO.N,KEY*%
X170975000Y-142455000D03*
%TO.P,R82,2*%
%TO.N,Net-(U5A--)*%
X170975000Y-152615000D03*
%TD*%
%TO.P,R29,1*%
%TO.N,OUT-A*%
X178595000Y-59695000D03*
%TO.P,R29,2*%
%TO.N,Net-(U2B--)*%
X178595000Y-69855000D03*
%TD*%
%TO.P,C34,1*%
%TO.N,-16V*%
X133350000Y-133350000D03*
%TO.P,C34,2*%
%TO.N,AGND*%
X138350000Y-133350000D03*
%TD*%
%TO.P,R77,1*%
%TO.N,AGND*%
X144425000Y-129545000D03*
%TO.P,R77,2*%
%TO.N,Net-(LED1-A)*%
X144425000Y-119385000D03*
%TD*%
%TO.P,R84,1*%
%TO.N,CTRL-B*%
X112675000Y-129545000D03*
%TO.P,R84,2*%
%TO.N,Net-(U7A--)*%
X112675000Y-139705000D03*
%TD*%
%TO.P,R48,1*%
%TO.N,PGND*%
X192115000Y-130205000D03*
%TO.P,R48,2*%
%TO.N,AGND*%
X181955000Y-130205000D03*
%TD*%
%TO.P,R17,1*%
%TO.N,+16V*%
X154655000Y-71575000D03*
%TO.P,R17,2*%
%TO.N,Net-(Q5-B)*%
X144495000Y-71575000D03*
%TD*%
%TO.P,R23,1*%
%TO.N,Net-(U1B--)*%
X168555000Y-105415000D03*
%TO.P,R23,2*%
%TO.N,SIG-VCA*%
X168555000Y-95255000D03*
%TD*%
%TO.P,R28,1*%
%TO.N,OUT-A*%
X170525000Y-80465000D03*
%TO.P,R28,2*%
%TO.N,BYP_A*%
X160365000Y-80465000D03*
%TD*%
%TO.P,C31,1*%
%TO.N,-16V*%
X99060000Y-76200000D03*
%TO.P,C31,2*%
%TO.N,AGND*%
X104060000Y-76200000D03*
%TD*%
%TO.P,C13,1*%
%TO.N,Net-(C13-Pad1)*%
X179415000Y-80465000D03*
%TO.P,C13,2*%
%TO.N,Net-(U2B--)*%
X184415000Y-80465000D03*
%TD*%
%TO.P,R26,1*%
%TO.N,MAKEUP_FB*%
X162085000Y-66045000D03*
%TO.P,R26,2*%
%TO.N,AGND*%
X162085000Y-76205000D03*
%TD*%
%TO.P,R31,1*%
%TO.N,Net-(U2B-+)*%
X174785000Y-74935000D03*
%TO.P,R31,2*%
%TO.N,AGND*%
X174785000Y-85095000D03*
%TD*%
D15*
%TO.P,Q8,1,C_1*%
%TO.N,+16V*%
X129540000Y-70970000D03*
D16*
%TO.P,Q8,2,B_2*%
%TO.N,STA*%
X128270000Y-70970000D03*
%TO.P,Q8,3,E_3*%
%TO.N,Net-(Q2-C)*%
X127000000Y-70970000D03*
%TD*%
D12*
%TO.P,C7,1*%
%TO.N,VBIAS*%
X134785000Y-90095000D03*
%TO.P,C7,2*%
%TO.N,AGND*%
X134785000Y-85095000D03*
%TD*%
%TO.P,R53,1*%
%TO.N,-16V*%
X147485000Y-143385000D03*
%TO.P,R53,2*%
%TO.N,-5V1*%
X147485000Y-133225000D03*
%TD*%
%TO.P,C9,1*%
%TO.N,Net-(Q4-E)*%
X119545000Y-85295000D03*
%TO.P,C9,2*%
%TO.N,Net-(C9-Pad2)*%
X119545000Y-90295000D03*
%TD*%
%TO.P,C33,1*%
%TO.N,-16V*%
X170180000Y-138430000D03*
%TO.P,C33,2*%
%TO.N,AGND*%
X175180000Y-138430000D03*
%TD*%
%TO.P,C3,1*%
%TO.N,Net-(C1-Pad1)*%
X177765000Y-102435000D03*
%TO.P,C3,2*%
%TO.N,AGND*%
X172765000Y-102435000D03*
%TD*%
D11*
%TO.P,C19,1*%
%TO.N,AGND*%
X140497000Y-148255000D03*
D12*
%TO.P,C19,2*%
%TO.N,-5V1*%
X140497000Y-145755000D03*
%TD*%
%TO.P,R33,1*%
%TO.N,Net-(U5B--)*%
X181955000Y-134015000D03*
%TO.P,R33,2*%
%TO.N,AUXOUT+*%
X192115000Y-134015000D03*
%TD*%
D17*
%TO.P,U3,1*%
%TO.N,Net-(R36-Pad2)*%
X99060000Y-64770000D03*
D12*
%TO.P,U3,2,-_2*%
%TO.N,Net-(U3A--)*%
X99060000Y-67310000D03*
%TO.P,U3,3,+_3*%
%TO.N,Net-(U3A-+)*%
X99060000Y-69850000D03*
%TO.P,U3,4,V-_4*%
%TO.N,-16V*%
X99060000Y-72390000D03*
%TO.P,U3,5,+_5*%
%TO.N,Net-(U3B-+)*%
X106680000Y-72390000D03*
%TO.P,U3,6,-_6*%
%TO.N,Net-(D5-A)*%
X106680000Y-69850000D03*
%TO.P,U3,7*%
%TO.N,Net-(D5-K)*%
X106680000Y-67310000D03*
%TO.P,U3,8,V+_8*%
%TO.N,+16V*%
X106680000Y-64770000D03*
%TD*%
D15*
%TO.P,Q9,1,C_1*%
%TO.N,Net-(Q5-B)*%
X135255000Y-70970000D03*
D16*
%TO.P,Q9,2,B_2*%
%TO.N,STB*%
X133985000Y-70970000D03*
%TO.P,Q9,3,E_3*%
%TO.N,Net-(Q2-C)*%
X132715000Y-70970000D03*
%TD*%
D17*
%TO.P,U6,1*%
%TO.N,STA*%
X133350000Y-121920000D03*
D12*
%TO.P,U6,2,-_2*%
X133350000Y-124460000D03*
%TO.P,U6,3,+_3*%
%TO.N,Net-(U6A-+)*%
X133350000Y-127000000D03*
%TO.P,U6,4,V-_4*%
%TO.N,-16V*%
X133350000Y-129540000D03*
%TO.P,U6,5,+_5*%
%TO.N,KEY_SRC*%
X140970000Y-129540000D03*
%TO.P,U6,6,-_6*%
%TO.N,HPF_A*%
X140970000Y-127000000D03*
%TO.P,U6,7*%
X140970000Y-124460000D03*
%TO.P,U6,8,V+_8*%
%TO.N,+16V*%
X140970000Y-121920000D03*
%TD*%
%TO.P,C25,1*%
%TO.N,+16V*%
X106680000Y-60960000D03*
%TO.P,C25,2*%
%TO.N,AGND*%
X101680000Y-60960000D03*
%TD*%
D24*
%TO.P,D9,1,K_1*%
%TO.N,AGND*%
X159395000Y-143005000D03*
D25*
%TO.P,D9,2,A_2*%
%TO.N,-16V*%
X167015000Y-143005000D03*
%TD*%
D12*
%TO.P,R16,1*%
%TO.N,+16V*%
X122905000Y-60145000D03*
%TO.P,R16,2*%
%TO.N,Net-(Q4-B)*%
X133065000Y-60145000D03*
%TD*%
%TO.P,C10,1*%
%TO.N,Net-(C10-Pad1)*%
X146215000Y-81405000D03*
%TO.P,C10,2*%
%TO.N,Net-(Q5-E)*%
X146215000Y-76405000D03*
%TD*%
D19*
%TO.P,Q3,1,C_1*%
%TO.N,Net-(Q3-C)*%
X141095000Y-62645000D03*
D20*
%TO.P,Q3,2,B_2*%
%TO.N,AGND*%
X141095000Y-61375000D03*
%TO.P,Q3,3,E_3*%
%TO.N,Net-(Q3-E)*%
X141095000Y-60105000D03*
%TD*%
D12*
%TO.P,R18,1*%
%TO.N,Net-(Q3-E)*%
X145765000Y-60145000D03*
%TO.P,R18,2*%
%TO.N,-5V1*%
X155925000Y-60145000D03*
%TD*%
%TO.P,R87,1*%
%TO.N,Net-(D11-A)*%
X111405000Y-153675000D03*
%TO.P,R87,2*%
%TO.N,Net-(R87-Pad2)*%
X111405000Y-143515000D03*
%TD*%
%TO.P,R10,1*%
%TO.N,VBIAS*%
X129185000Y-109225000D03*
%TO.P,R10,2*%
%TO.N,AGND*%
X129185000Y-119385000D03*
%TD*%
D26*
%TO.P,J2,1,Pin_1_1*%
%TO.N,AGND*%
X80010000Y-86360000D03*
D27*
%TO.P,J2,2,Pin_2_2*%
%TO.N,IN+*%
X82550000Y-86360000D03*
%TO.P,J2,3,Pin_3_3*%
%TO.N,IN-*%
X80010000Y-88900000D03*
%TO.P,J2,4,Pin_4_4*%
%TO.N,AGND*%
X82550000Y-88900000D03*
%TO.P,J2,5,Pin_5_5*%
%TO.N,OUT+*%
X80010000Y-91440000D03*
%TO.P,J2,6,Pin_6_6*%
%TO.N,OUT-*%
X82550000Y-91440000D03*
%TO.P,J2,7,Pin_7_7*%
%TO.N,AGND*%
X80010000Y-93980000D03*
%TO.P,J2,8,Pin_8_8*%
%TO.N,BYP_A*%
X82550000Y-93980000D03*
%TO.P,J2,9,Pin_9_9*%
%TO.N,BYP_B*%
X80010000Y-96520000D03*
%TO.P,J2,10,Pin_10_10*%
%TO.N,AGND*%
X82550000Y-96520000D03*
%TO.P,J2,11,Pin_11_11*%
%TO.N,OUT-A*%
X80010000Y-99060000D03*
%TO.P,J2,12,Pin_12_12*%
%TO.N,MAKEUP_FB*%
X82550000Y-99060000D03*
%TO.P,J2,13,Pin_13_13*%
%TO.N,SIG-VCA*%
X80010000Y-101600000D03*
%TO.P,J2,14,Pin_14_14*%
%TO.N,KEY_SRC*%
X82550000Y-101600000D03*
%TO.P,J2,15,Pin_15_15*%
%TO.N,KEY*%
X80010000Y-104140000D03*
%TO.P,J2,16,Pin_16_16*%
%TO.N,HPF_A*%
X82550000Y-104140000D03*
%TO.P,J2,17,Pin_17_17*%
%TO.N,HPF_B*%
X80010000Y-106680000D03*
%TO.P,J2,18,Pin_18_18*%
%TO.N,THR_W*%
X82550000Y-106680000D03*
%TO.P,J2,19,Pin_19_19*%
%TO.N,RATIO_CW*%
X80010000Y-109220000D03*
%TO.P,J2,20,Pin_20_20*%
%TO.N,RATIO_W*%
X82550000Y-109220000D03*
%TO.P,J2,21,Pin_21_21*%
%TO.N,LINK_SW*%
X80010000Y-111760000D03*
%TO.P,J2,22,Pin_22_22*%
%TO.N,LINK*%
X82550000Y-111760000D03*
%TO.P,J2,23,Pin_23_23*%
%TO.N,ATK_W*%
X80010000Y-114300000D03*
%TO.P,J2,24,Pin_24_24*%
%TO.N,TIMING*%
X82550000Y-114300000D03*
%TO.P,J2,25,Pin_25_25*%
%TO.N,REL_W*%
X80010000Y-116840000D03*
%TO.P,J2,26,Pin_26_26*%
%TO.N,AGND*%
X82550000Y-116840000D03*
%TO.P,J2,27,Pin_27_27*%
%TO.N,GR_METER*%
X80010000Y-119380000D03*
%TO.P,J2,28,Pin_28_28*%
%TO.N,GR_REF*%
X82550000Y-119380000D03*
%TO.P,J2,29,Pin_29_29*%
%TO.N,LVL_METER*%
X80010000Y-121920000D03*
%TO.P,J2,30,Pin_30_30*%
%TO.N,+16V*%
X82550000Y-121920000D03*
%TD*%
D12*
%TO.P,R12,1*%
%TO.N,Net-(Q2-B)*%
X129705000Y-85095000D03*
%TO.P,R12,2*%
%TO.N,VBIAS*%
X129705000Y-95255000D03*
%TD*%
%TO.P,R42,1*%
%TO.N,Net-(U4A--)*%
X97435000Y-92715000D03*
%TO.P,R42,2*%
%TO.N,Net-(R36-Pad2)*%
X97435000Y-82555000D03*
%TD*%
%TO.P,R2,1*%
%TO.N,Net-(C1-Pad2)*%
X152895000Y-93095000D03*
%TO.P,R2,2*%
%TO.N,Net-(U1A--)*%
X152895000Y-103255000D03*
%TD*%
D11*
%TO.P,D7,1,K_1*%
%TO.N,Net-(D7-K)*%
X107345000Y-118115000D03*
D12*
%TO.P,D7,2,A_2*%
%TO.N,TIMING*%
X107345000Y-110495000D03*
%TD*%
D24*
%TO.P,D8,1,K_1*%
%TO.N,+16V*%
X159395000Y-120145000D03*
D25*
%TO.P,D8,2,A_2*%
%TO.N,AGND*%
X167015000Y-120145000D03*
%TD*%
D12*
%TO.P,C32,1*%
%TO.N,-16V*%
X99060000Y-109855000D03*
%TO.P,C32,2*%
%TO.N,AGND*%
X104060000Y-109855000D03*
%TD*%
%TO.P,C11,1*%
%TO.N,Net-(U1B--)*%
X151295000Y-82475000D03*
%TO.P,C11,2*%
%TO.N,SIG-VCA*%
X151295000Y-77475000D03*
%TD*%
D17*
%TO.P,C22,1*%
%TO.N,Net-(U6A-+)*%
X135433000Y-139387000D03*
D12*
%TO.P,C22,2*%
%TO.N,AGND*%
X137933000Y-139387000D03*
%TD*%
%TO.P,R61,1*%
%TO.N,Net-(C21-Pad1)*%
X129705000Y-123065000D03*
%TO.P,R61,2*%
%TO.N,Net-(U6A-+)*%
X129705000Y-133225000D03*
%TD*%
%TO.P,C35,1*%
%TO.N,LVL_METER*%
X103455000Y-154125000D03*
%TO.P,C35,2*%
%TO.N,AGND*%
X98455000Y-154125000D03*
%TD*%
D11*
%TO.P,C1,1*%
%TO.N,Net-(C1-Pad1)*%
X177657000Y-96695000D03*
D12*
%TO.P,C1,2*%
%TO.N,Net-(C1-Pad2)*%
X177657000Y-94195000D03*
%TD*%
%TO.P,R13,1*%
%TO.N,Net-(Q2-B)*%
X145765000Y-86815000D03*
%TO.P,R13,2*%
%TO.N,Net-(C8-Pad1)*%
X155925000Y-86815000D03*
%TD*%
D23*
%TO.P,C21,1*%
%TO.N,Net-(C21-Pad1)*%
X122717000Y-141943000D03*
D12*
%TO.P,C21,2*%
%TO.N,AGND*%
X122717000Y-144443000D03*
%TD*%
%TO.P,R85,1*%
%TO.N,Net-(U7A-+)*%
X94895000Y-138435000D03*
%TO.P,R85,2*%
%TO.N,AGND*%
X94895000Y-128275000D03*
%TD*%
%TO.P,R3,1*%
%TO.N,Net-(U1A-+)*%
X152895000Y-107065000D03*
%TO.P,R3,2*%
%TO.N,AGND*%
X152895000Y-117225000D03*
%TD*%
D28*
%TO.N,CHASSIS*%
X181992900Y-141184200D03*
X184086300Y-95255600D03*
X187051800Y-75385000D03*
X185372000Y-99645700D03*
%TO.N,OUT+*%
X193776700Y-79928500D03*
X171014500Y-61708400D03*
X92865900Y-58879500D03*
X91616000Y-78575800D03*
%TO.N,AUXOUT+*%
X193779100Y-83883500D03*
%TO.N,OUT-*%
X190910900Y-92573400D03*
X86715100Y-88624100D03*
X164666000Y-109602100D03*
X153325000Y-97821900D03*
X115091600Y-102070800D03*
X193784700Y-87993900D03*
X94321300Y-87952000D03*
%TO.N,AGND*%
X193770500Y-90979000D03*
%TO.N,LINK*%
X95975300Y-120479000D03*
X188910800Y-95667900D03*
X100306100Y-146030900D03*
X193758500Y-95667900D03*
X180458900Y-143986900D03*
%TO.N,AUXOUT-*%
X192960500Y-99070300D03*
X188217100Y-98835300D03*
%TO.N,IN-*%
X91667300Y-85044500D03*
X151650200Y-102206100D03*
X162094500Y-111118400D03*
X116397800Y-102206100D03*
%TO.N,AUXIN-*%
X193775600Y-107452400D03*
%TO.N,IN+*%
X89670600Y-86360000D03*
X150763500Y-101257800D03*
X118836200Y-100982700D03*
X162204200Y-112332800D03*
%TO.N,AUXIN+*%
X193778300Y-113324800D03*
%TO.N,+48V-IN*%
X200487900Y-132566900D03*
%TO.N,Net-(U1B-+)*%
X149926800Y-106264500D03*
%TO.N,Net-(LED1-A)*%
X117378900Y-100146000D03*
X127464300Y-100421000D03*
X132337400Y-113872400D03*
%TO.N,BYP_B*%
X121965500Y-79811100D03*
X154526000Y-74476400D03*
X121965500Y-72755800D03*
%TO.N,Net-(Q2-C)*%
X138381900Y-69783300D03*
%TO.N,Net-(Q3-C)*%
X143000000Y-72850000D03*
%TO.N,Net-(Q1-E)*%
X139527300Y-77717200D03*
%TO.N,Net-(R94-Pad2)*%
X105476300Y-131100500D03*
%TO.N,STA*%
X122861200Y-118519500D03*
%TO.N,HPF_B*%
X106057000Y-109012200D03*
X128742300Y-114171800D03*
%TO.N,RATIO_CW*%
X80967900Y-83081900D03*
X76247100Y-106621200D03*
%TO.N,Net-(C9-Pad2)*%
X130501000Y-96864500D03*
%TO.N,GR_METER*%
X84736600Y-121944800D03*
%TO.N,SIG-VCA*%
X111770800Y-95694600D03*
%TO.N,KEY*%
X75629000Y-145031600D03*
%TO.N,OUT-A*%
X148403100Y-75427600D03*
X107695100Y-96148000D03*
X171775800Y-63500000D03*
%TO.N,HPF_A*%
X104022400Y-115516300D03*
X110182200Y-116868500D03*
%TO.N,MAKEUP_FB*%
X112694000Y-81417900D03*
X101384400Y-89555300D03*
%TO.N,LINK_SW*%
X78414800Y-118880300D03*
X85851700Y-120398500D03*
%TO.N,BYP_A*%
X124140700Y-78634000D03*
X122812500Y-75763900D03*
X152851300Y-74029200D03*
X100081800Y-89555300D03*
%TO.N,KEY_SRC*%
X132321800Y-131430900D03*
%TO.N,Net-(C1-Pad2)*%
X155395500Y-91118200D03*
X166785900Y-96164600D03*
X161964000Y-91118200D03*
%TD*%
%TO.N,CHASSIS*%
D29*
X191295000Y-71045000D02*
X191295000Y-74565000D01*
X185618700Y-144810000D02*
X185921900Y-144810000D01*
X192115000Y-75385000D02*
X198254000Y-75385000D01*
X185921900Y-144810000D02*
X187189700Y-146077800D01*
X175629400Y-155580200D02*
X84080200Y-155580200D01*
X186286200Y-148250600D02*
X182959000Y-148250600D01*
X184086300Y-95255600D02*
X184086300Y-98360000D01*
X192115000Y-75385000D02*
X187051800Y-75385000D01*
X181992900Y-141184200D02*
X185618700Y-144810000D01*
X187189700Y-147347100D02*
X186286200Y-148250600D01*
X187189700Y-146077800D02*
X187189700Y-147347100D01*
X191295000Y-74565000D02*
X192115000Y-75385000D01*
X182959000Y-148250600D02*
X175629400Y-155580200D01*
X84080200Y-155580200D02*
X79500000Y-151000000D01*
X184086300Y-98360000D02*
X185372000Y-99645700D01*
X198254000Y-75385000D02*
X198500000Y-75139000D01*
%TO.N,OUT+*%
D30*
X78121800Y-84744500D02*
X84290500Y-78575800D01*
X78121800Y-89551800D02*
X78121800Y-84744500D01*
X197670500Y-79928500D02*
X193776700Y-79928500D01*
X84290500Y-78575800D02*
X91616000Y-78575800D01*
X171014500Y-61708400D02*
X161651100Y-61708400D01*
X158822200Y-58879500D02*
X92865900Y-58879500D01*
X198500000Y-79099000D02*
X197670500Y-79928500D01*
X80010000Y-91440000D02*
X78121800Y-89551800D01*
X161651100Y-61708400D02*
X158822200Y-58879500D01*
%TO.N,AUXOUT+*%
X197675500Y-83883500D02*
X198500000Y-83059000D01*
X193779100Y-83883500D02*
X197675500Y-83883500D01*
%TO.N,OUT-*%
X190910900Y-92573400D02*
X184824900Y-92573400D01*
X86715100Y-88624100D02*
X87387200Y-87952000D01*
X184824900Y-92573400D02*
X167796200Y-109602100D01*
X87387200Y-87952000D02*
X94321300Y-87952000D01*
X193784700Y-87993900D02*
X197525100Y-87993900D01*
X167796200Y-109602100D02*
X164666000Y-109602100D01*
X115091600Y-101244000D02*
X118513700Y-97821900D01*
X197525100Y-87993900D02*
X198500000Y-87019000D01*
X115091600Y-102070800D02*
X115091600Y-101244000D01*
X118513700Y-97821900D02*
X153325000Y-97821900D01*
%TO.N,AGND*%
D31*
X91700000Y-116840000D02*
X82550000Y-116840000D01*
X171370000Y-74930000D02*
X172660600Y-76220600D01*
X137933000Y-139387000D02*
X141967000Y-139387000D01*
X124625000Y-95255000D02*
X134785000Y-85095000D01*
X172765000Y-102435000D02*
X168602700Y-102435000D01*
X112599500Y-108150500D02*
X105700200Y-108150500D01*
X88905000Y-95255000D02*
X86360000Y-92710000D01*
X101680000Y-128270000D02*
X94900000Y-128270000D01*
X135970000Y-118110000D02*
X134695000Y-119385000D01*
X163087700Y-107950000D02*
X162480000Y-107950000D01*
X181955000Y-75385000D02*
X191295000Y-66045000D01*
X134695000Y-119385000D02*
X129185000Y-119385000D01*
X107595000Y-86365000D02*
X107595000Y-88700000D01*
X185765000Y-150525000D02*
X188755000Y-147535000D01*
X198500000Y-90979000D02*
X193770500Y-90979000D01*
X162480000Y-108634600D02*
X165170400Y-111325000D01*
X122717000Y-144443000D02*
X125469000Y-147195000D01*
X104060000Y-109790700D02*
X104060000Y-109855000D01*
X101680000Y-60960000D02*
X92350000Y-60960000D01*
X168602700Y-102435000D02*
X163087700Y-107950000D01*
X188755000Y-147535000D02*
X191295000Y-147535000D01*
X167015000Y-120145000D02*
X169755000Y-120145000D01*
X156375000Y-77675000D02*
X160615000Y-77675000D01*
X172660600Y-76220600D02*
X181119400Y-76220600D01*
X105700200Y-108150500D02*
X104060000Y-109790700D01*
X193770500Y-90979000D02*
X180669000Y-90979000D01*
X114885000Y-105865000D02*
X112599500Y-108150500D01*
X125469000Y-147195000D02*
X129705000Y-147195000D01*
X92350000Y-60960000D02*
X91085000Y-59695000D01*
X180669000Y-90979000D02*
X174785000Y-85095000D01*
X94900000Y-128270000D02*
X94895000Y-128275000D01*
X129185000Y-119385000D02*
X127423500Y-117623500D01*
X141967000Y-139387000D02*
X143425000Y-140845000D01*
X169755000Y-120145000D02*
X172800000Y-123190000D01*
X181119400Y-76220600D02*
X181955000Y-75385000D01*
X162480000Y-107950000D02*
X162480000Y-108634600D01*
X91085000Y-95255000D02*
X88905000Y-95255000D01*
X107595000Y-88700000D02*
X101680000Y-94615000D01*
X127423500Y-117623500D02*
X119516500Y-117623500D01*
X94445000Y-119585000D02*
X91700000Y-116840000D01*
X144425000Y-129545000D02*
X148235000Y-129545000D01*
X86360000Y-92710000D02*
X82550000Y-96520000D01*
X119516500Y-117623500D02*
X119025000Y-118115000D01*
X165170400Y-111325000D02*
X172765000Y-111325000D01*
X86360000Y-92710000D02*
X82550000Y-88900000D01*
X160615000Y-77675000D02*
X162085000Y-76205000D01*
%TO.N,LINK*%
D30*
X172987500Y-151079400D02*
X118756200Y-151079400D01*
X193758500Y-95667900D02*
X197771100Y-95667900D01*
X193758500Y-95667900D02*
X188910800Y-95667900D01*
X180458900Y-143986900D02*
X175825800Y-148620000D01*
X175446900Y-148620000D02*
X172987500Y-151079400D01*
X86912500Y-116122500D02*
X92743500Y-116122500D01*
X92743500Y-116122500D02*
X95975300Y-119354300D01*
X82550000Y-111760000D02*
X86912500Y-116122500D01*
X197771100Y-95667900D02*
X198500000Y-94939000D01*
X175825800Y-148620000D02*
X175446900Y-148620000D01*
X118756200Y-151079400D02*
X113707700Y-146030900D01*
X95975300Y-119354300D02*
X95975300Y-120479000D01*
X113707700Y-146030900D02*
X100306100Y-146030900D01*
%TO.N,AUXOUT-*%
X192960500Y-99070300D02*
X192725500Y-98835300D01*
X198328700Y-99070300D02*
X192960500Y-99070300D01*
X192725500Y-98835300D02*
X188217100Y-98835300D01*
X198500000Y-98899000D02*
X198328700Y-99070300D01*
%TO.N,IN-*%
X172768700Y-113862800D02*
X165240600Y-113862800D01*
X184196500Y-102435000D02*
X172768700Y-113862800D01*
X80010000Y-88900000D02*
X78700900Y-87590900D01*
X162496200Y-111118400D02*
X162094500Y-111118400D01*
X79122200Y-85044500D02*
X91667300Y-85044500D01*
X191815000Y-102435000D02*
X198076000Y-102435000D01*
X165240600Y-113862800D02*
X162496200Y-111118400D01*
X78700900Y-85465800D02*
X79122200Y-85044500D01*
X191815000Y-102435000D02*
X184196500Y-102435000D01*
X198076000Y-102435000D02*
X198500000Y-102859000D01*
X151650200Y-102206100D02*
X116397800Y-102206100D01*
X78700900Y-87590900D02*
X78700900Y-85465800D01*
%TO.N,AUXIN-*%
X197866600Y-107452400D02*
X198500000Y-106819000D01*
X193775600Y-107452400D02*
X197866600Y-107452400D01*
%TO.N,IN+*%
X119111300Y-101257800D02*
X150763500Y-101257800D01*
X192361000Y-110779000D02*
X198500000Y-110779000D01*
X191815000Y-111325000D02*
X188715500Y-114424500D01*
X164295900Y-114424500D02*
X162204200Y-112332800D01*
X188715500Y-114424500D02*
X164295900Y-114424500D01*
X191815000Y-111325000D02*
X192361000Y-110779000D01*
X82550000Y-86360000D02*
X89670600Y-86360000D01*
X118836200Y-100982700D02*
X119111300Y-101257800D01*
%TO.N,AUXIN+*%
X197085800Y-113324800D02*
X198500000Y-114739000D01*
X193778300Y-113324800D02*
X197085800Y-113324800D01*
%TO.N,+16V-IN*%
D29*
X197154000Y-120045000D02*
X198500000Y-118699000D01*
X192115000Y-120045000D02*
X197154000Y-120045000D01*
%TO.N,PGND*%
X190690600Y-125769900D02*
X193801500Y-122659000D01*
X192115000Y-130205000D02*
X190690600Y-128780600D01*
X190690600Y-128780600D02*
X190690600Y-125769900D01*
X193801500Y-122659000D02*
X198500000Y-122659000D01*
%TO.N,-16V-IN*%
X192115000Y-126395000D02*
X198276000Y-126395000D01*
X198276000Y-126395000D02*
X198500000Y-126619000D01*
%TO.N,+48V-IN*%
D30*
X200487900Y-132566900D02*
X198500000Y-130579000D01*
%TO.N,-5V1*%
D29*
X152565000Y-134495000D02*
X148755000Y-134495000D01*
X140497000Y-145755000D02*
X141305000Y-145755000D01*
X141305000Y-145755000D02*
X152565000Y-134495000D01*
X148755000Y-134495000D02*
X147485000Y-133225000D01*
X156121300Y-74327800D02*
X156121300Y-60341300D01*
X147485000Y-133225000D02*
X143425000Y-133225000D01*
X154352500Y-126357500D02*
X154352500Y-76096600D01*
X156121300Y-60341300D02*
X155925000Y-60145000D01*
X147485000Y-133225000D02*
X154352500Y-126357500D01*
X154352500Y-76096600D02*
X156121300Y-74327800D01*
%TO.N,Net-(C10-Pad1)*%
D30*
X129976000Y-83056500D02*
X144563500Y-83056500D01*
X144563500Y-83056500D02*
X146215000Y-81405000D01*
X119545000Y-93985000D02*
X127302400Y-86227600D01*
X127302400Y-85730100D02*
X129976000Y-83056500D01*
X127302400Y-86227600D02*
X127302400Y-85730100D01*
%TO.N,Net-(U1B-+)*%
X149926800Y-106264500D02*
X147494800Y-106264500D01*
X120662500Y-103027500D02*
X119545000Y-104145000D01*
X147494800Y-106264500D02*
X144257800Y-103027500D01*
X144257800Y-103027500D02*
X120662500Y-103027500D01*
%TO.N,CTRL-B*%
X117135000Y-129545000D02*
X119545000Y-131955000D01*
X106680000Y-100965000D02*
X105364300Y-99649300D01*
X112675000Y-129545000D02*
X117135000Y-129545000D01*
X105364300Y-99649300D02*
X105364300Y-94101600D01*
X105364300Y-94101600D02*
X108020900Y-91445000D01*
X108020900Y-91445000D02*
X110135000Y-91445000D01*
%TO.N,Net-(LED1-A)*%
X138912400Y-113872400D02*
X132337400Y-113872400D01*
X119182800Y-100146000D02*
X117378900Y-100146000D01*
X127464300Y-100421000D02*
X119457800Y-100421000D01*
X119457800Y-100421000D02*
X119182800Y-100146000D01*
X144425000Y-119385000D02*
X138912400Y-113872400D01*
%TO.N,Net-(C13-Pad1)*%
X175605000Y-80465000D02*
X170525000Y-85545000D01*
X179065000Y-60965000D02*
X183675000Y-60965000D01*
X179415000Y-80465000D02*
X175605000Y-80465000D01*
X173990000Y-66040000D02*
X179065000Y-60965000D01*
%TO.N,BYP_B*%
X107909600Y-71120000D02*
X90937200Y-71120000D01*
X148749700Y-74590900D02*
X131307000Y-74590900D01*
X154526000Y-74476400D02*
X154092100Y-74910300D01*
X131307000Y-74590900D02*
X126086800Y-79811100D01*
X109545400Y-72755800D02*
X107909600Y-71120000D01*
X77542600Y-84514600D02*
X77542600Y-94052600D01*
X90937200Y-71120000D02*
X77542600Y-84514600D01*
X77542600Y-94052600D02*
X80010000Y-96520000D01*
X121965500Y-72755800D02*
X109545400Y-72755800D01*
X149069100Y-74910300D02*
X148749700Y-74590900D01*
X126086800Y-79811100D02*
X121965500Y-79811100D01*
X154092100Y-74910300D02*
X149069100Y-74910300D01*
%TO.N,PAD*%
X147705000Y-112305000D02*
X143675000Y-108275000D01*
X143675000Y-108275000D02*
X143675000Y-104265000D01*
%TO.N,+16V*%
D29*
X160193000Y-120943000D02*
X159395000Y-120145000D01*
X106680000Y-128270000D02*
X106680000Y-132080000D01*
X177800000Y-123190000D02*
X178810000Y-123190000D01*
X140970000Y-118110000D02*
X139449900Y-116589900D01*
X122045000Y-67725000D02*
X125873300Y-67725000D01*
X124625000Y-137035000D02*
X111635000Y-137035000D01*
X132739900Y-116589900D02*
X125375000Y-109225000D01*
X130730400Y-68429400D02*
X139465600Y-68429400D01*
X108947600Y-94615000D02*
X106680000Y-94615000D01*
X160193000Y-125510000D02*
X177800000Y-125510000D01*
X139465600Y-68429400D02*
X142710000Y-65185000D01*
X162735200Y-98884800D02*
X162735200Y-105344600D01*
X122460000Y-106310000D02*
X125375000Y-109225000D01*
X117524300Y-106310000D02*
X122460000Y-106310000D01*
X160193000Y-125510000D02*
X160193000Y-120943000D01*
X127000000Y-66040000D02*
X125873300Y-66040000D01*
X177800000Y-125510000D02*
X177800000Y-127000000D01*
X140970000Y-118110000D02*
X140970000Y-121920000D01*
X165100000Y-92710000D02*
X168520000Y-89290000D01*
X125873300Y-63113300D02*
X125873300Y-66040000D01*
X106680000Y-94615000D02*
X106680000Y-98425000D01*
X109635000Y-67725000D02*
X122045000Y-67725000D01*
X129540000Y-70970000D02*
X129540000Y-69844100D01*
X165100000Y-96520000D02*
X162735200Y-98884800D01*
X168520000Y-89290000D02*
X168520000Y-68970000D01*
X104560000Y-126150000D02*
X106680000Y-128270000D01*
X142710000Y-65185000D02*
X146725000Y-65185000D01*
X112518100Y-87510100D02*
X112518100Y-91044500D01*
X148265000Y-65185000D02*
X154655000Y-71575000D01*
X106680000Y-64770000D02*
X109635000Y-67725000D01*
X82550000Y-121920000D02*
X86780000Y-126150000D01*
X122905000Y-60145000D02*
X125873300Y-63113300D01*
X129540000Y-69844100D02*
X129540000Y-69619800D01*
X129540000Y-72321700D02*
X127706500Y-72321700D01*
X129540000Y-69619800D02*
X129540000Y-69618300D01*
X168520000Y-68970000D02*
X173990000Y-63500000D01*
X161060800Y-107019000D02*
X161060800Y-118479200D01*
X86780000Y-126150000D02*
X104560000Y-126150000D01*
X178810000Y-123190000D02*
X181955000Y-120045000D01*
X146725000Y-65185000D02*
X148265000Y-65185000D01*
X112518100Y-91044500D02*
X108947600Y-94615000D01*
X127646700Y-67725000D02*
X129540000Y-69618300D01*
X173990000Y-59690000D02*
X173990000Y-63500000D01*
X106680000Y-60960000D02*
X106680000Y-64770000D01*
X165100000Y-92710000D02*
X165100000Y-96520000D01*
X111635000Y-137035000D02*
X106680000Y-132080000D01*
X109639300Y-98425000D02*
X117524300Y-106310000D01*
X127706500Y-72321700D02*
X112518100Y-87510100D01*
X125873300Y-67725000D02*
X125873300Y-66040000D01*
X139449900Y-116589900D02*
X132739900Y-116589900D01*
X160193000Y-125510000D02*
X160193000Y-127027000D01*
X129540000Y-69619800D02*
X130730400Y-68429400D01*
X106680000Y-98425000D02*
X109639300Y-98425000D01*
X125873300Y-67725000D02*
X127646700Y-67725000D01*
X129540000Y-70970000D02*
X129540000Y-72321700D01*
X177800000Y-123190000D02*
X177800000Y-125510000D01*
X161060800Y-118479200D02*
X159395000Y-120145000D01*
X162735200Y-105344600D02*
X161060800Y-107019000D01*
%TO.N,Net-(C21-Pad1)*%
D30*
X124625000Y-123065000D02*
X129705000Y-123065000D01*
%TO.N,Net-(Q2-C)*%
X132715000Y-69783300D02*
X138381900Y-69783300D01*
X132715000Y-70970000D02*
X132715000Y-69783300D01*
%TO.N,Net-(Q2-B)*%
X143973300Y-85023300D02*
X140970000Y-85023300D01*
X140970000Y-86210000D02*
X140970000Y-85023300D01*
X139758400Y-83811700D02*
X130988300Y-83811700D01*
X145765000Y-86815000D02*
X143973300Y-85023300D01*
X130988300Y-83811700D02*
X129705000Y-85095000D01*
X140970000Y-85023300D02*
X139758400Y-83811700D01*
%TO.N,-16V*%
D29*
X129466000Y-139531700D02*
X133350000Y-135647700D01*
X161079800Y-93712600D02*
X161079800Y-100540200D01*
X167015000Y-143005000D02*
X167015000Y-141595000D01*
X179239300Y-135206000D02*
X178383200Y-136062100D01*
X99060000Y-141128700D02*
X120992900Y-141128700D01*
X167015000Y-141595000D02*
X166714700Y-141294700D01*
X167015000Y-141595000D02*
X170180000Y-138430000D01*
X170180000Y-138430000D02*
X170180000Y-134647000D01*
X166370000Y-74930000D02*
X166370000Y-71120000D01*
X99060000Y-76200000D02*
X99060000Y-72390000D01*
X162693000Y-134647000D02*
X157306900Y-129260900D01*
X161079800Y-100540200D02*
X157480000Y-104140000D01*
X170180000Y-134647000D02*
X162693000Y-134647000D01*
X147485000Y-143385000D02*
X147485000Y-143657000D01*
X100507400Y-95429200D02*
X100507400Y-104597600D01*
X99060000Y-109855000D02*
X101463000Y-109855000D01*
X141467600Y-149674400D02*
X139608700Y-149674400D01*
X181955000Y-126395000D02*
X179239300Y-129110700D01*
X99060000Y-143510000D02*
X99060000Y-141128700D01*
X149575300Y-141294700D02*
X147485000Y-143385000D01*
X99060000Y-93981800D02*
X100507400Y-95429200D01*
X171622100Y-136062100D02*
X170180000Y-134620000D01*
X166714700Y-141294700D02*
X149575300Y-141294700D01*
X147485000Y-143657000D02*
X141467600Y-149674400D01*
X157480000Y-107950000D02*
X157480000Y-104140000D01*
X157306900Y-129260900D02*
X157306900Y-108123100D01*
X99060000Y-109855000D02*
X99060000Y-106045000D01*
X121148000Y-129540000D02*
X133350000Y-129540000D01*
X133350000Y-129540000D02*
X133350000Y-133350000D01*
X179239300Y-129110700D02*
X179239300Y-135206000D01*
X178383200Y-136062100D02*
X171622100Y-136062100D01*
X100507400Y-104597600D02*
X99060000Y-106045000D01*
X99060000Y-141128700D02*
X99060000Y-139700000D01*
X157306900Y-108123100D02*
X157480000Y-107950000D01*
X122589900Y-139531700D02*
X129466000Y-139531700D01*
X120992900Y-141128700D02*
X122589900Y-139531700D01*
X133350000Y-135647700D02*
X133350000Y-133350000D01*
X166370000Y-74930000D02*
X166370000Y-88422400D01*
X99060000Y-76200000D02*
X99060000Y-93981800D01*
X139608700Y-149674400D02*
X129466000Y-139531700D01*
X101463000Y-109855000D02*
X121148000Y-129540000D01*
X166370000Y-88422400D02*
X161079800Y-93712600D01*
X170180000Y-134647000D02*
X170180000Y-134620000D01*
%TO.N,LVL_METER*%
D30*
X102870600Y-133350600D02*
X91440600Y-133350600D01*
X91440600Y-133350600D02*
X80010000Y-121920000D01*
X106680000Y-137160000D02*
X102870600Y-133350600D01*
%TO.N,Net-(D5-A)*%
X106680000Y-69850000D02*
X108860000Y-69850000D01*
X110135000Y-71125000D02*
X113945000Y-71125000D01*
X108860000Y-69850000D02*
X110135000Y-71125000D01*
%TO.N,Net-(Q3-C)*%
X125445000Y-76655000D02*
X128800000Y-73300000D01*
X142550000Y-73300000D02*
X143000000Y-72850000D01*
X128800000Y-73300000D02*
X142550000Y-73300000D01*
%TO.N,Net-(Q1-E)*%
X136667200Y-77717200D02*
X139527300Y-77717200D01*
X135605000Y-76655000D02*
X136667200Y-77717200D01*
%TO.N,Net-(R94-Pad2)*%
X104496800Y-132080000D02*
X105476300Y-131100500D01*
X99060000Y-132080000D02*
X104496800Y-132080000D01*
X94605000Y-143865000D02*
X92065000Y-143865000D01*
%TO.N,Net-(U7A--)*%
X111400000Y-138430000D02*
X112675000Y-139705000D01*
X94900000Y-134620000D02*
X99060000Y-134620000D01*
X102870000Y-138430000D02*
X111400000Y-138430000D01*
X99060000Y-134620000D02*
X102870000Y-138430000D01*
X91085000Y-138435000D02*
X94900000Y-134620000D01*
%TO.N,Net-(U7A-+)*%
X96170000Y-137160000D02*
X94895000Y-138435000D01*
X99060000Y-137160000D02*
X96170000Y-137160000D01*
%TO.N,Net-(Q1-C)*%
X129540000Y-66040000D02*
X130501700Y-66040000D01*
X131688400Y-67226700D02*
X130501700Y-66040000D01*
X135255000Y-67226700D02*
X131688400Y-67226700D01*
X135255000Y-66040000D02*
X135255000Y-67226700D01*
%TO.N,Net-(U1A--)*%
X147815000Y-104525000D02*
X149085000Y-103255000D01*
X149085000Y-103255000D02*
X152895000Y-103255000D01*
%TO.N,Net-(R4-Pad2)*%
X147815000Y-94365000D02*
X144045000Y-94365000D01*
X144045000Y-94365000D02*
X143975000Y-94435000D01*
%TO.N,STA*%
X125164500Y-120822800D02*
X122861200Y-118519500D01*
X133350000Y-121920000D02*
X132252800Y-120822800D01*
X132252800Y-120822800D02*
X125164500Y-120822800D01*
%TO.N,Net-(Q1-B)*%
X139665000Y-99265000D02*
X139415000Y-99515000D01*
X143675000Y-99265000D02*
X139665000Y-99265000D01*
%TO.N,TIMING*%
X109705000Y-106045000D02*
X109885000Y-105865000D01*
X106680000Y-106045000D02*
X109705000Y-106045000D01*
%TO.N,Net-(C1-Pad1)*%
X177765000Y-102435000D02*
X181655000Y-102435000D01*
%TO.N,Net-(U3A--)*%
X93625000Y-78745000D02*
X91085000Y-81285000D01*
X94895000Y-78745000D02*
X93625000Y-78745000D01*
%TO.N,HPF_B*%
X121306700Y-114171800D02*
X128742300Y-114171800D01*
X106057000Y-109012200D02*
X116147100Y-109012200D01*
X116147100Y-109012200D02*
X121306700Y-114171800D01*
%TO.N,Net-(U4A-+)*%
X99060000Y-103505000D02*
X97150000Y-105415000D01*
X97150000Y-105415000D02*
X91085000Y-105415000D01*
%TO.N,RATIO_CW*%
X99060000Y-98425000D02*
X97160000Y-96525000D01*
X95158000Y-87308100D02*
X90931800Y-83081900D01*
X90931800Y-83081900D02*
X80967900Y-83081900D01*
X94895000Y-96525000D02*
X95158000Y-96262000D01*
X95158000Y-96262000D02*
X95158000Y-87308100D01*
X80010000Y-109220000D02*
X77411200Y-106621200D01*
X77411200Y-106621200D02*
X76247100Y-106621200D01*
X97160000Y-96525000D02*
X94895000Y-96525000D01*
%TO.N,Net-(U4B--)*%
X108235000Y-103505000D02*
X110135000Y-101605000D01*
X106680000Y-103505000D02*
X108235000Y-103505000D01*
%TO.N,VBIAS*%
X131291000Y-109225000D02*
X133643000Y-111577000D01*
X125433400Y-99123400D02*
X125375000Y-99065000D01*
X129255000Y-99515000D02*
X128863500Y-99123500D01*
X128863500Y-99123400D02*
X125433400Y-99123400D01*
X129185000Y-109225000D02*
X131291000Y-109225000D01*
X128863500Y-99123500D02*
X128863500Y-99123400D01*
%TO.N,Net-(U3A-+)*%
X91090000Y-69850000D02*
X91085000Y-69855000D01*
X99060000Y-69850000D02*
X91090000Y-69850000D01*
%TO.N,Net-(C9-Pad2)*%
X118307200Y-91532800D02*
X118307200Y-94529100D01*
X119545000Y-90295000D02*
X118307200Y-91532800D01*
X120642600Y-96864500D02*
X130501000Y-96864500D01*
X118307200Y-94529100D02*
X120642600Y-96864500D01*
%TO.N,GR_METER*%
X84736600Y-121944800D02*
X100364800Y-121944800D01*
X100364800Y-121944800D02*
X102065000Y-123645000D01*
%TO.N,SIG-VCA*%
X149022300Y-79747700D02*
X151295000Y-77475000D01*
X126740700Y-85431600D02*
X132424500Y-79747800D01*
X120995800Y-87082300D02*
X125189300Y-87082300D01*
X125189300Y-87082300D02*
X126740700Y-85530900D01*
X117210900Y-92213200D02*
X117210900Y-90867200D01*
X117210900Y-90867200D02*
X120995800Y-87082300D01*
X132424500Y-79747800D02*
X149022300Y-79747800D01*
X111770800Y-95694600D02*
X113729500Y-95694600D01*
X126740700Y-85530900D02*
X126740700Y-85431600D01*
X113729500Y-95694600D02*
X117210900Y-92213200D01*
X149022300Y-79747800D02*
X149022300Y-79747700D01*
%TO.N,KEY*%
X118703600Y-145031600D02*
X75629000Y-145031600D01*
X162947400Y-150482600D02*
X124154600Y-150482600D01*
X170975000Y-142455000D02*
X162947400Y-150482600D01*
X124154600Y-150482600D02*
X118703600Y-145031600D01*
%TO.N,OUT-A*%
X166370000Y-63500000D02*
X171775800Y-63500000D01*
X116055900Y-92573800D02*
X115012800Y-93616900D01*
X124990000Y-86487200D02*
X120739500Y-86487200D01*
X115012800Y-93616900D02*
X111546400Y-93616900D01*
X148403100Y-75994600D02*
X145246700Y-79151000D01*
X111546400Y-93616900D02*
X109015300Y-96148000D01*
X116055900Y-91170800D02*
X116055900Y-92573800D01*
X132216400Y-79151000D02*
X125980900Y-85386500D01*
X125980900Y-85496300D02*
X124990000Y-86487200D01*
X120739500Y-86487200D02*
X116055900Y-91170800D01*
X145246700Y-79151000D02*
X132216400Y-79151000D01*
X109015300Y-96148000D02*
X107695100Y-96148000D01*
X148403100Y-75427600D02*
X148403100Y-75994600D01*
X125980900Y-85386500D02*
X125980900Y-85496300D01*
%TO.N,HPF_A*%
X110318700Y-117005000D02*
X114316900Y-117005000D01*
X82550000Y-104140000D02*
X85908100Y-104140000D01*
X122932400Y-121588000D02*
X130849100Y-121588000D01*
X130849100Y-121588000D02*
X132451600Y-123190500D01*
X116988600Y-119676700D02*
X121021100Y-119676700D01*
X139700500Y-123190500D02*
X140970000Y-124460000D01*
X121021100Y-119676700D02*
X122932400Y-121588000D01*
X103520900Y-116017800D02*
X104022400Y-115516300D01*
X97785900Y-116017800D02*
X103520900Y-116017800D01*
X114316900Y-117005000D02*
X116988600Y-119676700D01*
X132451600Y-123190500D02*
X139700500Y-123190500D01*
X110182200Y-116868500D02*
X110318700Y-117005000D01*
X85908100Y-104140000D02*
X97785900Y-116017800D01*
%TO.N,Net-(U2B--)*%
X179865000Y-71125000D02*
X178595000Y-69855000D01*
X175265000Y-69855000D02*
X173990000Y-68580000D01*
X178595000Y-69855000D02*
X175265000Y-69855000D01*
X183675000Y-71125000D02*
X179865000Y-71125000D01*
%TO.N,Net-(D5-K)*%
X114965000Y-82555000D02*
X111155000Y-82555000D01*
%TO.N,MAKEUP_FB*%
X109622400Y-81317300D02*
X101384400Y-89555300D01*
X166365000Y-66045000D02*
X166370000Y-66040000D01*
X112694000Y-81417900D02*
X112593400Y-81317300D01*
X112593400Y-81317300D02*
X109622400Y-81317300D01*
X162085000Y-66045000D02*
X166365000Y-66045000D01*
%TO.N,Net-(Q5-E)*%
X146215000Y-76405000D02*
X144030800Y-78589200D01*
X131130800Y-78589200D02*
X124625000Y-85095000D01*
X144030800Y-78589200D02*
X131130800Y-78589200D01*
%TO.N,Net-(D6-K)*%
X114965000Y-74935000D02*
X109886500Y-80013500D01*
X103786500Y-80013500D02*
X103785000Y-80015000D01*
X109886500Y-80013500D02*
X103786500Y-80013500D01*
%TO.N,RATIO_W*%
X82550000Y-109220000D02*
X88540000Y-109220000D01*
X88540000Y-109220000D02*
X88545000Y-109225000D01*
%TO.N,LINK_SW*%
X78414800Y-113355200D02*
X78414800Y-118880300D01*
X87531500Y-120398500D02*
X85851700Y-120398500D01*
X80010000Y-111760000D02*
X78414800Y-113355200D01*
X88545000Y-119385000D02*
X87531500Y-120398500D01*
%TO.N,Net-(C2-Pad1)*%
X181655000Y-111325000D02*
X177765000Y-111325000D01*
%TO.N,Net-(D11-A)*%
X113945000Y-151135000D02*
X111405000Y-153675000D01*
X114965000Y-151135000D02*
X113945000Y-151135000D01*
%TO.N,Net-(Q5-B)*%
X136821700Y-71575000D02*
X136216700Y-70970000D01*
X144495000Y-71575000D02*
X136821700Y-71575000D01*
X135255000Y-70970000D02*
X136216700Y-70970000D01*
%TO.N,BYP_A*%
X109061900Y-80575200D02*
X100081800Y-89555300D01*
X118001200Y-80575200D02*
X109061900Y-80575200D01*
X122812500Y-75763900D02*
X118001200Y-80575200D01*
X125677300Y-78634000D02*
X124140700Y-78634000D01*
X152851300Y-74029200D02*
X130282100Y-74029200D01*
X130282100Y-74029200D02*
X125677300Y-78634000D01*
%TO.N,KEY_SRC*%
X85422700Y-101600000D02*
X97242300Y-113419600D01*
X113061600Y-126230700D02*
X116291200Y-126230700D01*
X82550000Y-101600000D02*
X85422700Y-101600000D01*
X103137700Y-113419600D02*
X104859200Y-115141100D01*
X116291200Y-126230700D02*
X121491400Y-131430900D01*
X121491400Y-131430900D02*
X132321800Y-131430900D01*
X97242300Y-113419600D02*
X103137700Y-113419600D01*
X104859200Y-118028300D02*
X113061600Y-126230700D01*
X104859200Y-115141100D02*
X104859200Y-118028300D01*
%TO.N,Net-(Q3-E)*%
X145725000Y-60105000D02*
X145765000Y-60145000D01*
X141095000Y-60105000D02*
X145725000Y-60105000D01*
%TO.N,Net-(C1-Pad2)*%
X167113000Y-96491700D02*
X166785900Y-96164600D01*
X175360300Y-96491700D02*
X167113000Y-96491700D01*
X177657000Y-94195000D02*
X175360300Y-96491700D01*
X161964000Y-91118200D02*
X155395500Y-91118200D01*
%TD*%
M02*
