M48
; DRILL file KiCad 10.0.6 date 2026-10-03T06:30:38
; FORMAT={-:-/ absolute / metric / decimal}
; #@! TF.CreationDate,2026-10-03T06:30:38+00:00
; #@! TF.GenerationSoftware,Kicad,Pcbnew,10.0.6
; #@! TF.FileFunction,Plated,1,2,PTH
FMAT,2
METRIC
; #@! TA.AperFunction,Plated,PTH,ViaDrill
T1C0.400
; #@! TA.AperFunction,Plated,PTH,ComponentDrill
T2C0.750
; #@! TA.AperFunction,Plated,PTH,ComponentDrill
T3C0.800
; #@! TA.AperFunction,Plated,PTH,ComponentDrill
T4C0.900
; #@! TA.AperFunction,Plated,PTH,ComponentDrill
T5C1.000
; #@! TA.AperFunction,Plated,PTH,ComponentDrill
T6C1.100
; #@! TA.AperFunction,Plated,PTH,ComponentDrill
T7C3.200
%
G90
G05
T1
X75.65Y-117.238
X75.65Y-132.634
X79.75Y-82.044
X83.95Y-85.36
X85.75Y-88.01
X87.25Y-97.735
X89.65Y-82.044
X90.15Y-109.385
X90.154Y-119.683
X90.85Y-115.038
X90.95Y-87.298
X90.95Y-89.598
X92.05Y-89.544
X97.65Y-107.132
X99.014Y-93.654
X100.714Y-103.754
X100.714Y-105.654
X102.15Y-90.444
X102.25Y-103.832
X105.95Y-86.46
X105.95Y-89.56
X106.72Y-108.645
X107.55Y-93.144
X108.35Y-98.835
X110.15Y-110.938
X110.655Y-78.345
X114.35Y-98.7
X114.927Y-140.107
X117.45Y-96.644
X117.867Y-142.131
X118.233Y-123.663
X118.45Y-105.535
X119.745Y-77.525
X119.745Y-79.825
X120.15Y-110.071
X121.35Y-110.035
X122.201Y-121.378
X123.037Y-110.422
X123.08Y-117.593
X124.058Y-77.6
X124.158Y-118.8
X125.845Y-63.34
X127.888Y-116.727
X129.201Y-121.378
X131.35Y-91.032
X131.468Y-70.017
X132.658Y-72.7
X132.85Y-91.16
X133.758Y-69.9
X134.045Y-74.145
X134.141Y-81.3
X135.133Y-140.963
X135.345Y-72.845
X135.969Y-94.38
X137.343Y-95.637
X137.769Y-92.581
X139.143Y-93.938
X139.235Y-121.495
X139.782Y-58.427
X140.55Y-108.1
X140.726Y-106.739
X141.047Y-71.0
X142.45Y-120.835
X142.45Y-123.135
X142.582Y-58.427
X142.95Y-84.66
X143.015Y-77.57
X143.015Y-79.87
X143.05Y-83.432
X143.279Y-105.046
X145.617Y-77.525
X146.015Y-104.205
X146.626Y-120.839
X146.626Y-123.139
X146.826Y-73.639
X147.441Y-77.6
X149.31Y-109.52
X151.31Y-106.02
X152.25Y-114.6
X152.495Y-102.72
X153.765Y-123.125
X155.895Y-108.845
X159.833Y-108.703
X159.833Y-111.203
X160.15Y-117.6
X160.643Y-95.237
X160.643Y-97.537
X163.15Y-117.6
X163.311Y-77.462
X163.311Y-101.462
X164.369Y-89.68
X164.741Y-68.06
X165.243Y-126.629
X166.269Y-137.717
X167.007Y-108.84
X167.007Y-111.14
X167.223Y-77.503
X167.223Y-90.103
X167.95Y-81.632
X168.433Y-124.303
X168.433Y-134.203
X168.933Y-136.563
X169.146Y-77.576
X170.07Y-99.626
X170.133Y-124.413
X170.38Y-135.595
X172.139Y-77.45
X172.139Y-79.95
X172.239Y-65.65
X173.355Y-108.495
X174.08Y-135.595
X174.931Y-105.1
X174.931Y-110.8
X175.39Y-77.54
X175.39Y-79.84
X176.131Y-124.3
X176.131Y-129.2
X178.35Y-92.632
X181.655Y-108.495
X183.95Y-112.2
X184.405Y-77.555
X184.75Y-141.3
X184.841Y-133.985
X186.65Y-141.3
X186.831Y-77.6
X186.831Y-79.9
X188.041Y-109.385
X188.041Y-110.985
X189.15Y-108.7
X189.45Y-91.7
X189.45Y-101.7
X189.55Y-117.6
X189.75Y-77.5
X189.75Y-80.0
X190.494Y-109.198
X190.594Y-120.998
X192.55Y-77.4
X192.85Y-94.832
X193.671Y-110.425
X193.671Y-112.125
X196.65Y-87.0
X197.994Y-99.498
X198.354Y-118.799
X198.364Y-114.739
X198.5Y-83.059
X198.5Y-90.979
X198.5Y-94.939
X198.5Y-98.899
X198.5Y-106.819
X198.5Y-122.659
X198.5Y-126.619
X198.5Y-130.579
X198.515Y-75.139
X198.55Y-79.099
X198.55Y-110.779
T2
X122.045Y-65.185
X122.045Y-66.455
X122.045Y-67.725
X127.0Y-66.04
X127.0Y-70.97
X128.27Y-66.04
X128.27Y-70.97
X129.54Y-66.04
X129.54Y-70.97
X132.715Y-66.04
X132.715Y-70.97
X133.985Y-66.04
X133.985Y-70.97
X135.255Y-66.04
X135.255Y-70.97
X139.7Y-81.28
X139.7Y-86.21
X140.97Y-81.28
X140.97Y-86.21
X141.095Y-60.105
X141.095Y-61.375
X141.095Y-62.645
X142.24Y-81.28
X142.24Y-86.21
X146.725Y-65.185
X146.725Y-66.455
X146.725Y-67.725
T3
X77.51Y-136.84
X77.561Y-133.255
X77.677Y-129.707
X85.617Y-148.43
X87.46Y-69.05
X87.46Y-79.21
X87.67Y-136.84
X87.721Y-133.255
X87.837Y-129.707
X88.545Y-109.225
X88.545Y-119.385
X89.525Y-143.865
X91.085Y-59.695
X91.085Y-69.855
X91.085Y-81.285
X91.085Y-91.445
X91.085Y-95.255
X91.085Y-105.415
X91.085Y-128.275
X91.085Y-138.435
X92.065Y-143.865
X94.605Y-143.865
X94.895Y-68.585
X94.895Y-78.745
X94.895Y-96.525
X94.895Y-106.685
X94.895Y-128.275
X94.895Y-138.435
X95.777Y-148.43
X97.435Y-82.555
X97.435Y-92.715
X99.06Y-64.77
X99.06Y-67.31
X99.06Y-69.85
X99.06Y-72.39
X99.06Y-76.2
X99.06Y-98.425
X99.06Y-100.965
X99.06Y-103.505
X99.06Y-106.045
X99.06Y-109.855
X99.06Y-132.08
X99.06Y-134.62
X99.06Y-137.16
X99.06Y-139.7
X99.06Y-143.51
X101.455Y-147.125
X101.455Y-152.125
X101.68Y-60.96
X101.68Y-94.615
X101.68Y-128.27
X103.785Y-80.015
X103.785Y-90.175
X104.06Y-76.2
X104.06Y-109.855
X104.06Y-143.51
X106.68Y-60.96
X106.68Y-64.77
X106.68Y-67.31
X106.68Y-69.85
X106.68Y-72.39
X106.68Y-94.615
X106.68Y-98.425
X106.68Y-100.965
X106.68Y-103.505
X106.68Y-106.045
X106.68Y-128.27
X106.68Y-132.08
X106.68Y-134.62
X106.68Y-137.16
X106.68Y-139.7
X107.595Y-76.205
X107.595Y-86.365
X107.595Y-143.515
X107.595Y-153.675
X110.135Y-60.965
X110.135Y-71.125
X110.135Y-91.445
X110.135Y-101.605
X111.155Y-74.935
X111.155Y-82.555
X111.405Y-143.515
X111.405Y-153.675
X112.565Y-113.195
X112.565Y-115.735
X112.565Y-118.275
X112.675Y-129.545
X112.675Y-139.705
X113.545Y-101.246
X113.545Y-108.866
X113.945Y-60.965
X113.945Y-71.125
X114.965Y-74.935
X114.965Y-82.555
X114.965Y-143.515
X114.965Y-151.135
X116.037Y-122.512
X116.037Y-130.132
X119.025Y-107.955
X119.025Y-118.115
X119.545Y-121.795
X119.545Y-131.955
X120.815Y-71.125
X120.815Y-81.285
X122.717Y-141.943
X122.717Y-144.443
X122.905Y-60.145
X124.625Y-112.905
X124.625Y-123.065
X124.625Y-126.875
X124.625Y-137.035
X125.375Y-99.065
X125.375Y-109.225
X125.445Y-76.655
X125.97Y-85.065
X125.97Y-95.225
X126.46Y-81.752
X129.185Y-109.225
X129.185Y-119.385
X129.433Y-97.927
X129.433Y-102.927
X129.705Y-85.095
X129.705Y-95.255
X129.705Y-123.065
X129.705Y-133.225
X129.705Y-137.035
X129.705Y-147.195
X133.065Y-60.145
X133.35Y-121.92
X133.35Y-124.46
X133.35Y-127.0
X133.35Y-129.54
X133.35Y-133.35
X135.433Y-139.387
X135.605Y-76.655
X135.97Y-118.11
X136.62Y-81.752
X137.933Y-139.387
X138.35Y-133.35
X139.865Y-66.045
X139.865Y-76.205
X140.497Y-145.755
X140.497Y-148.255
X140.635Y-109.795
X140.635Y-114.795
X140.97Y-118.11
X140.97Y-121.92
X140.97Y-124.46
X140.97Y-127.0
X140.97Y-129.54
X143.425Y-133.225
X143.425Y-140.845
X144.031Y-74.645
X144.425Y-119.385
X144.425Y-129.545
X145.517Y-83.16
X146.531Y-74.645
X147.485Y-133.225
X147.485Y-143.385
X147.705Y-109.765
X147.705Y-112.305
X147.705Y-114.845
X148.235Y-119.385
X148.235Y-129.545
X152.565Y-120.525
X152.565Y-130.685
X152.565Y-134.495
X152.565Y-139.495
X152.895Y-107.065
X152.895Y-117.225
X155.677Y-83.16
X155.947Y-116.333
X156.013Y-127.201
X156.013Y-137.361
X157.48Y-96.52
X157.48Y-99.06
X157.48Y-101.6
X157.48Y-104.14
X157.48Y-107.95
X158.5Y-89.217
X158.795Y-112.595
X160.1Y-92.71
X160.193Y-127.027
X160.193Y-134.647
X160.365Y-80.465
X160.365Y-85.545
X162.48Y-107.95
X162.693Y-127.027
X162.693Y-134.647
X165.1Y-92.71
X165.1Y-96.52
X165.1Y-99.06
X165.1Y-101.6
X165.1Y-104.14
X165.116Y-108.399
X166.107Y-116.333
X166.37Y-63.5
X166.37Y-66.04
X166.37Y-68.58
X166.37Y-71.12
X166.37Y-74.93
X168.555Y-95.255
X168.555Y-105.415
X168.66Y-89.217
X168.955Y-112.595
X168.99Y-59.69
X170.116Y-108.399
X170.18Y-127.0
X170.18Y-129.54
X170.18Y-132.08
X170.18Y-134.62
X170.18Y-138.43
X170.525Y-80.465
X170.525Y-85.545
X170.975Y-142.455
X170.975Y-152.615
X171.37Y-74.93
X171.484Y-114.76
X172.124Y-89.286
X172.124Y-99.446
X172.765Y-102.435
X172.765Y-111.325
X172.8Y-123.19
X172.969Y-106.013
X173.99Y-59.69
X173.99Y-63.5
X173.99Y-66.04
X173.99Y-68.58
X173.99Y-71.12
X174.785Y-74.935
X174.785Y-85.095
X175.18Y-138.43
X175.33Y-88.212
X175.605Y-142.905
X175.605Y-146.715
X175.605Y-150.525
X177.657Y-94.195
X177.657Y-96.695
X177.765Y-102.435
X177.765Y-111.325
X177.8Y-123.19
X177.8Y-127.0
X177.8Y-129.54
X177.8Y-132.08
X177.8Y-134.62
X178.595Y-59.695
X178.595Y-69.855
X179.415Y-80.465
X181.644Y-114.76
X181.655Y-102.435
X181.655Y-111.325
X181.955Y-75.385
X181.955Y-120.045
X181.955Y-126.395
X181.955Y-130.205
X181.955Y-134.015
X183.129Y-106.013
X183.675Y-60.965
X183.675Y-71.125
X184.415Y-80.465
X185.49Y-88.212
X185.765Y-142.905
X185.765Y-146.715
X185.765Y-150.525
X186.547Y-94.195
X186.547Y-96.695
X191.295Y-66.045
X191.295Y-71.045
X191.295Y-137.375
X191.295Y-147.535
X191.815Y-102.435
X191.815Y-111.325
X192.115Y-75.385
X192.115Y-120.045
X192.115Y-126.395
X192.115Y-130.205
X192.115Y-134.015
T4
X116.152Y-135.659
X118.692Y-135.659
T5
X80.01Y-86.36
X80.01Y-88.9
X80.01Y-91.44
X80.01Y-93.98
X80.01Y-96.52
X80.01Y-99.06
X80.01Y-101.6
X80.01Y-104.14
X80.01Y-106.68
X80.01Y-109.22
X80.01Y-111.76
X80.01Y-114.3
X80.01Y-116.84
X80.01Y-119.38
X80.01Y-121.92
X82.55Y-86.36
X82.55Y-88.9
X82.55Y-91.44
X82.55Y-93.98
X82.55Y-96.52
X82.55Y-99.06
X82.55Y-101.6
X82.55Y-104.14
X82.55Y-106.68
X82.55Y-109.22
X82.55Y-111.76
X82.55Y-114.3
X82.55Y-116.84
X82.55Y-119.38
X82.55Y-121.92
T6
X92.885Y-118.365
X107.885Y-118.365
X119.545Y-85.795
X119.545Y-100.795
X138.175Y-90.765
X138.175Y-105.765
X148.715Y-86.405
X148.715Y-101.405
X156.875Y-61.675
X156.875Y-76.675
X159.395Y-120.145
X159.395Y-143.005
X167.015Y-120.145
X167.015Y-143.005
T7
X79.5Y-151.0
M30
