0
SECTION
2
ENTITIES
0
LINE
8
PANEL
10
0.0000
20
0.0000
11
38.1000
21
0.0000
0
LINE
8
PANEL
10
38.1000
20
0.0000
11
38.1000
21
133.3500
0
LINE
8
PANEL
10
38.1000
20
133.3500
11
0.0000
21
133.3500
0
LINE
8
PANEL
10
0.0000
20
133.3500
11
0.0000
21
0.0000
0
CIRCLE
8
CUTOUT
10
19.0500
20
81.3500
40
3.6000
0
CIRCLE
8
CUTOUT
10
19.0500
20
60.8500
40
3.6000
0
CIRCLE
8
CUTOUT
10
10.0000
20
42.3500
40
3.6000
0
CIRCLE
8
CUTOUT
10
25.1000
20
42.3500
40
3.6000
0
CIRCLE
8
CUTOUT
10
19.0500
20
22.3500
40
3.6000
0
CIRCLE
8
CUTOUT
10
7.1500
20
81.3500
40
3.2500
0
CIRCLE
8
CUTOUT
10
30.9500
20
81.3500
40
3.2500
0
CIRCLE
8
CUTOUT
10
7.1500
20
60.8500
40
3.2500
0
CIRCLE
8
CUTOUT
10
30.9500
20
60.8500
40
3.2500
0
CIRCLE
8
CUTOUT
10
14.1000
20
119.3500
40
1.1000
0
CIRCLE
8
CUTOUT
10
14.1000
20
115.8500
40
1.1000
0
CIRCLE
8
CUTOUT
10
14.1000
20
112.3500
40
1.1000
0
CIRCLE
8
CUTOUT
10
14.1000
20
108.8500
40
1.1000
0
CIRCLE
8
CUTOUT
10
14.1000
20
105.3500
40
1.1000
0
CIRCLE
8
CUTOUT
10
14.1000
20
101.8500
40
1.1000
0
CIRCLE
8
CUTOUT
10
14.1000
20
98.3500
40
1.1000
0
CIRCLE
8
CUTOUT
10
24.0000
20
119.3500
40
1.1000
0
CIRCLE
8
CUTOUT
10
24.0000
20
115.8500
40
1.1000
0
CIRCLE
8
CUTOUT
10
24.0000
20
112.3500
40
1.1000
0
CIRCLE
8
CUTOUT
10
24.0000
20
108.8500
40
1.1000
0
CIRCLE
8
CUTOUT
10
24.0000
20
105.3500
40
1.1000
0
CIRCLE
8
CUTOUT
10
24.0000
20
101.8500
40
1.1000
0
CIRCLE
8
CUTOUT
10
24.0000
20
98.3500
40
1.1000
0
CIRCLE
8
MOUNT
10
19.0500
20
129.3900
40
1.5900
0
CIRCLE
8
MOUNT
10
19.0500
20
3.9600
40
1.5900
0
ENDSEC
0
EOF
